<svg preserveAspectRatio="none" width="100%" height="100%" overflow="visible" style="display: block;" viewBox="0 0 40 40" fill="none" xmlns="http://www.w3.org/2000/svg">
<g id="WechatLogo">
<path id="Vector" d="M22.4988 21.8739C22.4988 22.2448 22.3889 22.6073 22.1828 22.9156C21.9768 23.224 21.684 23.4643 21.3413 23.6062C20.9987 23.7481 20.6217 23.7853 20.258 23.7129C19.8943 23.6406 19.5602 23.462 19.298 23.1998C19.0358 22.9375 18.8572 22.6034 18.7848 22.2397C18.7125 21.876 18.7496 21.499 18.8915 21.1564C19.0335 20.8138 19.2738 20.521 19.5821 20.3149C19.8905 20.1089 20.253 19.9989 20.6238 19.9989C21.1211 19.9989 21.598 20.1965 21.9496 20.5481C22.3013 20.8997 22.4988 21.3767 22.4988 21.8739ZM29.3738 19.9989C29.003 19.9989 28.6405 20.1089 28.3321 20.3149C28.0238 20.521 27.7835 20.8138 27.6415 21.1564C27.4996 21.499 27.4625 21.876 27.5348 22.2397C27.6072 22.6034 27.7858 22.9375 28.048 23.1998C28.3102 23.462 28.6443 23.6406 29.008 23.7129C29.3717 23.7853 29.7487 23.7481 30.0913 23.6062C30.434 23.4643 30.7268 23.224 30.9328 22.9156C31.1388 22.6073 31.2488 22.2448 31.2488 21.8739C31.2488 21.3767 31.0513 20.8997 30.6996 20.5481C30.348 20.1965 29.8711 19.9989 29.3738 19.9989ZM37.3957 33.0411C37.5227 33.4721 37.5312 33.9294 37.4203 34.3649C37.3094 34.8003 37.0831 35.1978 36.7654 35.5155C36.4477 35.8333 36.0502 36.0595 35.6147 36.1704C35.1793 36.2813 34.722 36.2728 34.291 36.1458L30.4301 35.0099C28.908 35.744 27.2529 36.1618 25.5647 36.2382C23.8766 36.3145 22.1905 36.0478 20.6084 35.4541C19.0263 34.8604 17.5809 33.9521 16.3598 32.7841C15.1386 31.616 14.1669 30.2125 13.5035 28.6583C12.1367 28.4976 10.8064 28.1094 9.56757 27.5099L5.70663 28.6458C5.27561 28.7728 4.81833 28.7813 4.3829 28.6704C3.94746 28.5595 3.54997 28.3333 3.23223 28.0155C2.9145 27.6978 2.68828 27.3003 2.57736 26.8649C2.46644 26.4294 2.47494 25.9721 2.60194 25.5411L3.73788 21.6802C3.02546 20.1812 2.61867 18.5554 2.54126 16.8975C2.46384 15.2397 2.71735 13.583 3.28698 12.0242C3.85662 10.4653 4.73097 9.03552 5.85905 7.81818C6.98712 6.60084 8.34632 5.62033 9.85735 4.93386C11.3684 4.24738 13.001 3.86869 14.6599 3.81986C16.3189 3.77104 17.9709 4.05307 19.5197 4.64949C21.0685 5.24591 22.483 6.14479 23.6807 7.29368C24.8784 8.44258 25.8354 9.81848 26.4957 11.3411C28.4701 11.579 30.3592 12.2846 32.0062 13.3992C33.6531 14.5138 35.0104 16.0053 35.9652 17.7497C36.92 19.4942 37.4448 21.4413 37.496 23.4293C37.5473 25.4173 37.1234 27.3889 36.2598 29.1802L37.3957 33.0411ZM12.7019 25.9833C12.3928 24.29 12.4369 22.551 12.8317 20.8755C13.2264 19.2001 13.9632 17.6243 14.9958 16.247C16.0284 14.8698 17.3345 13.7209 18.8322 12.8723C20.3298 12.0238 21.9867 11.494 23.6988 11.3161C23.0652 10.1657 22.2112 9.15139 21.1855 8.33104C20.1599 7.51068 18.9827 6.90038 17.7212 6.53497C15.1735 5.79698 12.437 6.1013 10.1137 7.38096C7.79032 8.66063 6.07049 10.8108 5.33251 13.3585C4.59452 15.9063 4.89884 18.6428 6.17851 20.9661C6.33241 21.2538 6.36774 21.5903 6.27694 21.9036L4.99882 26.2489L9.33632 24.9724C9.64969 24.8816 9.98614 24.9169 10.2738 25.0708C11.0397 25.48 11.8561 25.7868 12.7019 25.9833ZM33.8191 28.4661C34.9499 26.3514 35.2831 23.9008 34.7579 21.5609C34.2328 19.2211 32.8843 17.1478 30.9583 15.7192C29.0323 14.2905 26.657 13.6015 24.2654 13.7778C21.8738 13.9542 19.6253 14.984 17.9296 16.6797C16.2339 18.3754 15.204 20.624 15.0277 23.0155C14.8514 25.4071 15.5404 27.7824 16.969 29.7084C18.3977 31.6344 20.4709 32.9829 22.8108 33.508C25.1506 34.0332 27.6013 33.7 29.716 32.5692C30.0037 32.4153 30.3401 32.38 30.6535 32.4708L34.9988 33.7489L33.7223 29.4114C33.6288 29.0959 33.6637 28.7562 33.8191 28.4661Z" fill="var(--fill-0, #1B1718)"/>
</g>
</svg>
