<svg preserveAspectRatio="none" width="100%" height="100%" overflow="visible" style="display: block;" viewBox="0 0 98 40" fill="none" xmlns="http://www.w3.org/2000/svg">
<g id="Craftkit">
<path id="Vector" d="M81.072 40C80.5929 40 80.1937 39.8676 79.8743 39.6028C79.5549 39.3644 79.4218 38.9407 79.4751 38.3317C79.6614 37.6432 80.1937 37.2989 81.072 37.2989C81.631 37.2989 82.1766 37.2857 82.7089 37.2592C83.2679 37.2327 83.8002 37.14 84.3059 36.9811C84.8382 36.8487 85.344 36.6236 85.823 36.3059C86.4086 35.9086 87.0873 35.2201 87.8592 34.2403C88.6311 33.287 89.4429 32.1748 90.2946 30.9037C91.1463 29.6591 91.9581 28.3747 92.73 27.0506C93.5018 25.7266 94.1539 24.482 94.6863 23.3168C95.2452 22.1516 95.6178 21.1983 95.8042 20.4568C95.9905 19.6888 96.057 18.9871 96.0038 18.3515C95.9505 17.716 95.8441 17.1599 95.6844 16.6832C95.5247 16.1801 95.3783 15.7431 95.2452 15.3724C95.1121 14.9752 95.0456 14.6574 95.0456 14.4191C95.0456 14.0218 95.1787 13.7041 95.4448 13.4657C95.711 13.2274 96.057 13.1082 96.4829 13.1082C97.0418 13.1082 97.4277 13.3069 97.6407 13.7041C97.8802 14.1013 98 14.6309 98 15.293C98 16.2463 97.7871 17.3982 97.3612 18.7488C96.9353 20.0728 96.3498 21.5161 95.6045 23.0785C94.8859 24.6408 94.0475 26.2165 93.0893 27.8054C92.1577 29.3678 91.1596 30.8772 90.095 32.3337C89.0569 33.8166 87.9923 35.1274 86.901 36.2661C85.8097 37.4048 84.7584 38.3052 83.747 38.9672C82.7622 39.6557 81.8705 40 81.072 40ZM89.0569 33.3267C89.2166 27.4743 88.8839 22.946 88.0588 19.7418C87.2603 16.5111 86.0892 14.8957 84.5455 14.8957C84.1995 14.8957 83.8401 15.0017 83.4675 15.2135C83.1215 15.4254 82.8154 15.8093 82.5492 16.3654C82.496 16.4714 82.3895 16.5111 82.2298 16.4846C82.0968 16.4316 82.0435 16.3522 82.0701 16.2463C82.5759 15.24 83.1348 14.472 83.747 13.9424C84.3591 13.4128 85.0379 13.148 85.7831 13.148C86.7147 13.148 87.5398 13.5981 88.2584 14.4985C88.9771 15.3989 89.5626 16.6435 90.0151 18.2324C90.4676 19.7948 90.787 21.6087 90.9733 23.6743C91.1596 25.7133 91.1862 27.898 91.0531 30.2284L89.0569 33.3267Z" fill="var(--fill-0, #1B1718)"/>
<path id="Vector_2" d="M75.9496 29.1956C75.2576 29.1956 74.8184 28.9043 74.6321 28.3217C74.4724 27.7392 74.5124 26.7329 74.7519 25.3029L78.7044 4.25025C78.8907 3.29692 78.7976 2.70109 78.425 2.46276C78.0523 2.22443 77.2671 2.39656 76.0694 2.97915C75.963 3.03211 75.8698 2.97915 75.7899 2.82026C75.7367 2.66137 75.7633 2.56869 75.8698 2.5422L81.02 0.0397228C81.1265 -0.0132407 81.233 0.0132403 81.3394 0.119166C81.4459 0.225091 81.4858 0.304536 81.4592 0.357499L76.828 25.3029C76.6683 26.0973 76.655 26.6799 76.7881 27.0506C76.9211 27.4214 77.1474 27.6068 77.4668 27.6068C77.7596 27.6068 78.1322 27.4479 78.5847 27.1301C79.0371 26.7858 79.5428 26.3356 80.1018 25.7795C80.2083 25.6736 80.3147 25.6736 80.4212 25.7795C80.5276 25.8855 80.5276 25.9914 80.4212 26.0973C79.5695 27.0771 78.7843 27.8451 78.0656 28.4012C77.347 28.9308 76.6417 29.1956 75.9496 29.1956Z" fill="var(--fill-0, #1B1718)"/>
<path id="Vector_3" d="M49.3537 39.7617C48.4221 39.7617 47.7567 39.5763 47.3575 39.2055C46.9316 38.8613 46.7586 38.4773 46.8384 38.0536C46.8651 37.7094 47.0115 37.4181 47.2776 37.1797C47.5438 36.9414 47.8765 36.8222 48.2757 36.8222C48.7016 36.8222 49.0077 36.9282 49.194 37.14C49.3803 37.3783 49.5134 37.6432 49.5932 37.9344C49.6731 38.2257 49.7795 38.4773 49.9126 38.6892C50.0191 38.9275 50.232 39.0467 50.5514 39.0467C50.8708 39.0467 51.137 38.8348 51.3499 38.4111C51.5895 38.0139 51.829 37.2195 52.0685 36.0278C52.3081 34.8361 52.6009 33.0619 52.9469 30.7051L54.983 16.6832C55.0895 16.0212 55.1028 15.5445 55.023 15.2532C54.9697 14.9354 54.7701 14.7368 54.4241 14.6574C54.0781 14.5515 53.5324 14.4985 52.7872 14.4985C52.6807 14.4985 52.6408 14.4191 52.6674 14.2602C52.694 14.1013 52.7473 14.0218 52.8271 14.0218C53.7853 14.0218 54.464 13.8894 54.8633 13.6246C55.2625 13.3598 55.5154 12.8964 55.6218 12.2344C56.0211 9.82456 56.4469 7.83846 56.8994 6.27606C57.3785 4.68719 57.9241 3.44257 58.5363 2.5422C59.1485 1.61536 59.8671 0.966566 60.6922 0.595828C61.5173 0.198609 62.5154 0 63.6866 0C64.6447 0 65.3767 0.21185 65.8824 0.63555C66.3881 1.03277 66.6144 1.50943 66.5611 2.06554C66.4813 2.46276 66.3083 2.75405 66.0421 2.93942C65.7759 3.12479 65.4832 3.21748 65.1638 3.21748C64.7379 3.21748 64.4318 3.08507 64.2455 2.82026C64.0858 2.55544 63.9394 2.25091 63.8063 1.90665C63.6999 1.56239 63.5535 1.25786 63.3672 0.993047C63.1809 0.728235 62.8748 0.595828 62.4489 0.595828C61.4109 0.595828 60.5192 1.50943 59.774 3.33664C59.0287 5.13737 58.3899 7.82522 57.8576 11.4002L55.1827 29.6723C54.81 32.188 54.3842 34.1873 53.9051 35.6703C53.426 37.1533 52.8138 38.1993 52.0685 38.8083C51.3499 39.4439 50.445 39.7617 49.3537 39.7617ZM65.3235 29.3148C64.7911 29.3148 64.2987 29.2089 63.8463 28.997C63.3938 28.8116 63.0478 28.4806 62.8082 28.004C62.5953 27.5008 62.5687 26.8123 62.7284 25.9384L64.4052 16.6832C64.5117 16.0741 64.5117 15.6504 64.4052 15.4121C64.3254 15.1473 64.1257 14.9884 63.8063 14.9354C63.4869 14.8825 63.0212 14.8428 62.409 14.8163C61.717 14.7898 60.8253 14.7633 59.734 14.7368C58.6694 14.7104 57.4717 14.6971 56.1408 14.6971V13.9821C57.5249 13.9821 58.7759 13.9821 59.8937 13.9821C61.0382 13.9821 62.0097 13.9556 62.8082 13.9027C63.8995 13.9027 64.7778 13.6246 65.4432 13.0685C66.1353 12.5124 66.601 11.8107 66.8406 10.9633C66.8406 10.8838 66.9471 10.8441 67.16 10.8441C67.3995 10.8441 67.506 10.8838 67.4794 10.9633L65.0041 24.707C64.7911 25.7928 64.8311 26.5872 65.1238 27.0904C65.4432 27.5935 66.0155 27.8451 66.8406 27.8451C67.6125 27.8451 68.3045 27.6729 68.9167 27.3287C69.5288 26.958 70.1277 26.5343 70.7133 26.0576C70.7665 26.0046 70.8463 26.0311 70.9528 26.137C71.0593 26.243 71.0859 26.3224 71.0327 26.3754C69.8349 27.4346 68.7836 28.1893 67.8786 28.6395C66.9737 29.0897 66.122 29.3148 65.3235 29.3148ZM70.9927 15.2532C70.3539 15.1738 69.6353 15.0943 68.8368 15.0149C68.0383 14.909 67.1866 14.856 66.2816 14.856L66.3615 13.9027C66.9471 13.9027 67.5992 13.8894 68.3178 13.863C69.0364 13.81 69.7285 13.7703 70.3939 13.7438C71.0593 13.6908 71.6182 13.6511 72.0707 13.6246C72.1772 13.6246 72.257 13.6643 72.3102 13.7438C72.3635 13.7968 72.3768 13.8762 72.3502 13.9821C72.2969 14.194 72.1239 14.472 71.8311 14.8163C71.565 15.1605 71.2855 15.3062 70.9927 15.2532Z" fill="var(--fill-0, #1B1718)"/>
<path id="Vector_4" d="M36.8731 29.3545C35.9948 29.3545 35.3294 29.0367 34.8769 28.4012C34.4244 27.7656 34.2914 26.7064 34.4777 25.2234C34.6906 23.7934 35.1431 22.3634 35.8351 20.9335C36.5538 19.477 37.4188 18.1529 38.4302 16.9613C39.4682 15.7696 40.5595 14.8163 41.704 14.1013C42.8485 13.3598 43.9398 12.9891 44.9778 12.9891C45.4835 12.9891 45.9626 13.0818 46.4151 13.2671C46.8942 13.426 47.3067 13.7173 47.6527 14.141C47.9988 14.5382 48.1984 15.0679 48.2516 15.7299L46.5349 14.6574C46.8809 14.6044 47.2668 14.3926 47.6927 14.0218C48.1451 13.6246 48.4379 13.1744 48.571 12.6713C48.6242 12.5919 48.7174 12.5654 48.8505 12.5919C49.0102 12.6183 49.0767 12.6581 49.0501 12.711L46.7345 25.3029C46.4683 26.8388 46.6679 27.6067 47.3333 27.6067C47.6261 27.6067 47.9988 27.4479 48.4512 27.1301C48.9303 26.7858 49.436 26.3356 49.9684 25.7795C50.0482 25.7001 50.1414 25.7133 50.2478 25.8193C50.3543 25.9252 50.3676 26.0179 50.2878 26.0973C49.436 27.0771 48.6509 27.8451 47.9322 28.4012C47.2136 28.9308 46.5082 29.1956 45.8162 29.1956C45.1774 29.1956 44.7649 28.9043 44.5786 28.3217C44.3922 27.7391 44.4322 26.7329 44.6983 25.3029L45.6565 19.7418L46.3352 19.0665C45.5367 21.0791 44.6052 22.8666 43.5405 24.429C42.4759 25.9649 41.3713 27.1698 40.2268 28.0437C39.0823 28.9176 37.9644 29.3545 36.8731 29.3545ZM38.3104 27.4081C39.0557 27.4081 39.8276 27.1168 40.626 26.5343C41.4245 25.9517 42.1831 25.1969 42.9017 24.2701C43.647 23.3168 44.2858 22.284 44.8181 21.1718C45.3771 20.0331 45.763 18.9209 45.9759 17.8351C46.1888 16.8553 46.0957 16.0344 45.6964 15.3724C45.2972 14.7104 44.6052 14.3793 43.6204 14.3793C42.6888 14.4058 41.7439 14.8295 40.7857 15.6504C39.8276 16.4449 38.9758 17.5174 38.2306 18.8679C37.4853 20.192 36.9796 21.7147 36.7135 23.4359C36.5271 24.76 36.5538 25.7531 36.7933 26.4151C37.0595 27.0771 37.5652 27.4081 38.3104 27.4081Z" fill="var(--fill-0, #1B1718)"/>
<path id="Vector_5" d="M25.4385 28.5601L25.0393 28.5203C25.2522 27.3287 25.545 26.0443 25.9176 24.6673C26.3169 23.2638 26.7693 21.8868 27.2751 20.5362C27.7808 19.1857 28.3264 17.9543 28.912 16.8421C29.4975 15.7299 30.0964 14.8428 30.7086 14.1807C31.3207 13.4922 31.9329 13.148 32.5451 13.148C32.9177 13.148 33.277 13.2539 33.623 13.4657C33.9691 13.6511 34.2485 13.9027 34.4615 14.2204C34.701 14.5382 34.7809 14.8957 34.701 15.2929C34.6212 15.6372 34.4615 15.902 34.2219 16.0874C34.009 16.2728 33.7428 16.3654 33.4234 16.3654C33.0242 16.3654 32.7181 16.2595 32.5052 16.0477C32.3188 15.8358 32.1458 15.624 31.9861 15.4121C31.8531 15.1738 31.6534 15.0546 31.3873 15.0546C31.0146 15.0546 30.6021 15.3724 30.1496 16.0079C29.6971 16.617 29.2314 17.4379 28.7523 18.4707C28.2732 19.477 27.8074 20.5892 27.3549 21.8073C26.929 22.999 26.5431 24.1907 26.1971 25.3823C25.8511 26.574 25.5982 27.6332 25.4385 28.5601ZM24.1609 29.1559C23.7883 29.1559 23.5488 29.1294 23.4423 29.0765C23.3358 29.05 23.2826 28.997 23.2826 28.9176C23.2826 28.8116 23.3492 28.4409 23.4822 27.8054C23.6419 27.1433 23.775 26.5078 23.8815 25.8987L25.199 18.5501C25.4119 17.4909 25.4918 16.6965 25.4385 16.1668C25.3853 15.6107 25.2655 15.2267 25.0792 15.0149C24.8929 14.803 24.6933 14.6971 24.4803 14.6971C24.1077 14.6971 23.7085 14.856 23.2826 15.1738C22.8568 15.4916 22.4442 15.8226 22.045 16.1668C21.9917 16.2463 21.9119 16.233 21.8054 16.1271C21.6989 16.0212 21.6723 15.9285 21.7256 15.849C22.524 14.9487 23.2693 14.2734 23.9613 13.8232C24.6534 13.373 25.3454 13.148 26.0374 13.148C26.5165 13.148 26.8891 13.3068 27.1553 13.6246C27.4214 13.9159 27.5678 14.4455 27.5945 15.2135C27.6211 15.9815 27.5013 17.0672 27.2351 18.4707L25.4385 28.5601C25.3587 28.9573 24.9328 29.1559 24.1609 29.1559Z" fill="var(--fill-0, #1B1718)"/>
<path id="Vector_6" d="M10.2706 29.3545C8.00818 29.3545 6.15834 28.9705 4.72106 28.2026C3.28378 27.4081 2.19252 26.3621 1.44726 25.0645C0.728621 23.767 0.276144 22.3502 0.08983 20.8143C-0.0698677 19.2784 -0.0166352 17.7425 0.249528 16.2065C0.622156 14.2999 1.27426 12.5786 2.20583 11.0427C3.16401 9.4803 4.32182 8.14299 5.67925 7.03078C7.03668 5.91857 8.51389 5.07116 10.1109 4.48857C11.7078 3.87951 13.3181 3.57497 14.9417 3.57497C16.033 3.57497 17.111 3.70738 18.1756 3.97219C19.2669 4.21052 20.1186 4.54154 20.7308 4.96524C20.9171 5.09764 21.0235 5.21681 21.0502 5.32274C21.0768 5.42866 21.0768 5.62727 21.0502 5.91857L20.6509 10.3277C20.6243 10.4336 20.5445 10.4866 20.4114 10.4866C20.2783 10.4866 20.2117 10.4336 20.2117 10.3277C20.0254 8.2092 19.3068 6.69976 18.0558 5.7994C16.8315 4.89904 15.2877 4.44885 13.4246 4.44885C11.6945 4.44885 10.1109 4.88579 8.67358 5.75968C7.2363 6.63356 6.03857 7.87818 5.08039 9.49354C4.1222 11.0824 3.4701 12.9493 3.12409 15.0943C2.77808 16.9745 2.71153 18.7488 2.92447 20.4171C3.1374 22.0589 3.57656 23.5154 4.24197 24.7865C4.90738 26.0311 5.77241 27.0109 6.83706 27.7259C7.90171 28.4409 9.12606 28.7984 10.5101 28.7984C12.0006 28.7984 13.4645 28.3085 14.9018 27.3287C16.3657 26.3489 17.6832 24.8527 18.8543 22.8401C18.9075 22.7607 19.0007 22.7474 19.1338 22.8004C19.2669 22.8533 19.3068 22.9196 19.2536 22.999L18.0558 27.2492C17.976 27.5935 17.8961 27.8186 17.8163 27.9245C17.7364 28.0304 17.5767 28.1231 17.3372 28.2026C16.0862 28.6263 14.8486 28.9176 13.6242 29.0765C12.3999 29.2618 11.282 29.3545 10.2706 29.3545Z" fill="var(--fill-0, #1B1718)"/>
<path id="Vector_7" d="M18.6447 16.717C15.1076 17.533 13.4433 19.2955 12.5837 22.8203C12.5258 23.0599 12.1003 23.0599 12.0425 22.8203C11.1828 19.2955 9.51848 17.533 5.98437 16.717C5.71228 16.6554 5.71228 16.3446 5.98437 16.283C9.51848 15.467 11.1828 13.7045 12.0425 10.1797C12.1003 9.94011 12.5258 9.94011 12.5837 10.1797C13.4433 13.7045 15.1076 15.467 18.6447 16.283C18.9139 16.3446 18.9139 16.6554 18.6447 16.717Z" fill="var(--fill-0, #862830)"/>
</g>
</svg>
