<svg width="24" height="24" viewBox="0 0 24 24" fill="none" xmlns="http://www.w3.org/2000/svg">
<g clip-path="url(#clip0_182_5319)">
<path d="M23.9071 6.54312L19.9072 1.74319C19.8312 1.65239 19.7188 1.59961 19.6 1.59961H4.40018C4.2814 1.59961 4.169 1.65201 4.09297 1.74319L0.0930382 6.54312C-0.00656985 6.66232 -0.0281789 6.8283 0.0378202 6.96869C0.103819 7.10908 0.245005 7.19908 0.400206 7.19908H23.5999C23.7551 7.19908 23.8963 7.10908 23.9623 6.96869C24.0279 6.82873 24.0067 6.6627 23.9071 6.54312ZM1.25426 6.39912L4.5874 2.39919H19.4124L22.7455 6.39912H1.25426Z" fill="#1B1718"/>
<path d="M12.3697 1.84836C12.3076 1.69878 12.1617 1.60156 12 1.60156H4.40017C4.25697 1.60156 4.12497 1.67797 4.05339 1.80237C3.98181 1.92678 3.98219 2.07917 4.05461 2.20315L6.85456 7.00308C6.91695 7.10986 7.02537 7.18228 7.14855 7.19827C7.16576 7.20028 7.18296 7.20145 7.19974 7.20145C7.30535 7.20145 7.40735 7.15988 7.48295 7.08427L12.2829 2.28433C12.3973 2.16996 12.4317 1.99793 12.3697 1.84836ZM7.28374 6.15189L5.09616 2.40157H11.0341L7.28374 6.15189Z" fill="#1B1718"/>
<path d="M23.9578 6.62123C23.8906 6.48483 23.7514 6.39844 23.5994 6.39844H0.399727C0.247714 6.39844 0.108919 6.48483 0.041326 6.62123C-0.0258919 6.75764 -0.0102827 6.92043 0.0821066 7.04123L11.682 22.241C11.7576 22.3402 11.8752 22.3986 12 22.3986C12.1247 22.3986 12.2423 22.3402 12.3172 22.241L23.917 7.04123C24.0094 6.92043 24.025 6.75764 23.9578 6.62123ZM12 21.3394L1.2085 7.19886H22.7914L12 21.3394Z" fill="#1B1718"/>
<path d="M12.3812 21.8778L7.58125 6.67804C7.52847 6.51164 7.37444 6.39844 7.19965 6.39844H0.399727C0.247714 6.39844 0.108919 6.48483 0.041326 6.62123C-0.0258919 6.75764 -0.0102827 6.92043 0.0821067 7.04123L11.682 22.241C11.7595 22.343 11.8784 22.3986 12 22.3986C12.0623 22.3986 12.1255 22.3842 12.1839 22.353C12.3564 22.2639 12.4395 22.0631 12.3812 21.8778ZM1.20812 7.19886H6.90645L10.9288 19.9363L1.20812 7.19886Z" fill="#1B1718"/>
<path d="M19.9464 1.80237C19.8752 1.67797 19.7428 1.60156 19.5996 1.60156H11.9997C11.8381 1.60156 11.6921 1.69878 11.6301 1.84836C11.5681 1.99793 11.6025 2.16996 11.7169 2.28433L16.5168 7.08427C16.592 7.15988 16.694 7.20145 16.7996 7.20145C16.8168 7.20145 16.834 7.20024 16.8512 7.19827C16.9741 7.18228 17.0828 7.11028 17.1452 7.00308L19.9452 2.20315C20.0172 2.07917 20.0176 1.92678 19.9464 1.80237ZM16.7156 6.15189L12.9653 2.40157H18.9032L16.7156 6.15189Z" fill="#1B1718"/>
<path d="M23.959 6.62318C23.8918 6.48678 23.7526 6.40039 23.6006 6.40039H16.8007C16.6259 6.40039 16.4715 6.51359 16.4191 6.68L11.6191 21.8798C11.5607 22.0646 11.6439 22.2654 11.8163 22.355C11.8747 22.3854 11.9379 22.3998 12.0003 22.3998C12.1215 22.3998 12.2403 22.3442 12.3183 22.243L23.9182 7.04323C24.0106 6.92234 24.0262 6.75954 23.959 6.62318ZM13.0712 19.9374L17.0935 7.19993H22.7918L13.0712 19.9374Z" fill="#1B1718"/>
</g>
<defs>
<clipPath id="clip0_182_5319">
<rect width="24" height="24" fill="white"/>
</clipPath>
</defs>
</svg>
