<svg width="24" height="24" viewBox="0 0 24 24" fill="none" xmlns="http://www.w3.org/2000/svg">
<path d="M19.6879 24H1.65039C1.42539 24 1.27539 23.85 1.27539 23.625V13.6875C1.27539 13.4625 1.42539 13.3125 1.65039 13.3125C1.87539 13.3125 2.02539 13.4625 2.02539 13.6875V23.25H19.3129V15.825C19.3129 15.6 19.4629 15.45 19.6879 15.45C19.9129 15.45 20.0629 15.6 20.0629 15.825V23.625C20.0629 23.85 19.9129 24 19.6879 24Z" fill="#1B1718"/>
<path d="M8.58799 10.8375H4.50049C4.38799 10.8375 4.23799 10.7625 4.20049 10.65C4.16299 10.5375 4.12549 10.425 4.16299 10.275L6.26299 5.6625C6.33799 5.5125 6.45049 5.4375 6.60049 5.4375H9.30049C9.41299 5.4375 9.52549 5.475 9.60049 5.55C9.67549 5.625 9.71299 5.7375 9.67549 5.85L8.96299 10.4625C8.92549 10.6875 8.77549 10.8375 8.58799 10.8375ZM5.10049 10.0875H8.25049L8.85049 6.225H6.82549L5.10049 10.0875Z" fill="#1B1718"/>
<path d="M14.4375 10.8371H12.7125C12.525 10.8371 12.375 10.6871 12.3375 10.4996L12.15 9.18711L11.625 5.92461C11.625 5.81211 11.625 5.69961 11.7 5.62461C11.775 5.54961 11.8875 5.47461 12 5.47461H12.7125C12.9375 5.47461 13.0875 5.62461 13.0875 5.84961C13.0875 6.07461 12.9375 6.22461 12.7125 6.22461H12.45L13.05 10.0871H14.4375C14.6625 10.0871 14.8125 10.2371 14.8125 10.4621C14.8125 10.6871 14.6625 10.8371 14.4375 10.8371Z" fill="#1B1718"/>
<path d="M4.50045 10.8371H0.375452C0.225452 10.8371 0.112952 10.7621 0.0379517 10.6121C-0.0370483 10.4621 0.000451684 10.3496 0.0754517 10.2371L3.26295 6.07461C3.48795 5.69961 3.93795 5.47461 4.46295 5.47461H6.60045C6.71295 5.47461 6.86295 5.54961 6.90045 5.66211C6.93795 5.77461 6.97545 5.88711 6.93795 6.03711L4.83795 10.6496C4.76295 10.7621 4.65045 10.8371 4.50045 10.8371ZM1.12545 10.0871H4.23795L6.00045 6.22461H4.46295C4.31295 6.22461 4.01295 6.26211 3.86295 6.48711L1.12545 10.0871Z" fill="#1B1718"/>
<path d="M12.713 10.8367H8.58795C8.47545 10.8367 8.36295 10.7992 8.28795 10.7242C8.21295 10.6492 8.17545 10.5367 8.21295 10.4242L8.92545 5.81172C8.96295 5.62422 9.11295 5.51172 9.30045 5.51172H12.0005C12.188 5.51172 12.338 5.66172 12.3755 5.81172L13.088 10.4242C13.088 10.5367 13.088 10.6492 13.013 10.7242C12.938 10.7992 12.8255 10.8367 12.713 10.8367ZM9.03795 10.0867H12.3005L11.7005 6.22422H9.63795L9.03795 10.0867Z" fill="#1B1718"/>
<path d="M6.5625 14.1754C5.25 14.1754 4.125 13.0504 4.125 11.7379V10.4629C4.125 10.2379 4.275 10.0879 4.5 10.0879H8.625C8.85 10.0879 9 10.2379 9 10.4629V11.7379C9 13.0504 7.875 14.1754 6.5625 14.1754ZM4.875 10.8379V11.7379C4.875 12.6379 5.6625 13.4254 6.5625 13.4254C7.4625 13.4254 8.25 12.6379 8.25 11.7379V10.8379H4.875Z" fill="#1B1718"/>
<path d="M14.7754 14.1754C13.4629 14.1754 12.3379 13.0504 12.3379 11.7379V10.4629C12.3379 10.2379 12.4879 10.0879 12.7129 10.0879H14.4379C14.6629 10.0879 14.8129 10.2379 14.8129 10.4629C14.8129 10.6879 14.6629 10.8379 14.4379 10.8379H13.0879V11.7379C13.0879 12.6379 13.8754 13.4254 14.7754 13.4254C15.1129 13.4254 15.4504 13.3129 15.7504 13.0879C15.9004 12.9754 16.1629 12.9754 16.2754 13.1629C16.3879 13.3129 16.3879 13.5754 16.2004 13.6879C15.7879 13.9879 15.3004 14.1754 14.7754 14.1754Z" fill="#1B1718"/>
<path d="M2.4375 14.1754C1.125 14.1754 0 13.0504 0 11.7379V10.4629C0 10.2379 0.15 10.0879 0.375 10.0879H4.5C4.725 10.0879 4.875 10.2379 4.875 10.4629V11.7379C4.875 13.0504 3.75 14.1754 2.4375 14.1754ZM0.75 10.8379V11.7379C0.75 12.6379 1.5375 13.4254 2.4375 13.4254C3.3375 13.4254 4.125 12.6379 4.125 11.7379V10.8379H0.75Z" fill="#1B1718"/>
<path d="M10.6504 14.1754C9.33789 14.1754 8.21289 13.0504 8.21289 11.7379V10.4629C8.21289 10.2379 8.36289 10.0879 8.58789 10.0879H12.7129C12.9379 10.0879 13.0879 10.2379 13.0879 10.4629V11.7379C13.0879 13.0504 11.9629 14.1754 10.6504 14.1754ZM8.96289 10.8379V11.7379C8.96289 12.6379 9.75039 13.4254 10.6504 13.4254C11.5504 13.4254 12.3379 12.6379 12.3379 11.7379V10.8379H8.96289Z" fill="#1B1718"/>
<path d="M16.7627 23.9992H11.5127C11.2877 23.9992 11.1377 23.8492 11.1377 23.6242V17.2492C11.1377 16.5367 11.6627 16.0117 12.3752 16.0117H15.8627C16.5752 16.0117 17.1377 16.5742 17.1377 17.2492V23.6242C17.1377 23.8492 16.9877 23.9992 16.7627 23.9992ZM11.8877 23.2492H16.3877V17.2492C16.3877 17.0242 16.2002 16.7617 15.8627 16.7617H12.3752C12.0752 16.7617 11.8877 16.9492 11.8877 17.2492V23.2492Z" fill="#1B1718"/>
<path d="M15.525 20.0242H12.75C12.525 20.0242 12.375 19.8742 12.375 19.6492V17.8867C12.375 17.6617 12.525 17.5117 12.75 17.5117H15.525C15.75 17.5117 15.9 17.6617 15.9 17.8867V19.6492C15.9 19.8742 15.75 20.0242 15.525 20.0242ZM13.125 19.2742H15.15V18.2617H13.125V19.2742Z" fill="#1B1718"/>
<path d="M20.7754 24H0.525391C0.300391 24 0.150391 23.85 0.150391 23.625C0.150391 23.4 0.300391 23.25 0.525391 23.25H20.7754C21.0004 23.25 21.1504 23.4 21.1504 23.625C21.1504 23.85 21.0004 24 20.7754 24Z" fill="#1B1718"/>
<path d="M18.8627 14.8125C18.3752 14.8125 17.9252 14.55 17.7002 14.1375C15.9002 11.025 13.7627 6.9375 13.7627 5.1C13.7627 2.2875 16.0502 0 18.8627 0C21.6377 0 24.0002 2.325 24.0002 5.1C24.0002 6.9375 21.8627 11.025 20.0627 14.1375C19.8002 14.55 19.3502 14.8125 18.8627 14.8125ZM18.8627 0.75C16.4627 0.75 14.5127 2.7 14.5127 5.1C14.5127 6.4125 15.8627 9.4875 18.3752 13.7625C18.4877 13.95 18.6752 14.0625 18.9002 14.0625C19.1252 14.0625 19.3127 13.95 19.4252 13.7625C21.9002 9.4875 23.2502 6.4125 23.2502 5.1C23.2502 2.7375 21.2252 0.75 18.8627 0.75Z" fill="#1B1718"/>
<path d="M18.9006 8.40078C17.0631 8.40078 15.6006 6.93828 15.6006 5.10078C15.6006 3.26328 17.0631 1.80078 18.9006 1.80078C20.7381 1.80078 22.2006 3.26328 22.2006 5.10078C22.2006 6.93828 20.7381 8.40078 18.9006 8.40078ZM18.9006 2.55078C17.4756 2.55078 16.3506 3.71328 16.3506 5.10078C16.3506 6.48828 17.5131 7.65078 18.9006 7.65078C20.2881 7.65078 21.4506 6.48828 21.4506 5.10078C21.4506 3.71328 20.2881 2.55078 18.9006 2.55078Z" fill="#1B1718"/>
<path d="M8.55 21.2242H4.5C3.8625 21.2242 3.375 20.7367 3.375 20.0992V17.3242C3.375 16.6867 3.8625 16.1992 4.5 16.1992H8.55C9.1875 16.1992 9.675 16.6867 9.675 17.3242V20.0992C9.675 20.7367 9.1875 21.2242 8.55 21.2242ZM4.5 16.9492C4.275 16.9492 4.125 17.0992 4.125 17.3242V20.0992C4.125 20.3242 4.275 20.4742 4.5 20.4742H8.55C8.775 20.4742 8.925 20.3242 8.925 20.0992V17.3242C8.925 17.0992 8.775 16.9492 8.55 16.9492H4.5Z" fill="#1B1718"/>
<path d="M12.7129 22.05C12.4879 22.05 12.3379 21.9 12.3379 21.675V21.1875C12.3379 20.9625 12.4879 20.8125 12.7129 20.8125C12.9379 20.8125 13.0879 20.9625 13.0879 21.1875V21.675C13.0879 21.9 12.9379 22.05 12.7129 22.05Z" fill="#1B1718"/>
</svg>
