<svg width="24" height="24" viewBox="0 0 24 24" fill="none" xmlns="http://www.w3.org/2000/svg">
<path d="M23.0687 15.2726C22.9031 14.7838 22.5077 14.4288 21.9553 14.2731C21.3608 14.1053 20.5877 14.1588 19.6574 14.4318L15.4231 15.674C15.2062 15.231 14.8065 14.8803 14.2938 14.7429L11.285 13.9367C9.08925 12.3981 7.91255 12.84 6.1823 13.6862C5.35275 14.0918 4.53098 14.4829 3.75455 14.8499L3.59147 14.4583C3.37505 13.9388 2.77612 13.6916 2.25633 13.9075L0.631077 14.5823C0.377811 14.6875 0.181124 14.8841 0.0772957 15.1359C-0.0265793 15.3876 -0.0257356 15.6657 0.0796863 15.9189L2.83181 22.5274C2.99508 22.9194 3.37612 23.1562 3.77667 23.1562C3.90698 23.1562 4.03936 23.1312 4.16695 23.0782L5.79216 22.4033C6.04542 22.2982 6.24211 22.1016 6.34598 21.8498C6.44986 21.598 6.44901 21.3199 6.34359 21.0668L6.15923 20.6242L7.21851 20.1091C7.60542 19.921 7.99439 19.8879 8.40755 20.0078L11.7881 20.9894C12.037 21.0616 12.2942 21.0925 12.5552 21.0925C13.4537 21.0925 14.3959 20.7259 15.1878 20.4177C15.2576 20.3906 15.3262 20.364 15.3931 20.3381L21.7377 17.8932C22.7648 17.4974 23.3992 16.2483 23.0687 15.2726ZM5.73937 21.5995C5.70239 21.6892 5.6318 21.7593 5.54053 21.7972L3.91528 22.4722C3.72937 22.5494 3.51501 22.461 3.43762 22.275L0.685499 15.6666C0.647483 15.5753 0.646921 15.4757 0.683905 15.3861C0.720889 15.2965 0.791483 15.2263 0.882749 15.1884L2.508 14.5135C2.55366 14.4946 2.601 14.4856 2.64764 14.4856C2.79089 14.4856 2.9272 14.5703 2.98561 14.7106L5.73773 21.3191C5.7758 21.4103 5.77631 21.5099 5.73937 21.5995ZM21.5017 17.2808L15.1572 19.7258C15.0895 19.7519 15.0203 19.7788 14.9498 19.8062C14.0202 20.168 12.8632 20.6182 11.9711 20.3592L8.59055 19.3777C8.02214 19.2126 7.464 19.2601 6.93159 19.519L5.90658 20.0174L4.00711 15.4563C4.79386 15.0845 5.62767 14.6878 6.47058 14.2757C8.08781 13.4849 9.02175 13.136 10.9539 14.5062C10.9857 14.5287 11.0212 14.5454 11.0588 14.5555L14.124 15.3768C14.7154 15.5353 15.0676 16.1453 14.9092 16.7368C14.7508 17.3282 14.1406 17.6804 13.5492 17.5219L9.47569 16.4304C9.30066 16.3837 9.12075 16.4874 9.07383 16.6625C9.02691 16.8375 9.13078 17.0174 9.30586 17.0643L13.3794 18.1558C14.3203 18.408 15.291 17.8476 15.5431 16.9066C15.5969 16.7056 15.6137 16.5032 15.5976 16.3067L19.8421 15.0615C21.2445 14.6501 22.2184 14.8077 22.4472 15.4831C22.6639 16.123 22.1955 17.0135 21.5017 17.2808ZM7.20356 2.46342C7.41347 2.46338 7.62328 2.40989 7.81106 2.30353L9.18914 3.68161C8.42353 4.55227 7.95844 5.6933 7.95844 6.94111C7.95844 9.66609 10.1753 11.883 12.9003 11.883C14.1481 11.883 15.2892 11.418 16.1598 10.6523L17.5678 12.0603C17.3016 12.5302 17.3682 13.139 17.7682 13.539C18.0084 13.7792 18.3239 13.8993 18.6394 13.8993C18.9549 13.8993 19.2704 13.7792 19.5106 13.539C19.991 13.0587 19.991 12.277 19.5106 11.7967C19.1106 11.3967 18.5018 11.3301 18.0319 11.5963L16.6232 10.1875C17.382 9.31852 17.8423 8.18259 17.8423 6.94111C17.8423 5.70403 17.3853 4.57177 16.6314 3.70397L18.0319 2.30348C18.2197 2.40984 18.4295 2.46333 18.6394 2.46333C18.9549 2.46333 19.2704 2.34323 19.5106 2.10309C19.991 1.62272 19.991 0.841125 19.5106 0.360797C19.2779 0.128156 18.9685 0 18.6394 0C18.3103 0 18.0009 0.128156 17.7682 0.360844C17.5356 0.593578 17.4074 0.902906 17.4074 1.23202C17.4074 1.44863 17.4632 1.65652 17.5676 1.8398L16.1692 3.23817C15.2973 2.46769 14.1526 1.99927 12.9004 1.99927C11.6588 1.99927 10.5229 2.45958 9.65395 3.21834L8.27541 1.8398C8.3797 1.65652 8.43558 1.44863 8.43558 1.23202C8.43558 0.902906 8.30742 0.593578 8.07473 0.360891C7.84205 0.128156 7.53267 0 7.20356 0C6.87445 0 6.56508 0.128156 6.33239 0.360891C6.0997 0.593578 5.97155 0.902953 5.97155 1.23202C5.97155 1.56113 6.0997 1.87045 6.33239 2.10319C6.57262 2.34338 6.88805 2.46342 7.20356 2.46342ZM16.4545 4.54884C16.0637 4.81734 15.6421 5.02102 15.1922 5.15981C15.3928 4.66177 15.6532 4.2067 15.8762 3.8603C16.092 4.06875 16.2861 4.29942 16.4545 4.54884ZM17.186 6.94116C17.186 7.03167 17.1829 7.12144 17.1773 7.21059C16.4856 7.64747 15.6984 7.89145 14.8333 7.93716C14.5371 7.76002 14.2436 7.55597 13.9569 7.32769C14.014 7.32923 14.072 7.33013 14.1309 7.33013C15.0255 7.33013 16.1165 7.14173 17.1601 6.47077C17.1771 6.62527 17.186 6.78216 17.186 6.94116ZM17.0437 8.03733C16.9832 8.26575 16.9045 8.48686 16.8088 8.69873C16.5077 8.64989 16.1992 8.56575 15.8882 8.44955C16.292 8.35547 16.6778 8.21812 17.0437 8.03733ZM13.1392 6.58978C12.933 6.38002 12.7399 6.1643 12.5614 5.94417C12.8254 5.98894 13.1362 6.02527 13.4799 6.0352C13.5415 6.03698 13.6027 6.03787 13.6639 6.03787C14.8132 6.03787 15.8779 5.7232 16.7795 5.12077C16.8773 5.32837 16.9592 5.54494 17.023 5.76909C15.6112 6.79134 14.0458 6.74325 13.1392 6.58978ZM14.4329 5.32941C14.1391 5.37075 13.8352 5.38772 13.5215 5.37984C13.4796 5.37881 13.4385 5.37717 13.3976 5.37525C13.6407 4.38164 14.2694 3.42356 14.5765 2.997C14.8567 3.11653 15.1215 3.26503 15.3675 3.4388C15.06 3.90858 14.6707 4.58977 14.4329 5.32941ZM12.7395 5.30794C12.3835 5.25155 12.1159 5.17664 11.9818 5.13469C11.9612 5.10178 11.9411 5.06883 11.9212 5.03583C12.0801 4.11769 12.6166 3.20128 12.9856 2.65659C13.3088 2.66292 13.6233 2.7053 13.9254 2.77973C13.5565 3.3142 12.9693 4.28184 12.7395 5.30794ZM11.4749 4.16302C11.315 3.78103 11.2026 3.4013 11.1428 3.03267C11.4652 2.88712 11.8087 2.78053 12.1673 2.71847C11.9227 3.12366 11.6612 3.62503 11.4749 4.16302ZM16.4747 9.30281C16.347 9.49552 16.2041 9.67734 16.0477 9.84656C13.3683 9.65423 10.1873 6.47325 9.99497 3.79373C10.1642 3.63741 10.346 3.49453 10.5387 3.3668C11.0958 5.98655 13.855 8.74566 16.4747 9.30281ZM15.4039 10.4174C15.1361 10.6108 14.8453 10.774 14.5363 10.902C12.098 10.4683 9.37322 7.74356 8.93953 5.30517C9.06764 4.99617 9.23081 4.70536 9.42417 4.43761C9.96698 7.08319 12.7583 9.87445 15.4039 10.4174ZM8.61473 6.94116C8.61473 6.8137 8.62064 6.6877 8.63161 6.56306C9.43467 8.5267 11.3149 10.4069 13.2785 11.21C13.1539 11.2209 13.0278 11.2268 12.9004 11.2268C10.5373 11.2268 8.61473 9.30427 8.61473 6.94116ZM19.0466 12.2608C19.2711 12.4852 19.2711 12.8505 19.0466 13.075C18.8221 13.2996 18.4568 13.2995 18.2323 13.075C18.0078 12.8505 18.0078 12.4852 18.2323 12.2608C18.3446 12.1485 18.492 12.0924 18.6395 12.0924C18.7868 12.0924 18.9343 12.1485 19.0466 12.2608ZM18.2323 0.824859C18.3411 0.716109 18.4857 0.656203 18.6395 0.656203C18.7933 0.656203 18.9378 0.716063 19.0466 0.824859C19.2711 1.0493 19.2711 1.41464 19.0466 1.63908C18.8221 1.86366 18.4569 1.86366 18.2324 1.63908C18.0078 1.41464 18.0078 1.04934 18.2323 0.824859ZM6.79645 0.824906C6.9052 0.716109 7.04981 0.656203 7.20356 0.656203C7.35736 0.656203 7.50192 0.716062 7.61072 0.824906C7.71947 0.933609 7.77937 1.07822 7.77937 1.23202C7.77937 1.38581 7.71951 1.53037 7.61072 1.63912C7.38619 1.86361 7.02094 1.86361 6.79645 1.63912C6.6877 1.53042 6.6278 1.38581 6.6278 1.23202C6.6278 1.07822 6.68765 0.933609 6.79645 0.824906Z" fill="#1B1718"/>
</svg>
