<svg width="24" height="22" viewBox="327 855 24 22" fill="none" xmlns="http://www.w3.org/2000/svg">
  <path d="M346.274 864.337C346.092 864.27 345.89 864.364 345.824 864.547L345.184 866.303L344.545 864.547C344.495 864.408 344.363 864.316 344.215 864.316C344.067 864.316 343.935 864.408 343.884 864.547L343.245 866.303L342.606 864.547C342.54 864.364 342.338 864.27 342.155 864.337C341.973 864.403 341.879 864.605 341.945 864.787L342.915 867.451C342.965 867.59 343.097 867.683 343.245 867.683C343.393 867.683 343.525 867.59 343.576 867.451L344.215 865.695L344.854 867.451C344.905 867.59 345.037 867.683 345.185 867.683C345.332 867.683 345.464 867.59 345.515 867.451L346.484 864.787C346.551 864.605 346.457 864.403 346.274 864.337ZM349.423 862.772C349.054 861.581 348.476 860.458 347.728 859.46C347.712 859.431 347.692 859.404 347.669 859.381C347.086 858.617 346.402 857.928 345.637 857.34C343.719 855.868 341.424 855.09 339 855.09H339C337.232 855.09 335.475 855.523 333.921 856.342C333.749 856.432 333.683 856.645 333.774 856.817C333.864 856.989 334.077 857.055 334.249 856.964C335.426 856.344 336.728 855.96 338.059 855.837C337.089 856.808 336.197 857.993 335.456 859.278H331.322C331.782 858.752 332.297 858.271 332.858 857.848C333.013 857.731 333.043 857.51 332.926 857.355C332.809 857.2 332.589 857.169 332.434 857.286C331.638 857.887 330.93 858.596 330.329 859.384C330.309 859.405 330.292 859.427 330.277 859.452C329.526 860.452 328.947 861.577 328.577 862.772C327.698 862.827 327 863.559 327 864.452V867.546C327 868.439 327.698 869.171 328.577 869.226C328.946 870.417 329.524 871.54 330.272 872.538C330.288 872.567 330.308 872.594 330.331 872.617C330.915 873.381 331.598 874.07 332.364 874.658C334.281 876.13 336.576 876.908 339 876.908C340.942 876.908 342.848 876.392 344.514 875.414C344.681 875.316 344.737 875.101 344.639 874.933C344.541 874.766 344.325 874.71 344.158 874.808C342.87 875.563 341.428 876.024 339.941 876.161C340.911 875.19 341.803 874.005 342.544 872.72H346.682C346.322 873.131 345.927 873.515 345.498 873.869C345.349 873.993 345.328 874.214 345.451 874.364C345.521 874.448 345.621 874.492 345.723 874.492C345.802 874.492 345.881 874.465 345.946 874.411C347.598 873.046 348.796 871.257 349.424 869.226C350.302 869.171 351 868.439 351 867.546V864.452C351 863.559 350.302 862.827 349.423 862.772ZM347.24 859.982C347.86 860.831 348.35 861.772 348.683 862.769H344.087C343.794 861.827 343.401 860.886 342.93 859.982H347.24ZM345.208 857.898C345.744 858.309 346.236 858.772 346.678 859.278H342.544C341.802 857.992 340.91 856.807 339.94 855.836C341.859 856.009 343.664 856.713 345.208 857.898ZM339 855.91C340.009 856.824 340.946 857.991 341.729 859.278H336.271C337.054 857.991 337.991 856.824 339 855.91ZM335.865 859.982H342.135C342.626 860.88 343.039 861.822 343.349 862.769H334.651C334.961 861.822 335.374 860.88 335.865 859.982ZM330.76 859.982H335.069C334.599 860.886 334.206 861.827 333.913 862.769H329.317C329.65 861.772 330.14 860.83 330.76 859.982ZM330.76 872.017C330.14 871.168 329.65 870.226 329.317 869.23H333.913C334.206 870.171 334.599 871.112 335.07 872.017H330.76ZM332.792 874.1C332.256 873.689 331.764 873.226 331.322 872.72H335.456C336.198 874.005 337.09 875.191 338.06 876.162C336.141 875.989 334.336 875.285 332.792 874.1ZM339 876.088C337.991 875.175 337.054 874.007 336.271 872.72H341.729C340.946 874.007 340.009 875.175 339 876.088ZM342.135 872.017H335.865C335.374 871.118 334.961 870.176 334.651 869.23H343.349C343.039 870.176 342.626 871.118 342.135 872.017ZM347.247 872.017H342.93C343.401 871.112 343.794 870.171 344.087 869.23H348.684C348.35 870.233 347.865 871.171 347.247 872.017ZM350.297 867.546C350.297 868.087 349.857 868.526 349.317 868.526H349.151C349.151 868.526 349.151 868.526 349.151 868.526H343.821C343.82 868.526 343.82 868.526 343.819 868.526H334.181C334.18 868.526 334.179 868.526 334.179 868.526H328.849C328.849 868.526 328.849 868.526 328.848 868.526H328.683C328.143 868.526 327.703 868.087 327.703 867.546V864.452C327.703 863.911 328.143 863.472 328.683 863.472H328.839C328.839 863.472 328.84 863.472 328.84 863.472C328.84 863.472 328.841 863.472 328.841 863.472H334.179H334.18H343.825C343.825 863.472 343.826 863.472 343.826 863.472C343.826 863.472 343.827 863.472 343.827 863.472H349.159C349.159 863.472 349.16 863.472 349.16 863.472C349.16 863.472 349.161 863.472 349.161 863.472H349.317C349.857 863.472 350.297 863.911 350.297 864.452V867.546ZM341.059 864.337C340.877 864.27 340.675 864.364 340.609 864.547L339.97 866.303L339.33 864.547C339.28 864.408 339.148 864.316 339 864.316C338.852 864.316 338.72 864.408 338.67 864.547L338.03 866.303L337.391 864.547C337.325 864.364 337.123 864.27 336.941 864.337C336.758 864.403 336.664 864.605 336.73 864.787L337.7 867.451C337.751 867.59 337.883 867.683 338.03 867.683C338.178 867.683 338.31 867.59 338.361 867.451L339 865.695L339.639 867.451C339.69 867.59 339.822 867.683 339.97 867.683C340.117 867.683 340.249 867.59 340.3 867.451L341.27 864.787C341.336 864.605 341.242 864.403 341.059 864.337ZM335.845 864.337C335.662 864.27 335.46 864.364 335.394 864.547L334.755 866.303L334.116 864.547C334.065 864.408 333.933 864.316 333.785 864.316C333.637 864.316 333.505 864.408 333.455 864.547L332.816 866.303L332.176 864.547C332.11 864.364 331.908 864.27 331.726 864.337C331.543 864.403 331.449 864.605 331.516 864.787L332.485 867.451C332.536 867.59 332.668 867.683 332.816 867.683C332.963 867.683 333.095 867.59 333.146 867.451L333.785 865.695L334.424 867.451C334.475 867.59 334.607 867.683 334.755 867.683C334.903 867.683 335.035 867.59 335.085 867.451L336.055 864.787C336.121 864.605 336.027 864.403 335.845 864.337Z" fill="#1B1718"/>
  </svg>