<svg width="24" height="24" viewBox="0 0 24 24" fill="none" xmlns="http://www.w3.org/2000/svg">
<g clip-path="url(#clip0_289_7548)">
<path d="M23.2292 5.58403C22.744 4.74362 22.1362 5.0073 21.9614 5.10823C21.1843 5.55688 20.8539 6.2991 20.743 6.61689L16.2474 9.21239C15.6776 8.6127 15.0235 8.09334 14.3035 7.67337L17.1833 2.68534C17.5011 2.57442 18.2433 2.24398 18.692 1.4669C18.8414 1.20819 18.8519 0.929358 18.7219 0.681719C18.6264 0.500045 18.4563 0.337663 18.2162 0.199084C17.3758 -0.286108 16.9812 0.246176 16.8803 0.420876C16.4316 1.19801 16.5166 2.00601 16.5794 2.33668L13.6874 7.34587C12.696 6.86946 11.6 6.57389 10.4407 6.50374C10.2478 6.4923 10.0833 6.63851 10.0717 6.83069C10.06 7.02292 10.2064 7.18813 10.3986 7.19975C11.1097 7.2428 11.7948 7.37831 12.4429 7.59346C11.2652 7.8206 10.1093 8.15912 8.99181 8.60568C8.78354 8.18929 8.59718 7.75998 8.43442 7.31895C8.58197 7.2918 8.73078 7.26814 8.88122 7.24908C9.07223 7.2249 9.20751 7.05044 9.18334 6.85942C9.15916 6.6684 8.98446 6.53303 8.79368 6.55729C4.43481 7.1091 1.14781 10.8435 1.14781 15.2437C1.14781 17.4516 1.97208 19.5605 3.46884 21.1817C3.5376 21.2562 3.63118 21.2939 3.72513 21.2939C3.80969 21.2939 3.89453 21.2633 3.96152 21.2014C4.06732 21.1037 4.09889 20.9557 4.05342 20.8281C6.23123 20.6698 8.36553 20.0454 10.2758 19.0049C10.6539 19.2429 11.0407 19.4677 11.4353 19.6789C10.6713 20.1383 9.86815 20.5374 9.03923 20.8665C8.86025 20.9376 8.77281 21.1402 8.84384 21.3192C8.89814 21.456 9.02928 21.5393 9.168 21.5393C9.21081 21.5393 9.25433 21.5313 9.29658 21.5146C10.2951 21.1182 11.258 20.6247 12.163 20.0486C12.5776 20.2481 13 20.4327 13.4297 20.602C12.4983 21.252 11.505 21.8152 10.468 22.2808C8.84007 21.9695 7.28367 21.6979 5.69323 21.6979C3.03846 21.6979 1.43152 22.6252 0.709892 23.1779C0.557041 23.295 0.528033 23.5139 0.645135 23.6668C0.713797 23.7564 0.817418 23.8034 0.922155 23.8034C0.996117 23.8034 1.07068 23.78 1.13395 23.7315C2.07612 23.0098 3.4178 22.5498 4.89736 22.4279C6.37023 23.4566 8.09832 23.9999 9.90399 23.9999C10.9773 23.9999 12.0059 23.8054 12.9569 23.4504C14.1851 23.6529 15.4479 23.8034 16.7613 23.8034C17.9049 23.8034 18.8939 23.6007 19.6213 23.2173C20.3438 22.8364 20.7844 22.2864 20.8619 21.6685C20.9791 20.735 20.2482 19.5228 17.8966 18.8185C18.387 17.7264 18.6602 16.5164 18.6602 15.2437C18.6602 13.1703 17.9332 11.2547 16.7159 9.74709L21.0917 7.22077C21.2168 7.24457 21.4098 7.27148 21.6443 7.27148C22.0293 7.27148 22.5244 7.19878 23.0074 6.9199C23.2661 6.77053 23.4148 6.53438 23.4259 6.25489C23.434 6.04984 23.3678 5.82409 23.2292 5.58403ZM17.4842 0.769534C17.5011 0.7402 17.5243 0.699895 17.5936 0.699895C17.6489 0.699895 17.7335 0.725556 17.8675 0.802912C18.0364 0.900397 18.0895 0.977427 18.1046 1.00606C18.1153 1.02652 18.1276 1.04976 18.0881 1.11814C17.852 1.527 17.4951 1.77213 17.2279 1.90844C17.2119 1.61068 17.2462 1.18183 17.4842 0.769534ZM13.2134 8.16674L13.17 8.24196C13.0737 8.40871 13.1308 8.62195 13.2976 8.71823C13.3525 8.74993 13.4125 8.76499 13.4716 8.76499C13.5921 8.76499 13.7093 8.70242 13.7739 8.59062L13.9548 8.27711C14.3815 8.52609 14.783 8.81311 15.1548 9.13336C13.3766 9.22276 11.6335 9.5895 9.95833 10.2259C9.73157 9.90301 9.51972 9.56891 9.32317 9.2249C10.5788 8.72929 11.8839 8.37431 13.2134 8.16674ZM15.2377 15.3165C15.2813 15.3346 15.3266 15.3432 15.3711 15.3432C15.5078 15.3432 15.6376 15.2622 15.6933 15.128C15.7671 14.9502 15.6827 14.7462 15.5049 14.6724C14.8726 14.4101 14.2676 14.0994 13.6936 13.7453C15.0502 13.4903 16.4292 13.4601 17.8052 13.6558C17.9084 14.1698 17.9629 14.7009 17.9629 15.2437C17.9629 15.2991 17.9619 15.3543 17.9608 15.4094C17.5682 15.3338 17.178 15.2395 16.7963 15.1278C16.6112 15.0736 16.4178 15.1797 16.3637 15.3645C16.3097 15.5493 16.4156 15.7429 16.6004 15.797C17.0313 15.9232 17.4726 16.0279 17.9161 16.1103C17.8743 16.5005 17.8048 16.8826 17.709 17.2542C15.2031 16.7905 12.8577 15.6719 10.9087 14.0071C8.97768 12.3577 7.5116 10.2398 6.65427 7.86722C7.00632 7.71182 7.3719 7.58058 7.74924 7.47622C9.03021 11.0203 11.7432 13.8668 15.2377 15.3165ZM17.6235 12.9286C16.0354 12.7363 14.4456 12.8289 12.889 13.2051C12.5031 12.9245 12.1336 12.6235 11.783 12.3028C13.5262 11.7692 15.3272 11.5713 17.1479 11.7138C17.3379 12.1025 17.4973 12.5086 17.6235 12.9286ZM4.46419 9.30048C4.90029 10.3852 5.44889 11.4266 6.0987 12.4022C6.16587 12.503 6.27646 12.5576 6.3892 12.5576C6.45563 12.5576 6.52276 12.5386 6.58217 12.4991C6.74241 12.3923 6.78578 12.1758 6.67905 12.0156C6.01348 11.0164 5.45856 9.94518 5.02757 8.82845C5.34243 8.58825 5.67603 8.37092 6.02562 8.17837C6.92757 10.6344 8.45297 12.8266 10.4558 14.5374C12.4777 16.2644 14.9069 17.4303 17.5037 17.9251C17.3703 18.3018 17.2098 18.6658 17.0243 19.0147C13.2479 18.2319 9.85639 16.1326 7.45209 13.0816C7.3329 12.9303 7.11371 12.9043 6.96244 13.0235C6.81121 13.1426 6.78523 13.3619 6.90437 13.5132C9.36078 16.6304 12.8064 18.7945 16.6498 19.6475C16.4158 20.0046 16.1547 20.3425 15.8686 20.6574C10.4168 19.2755 5.85352 15.4003 3.59529 10.2341C3.85994 9.90078 4.1504 9.58843 4.46419 9.30048ZM3.12576 10.8896C3.27992 11.2222 3.44323 11.5494 3.61556 11.8708C3.07212 12.339 2.55443 12.8385 2.06729 13.3649C2.2808 12.476 2.64229 11.641 3.12576 10.8896ZM1.84503 15.2437C1.84503 15.046 1.85247 14.8499 1.86665 14.6553C2.50292 13.88 3.20623 13.1534 3.96338 12.4909C4.16221 12.8304 4.37089 13.1632 4.58957 13.4886C3.58966 14.3826 2.70217 15.3869 1.94075 16.4838C1.87771 16.0764 1.84503 15.6621 1.84503 15.2437ZM2.14692 17.4333C2.93865 16.1878 3.8942 15.0564 4.99271 14.0643C5.22157 14.379 5.45972 14.6863 5.70676 14.9858C4.63894 15.9616 3.72001 17.0784 2.97022 18.311C2.79561 18.3113 2.62086 18.3084 2.44611 18.3015C2.32999 18.0183 2.23004 17.7285 2.14692 17.4333ZM3.81229 18.2816C4.47535 17.2661 5.2628 16.3389 6.16062 15.516C6.41821 15.8059 6.68444 16.0876 6.95876 16.3611C6.38473 16.8863 5.85598 17.462 5.38297 18.0767C4.86463 18.1771 4.33993 18.2457 3.81229 18.2816ZM7.46223 16.8455C7.62493 16.9962 7.79048 17.1439 7.9583 17.2889C7.48738 17.4895 7.00483 17.6613 6.51378 17.8036C6.81256 17.4681 7.12942 17.1478 7.46223 16.8455ZM3.51779 20.1595C3.23664 19.7949 2.98867 19.4092 2.77571 19.0063C2.8315 19.007 2.88733 19.0086 2.94311 19.0086C4.87807 19.0086 6.80052 18.59 8.55687 17.7855C8.89916 18.0578 9.25065 18.3186 9.61102 18.5671C7.73032 19.5289 5.63884 20.0765 3.51779 20.1595ZM15.2969 21.2269C14.5936 21.8615 13.7783 22.374 12.8846 22.7311C12.4594 22.659 12.0376 22.5815 11.6193 22.5019C12.5282 22.0369 13.3991 21.4981 14.2201 20.8933C14.5747 21.015 14.9338 21.1263 15.2969 21.2269ZM9.90394 23.3027C8.60043 23.3027 7.34103 22.9949 6.20446 22.4056C7.7213 22.4617 9.24122 22.7541 10.8409 23.0626C11.0204 23.0972 11.2008 23.1319 11.3816 23.1664C10.9024 23.2556 10.4086 23.3027 9.90394 23.3027ZM19.6174 20.4574C20.0255 20.8216 20.2167 21.2104 20.17 21.5817C20.078 22.3159 18.972 23.1062 16.7613 23.1062C15.8619 23.1062 14.9811 23.0319 14.1162 22.9182C15.573 22.1154 16.7779 20.91 17.5801 19.4529C18.4584 19.7041 19.1596 20.0488 19.6174 20.4574ZM16.7453 10.9886C14.8665 10.8974 13.0109 11.1529 11.217 11.7504C10.927 11.4499 10.6511 11.1357 10.3919 10.808C11.9381 10.2416 13.5431 9.91384 15.179 9.83044C15.0258 9.93114 14.9756 10.1348 15.0684 10.2957C15.133 10.4075 15.2502 10.4701 15.3707 10.4701C15.4298 10.4701 15.4898 10.455 15.5447 10.4233L16.1043 10.1003C16.3373 10.381 16.5515 10.6778 16.7453 10.9886ZM22.6587 6.31602C22.2508 6.55148 21.8202 6.58593 21.5208 6.5704C21.6574 6.30315 21.9023 5.94756 22.3101 5.7121C22.3627 5.68175 22.4509 5.63056 22.6253 5.93273C22.7228 6.10158 22.7304 6.19492 22.729 6.22719C22.7282 6.25029 22.7271 6.27651 22.6587 6.31602Z" fill="#1B1718"/>
</g>
<defs>
<clipPath id="clip0_289_7548">
<rect width="24" height="24" fill="white"/>
</clipPath>
</defs>
</svg>
