<svg width="23" height="24" viewBox="0 0 23 24" fill="none" xmlns="http://www.w3.org/2000/svg">
<path d="M22.656 5.58403C22.1707 4.74362 21.563 5.0073 21.3882 5.10823C20.6111 5.55688 20.2807 6.2991 20.1698 6.61689L15.6742 9.21239C15.1044 8.6127 14.4502 8.09334 13.7302 7.67337L16.6101 2.68534C16.9279 2.57442 17.6701 2.24398 18.1187 1.4669C18.2681 1.20819 18.2787 0.929358 18.1486 0.681719C18.0532 0.500045 17.883 0.337663 17.6429 0.199084C16.8026 -0.286108 16.408 0.246176 16.3071 0.420876C15.8584 1.19801 15.9434 2.00601 16.0062 2.33668L13.1141 7.34587C12.1228 6.86946 11.0268 6.57389 9.86749 6.50374C9.67452 6.4923 9.51005 6.63851 9.49843 6.83069C9.48681 7.02292 9.6332 7.18813 9.82538 7.19975C10.5365 7.2428 11.2215 7.37831 11.8696 7.59346C10.692 7.8206 9.53604 8.15912 8.41857 8.60568C8.2103 8.18929 8.02393 7.75998 7.86118 7.31895C8.00873 7.2918 8.15754 7.26814 8.30797 7.24908C8.49899 7.2249 8.63427 7.05044 8.6101 6.85942C8.58592 6.6684 8.41122 6.53303 8.22044 6.55729C3.86157 7.1091 0.574564 10.8435 0.574564 15.2437C0.574564 17.4516 1.39884 19.5605 2.8956 21.1817C2.96436 21.2562 3.05794 21.2939 3.15189 21.2939C3.23645 21.2939 3.32129 21.2633 3.38828 21.2014C3.49408 21.1037 3.52565 20.9557 3.48018 20.8281C5.65799 20.6698 7.79229 20.0454 9.70256 19.0049C10.0806 19.2429 10.4674 19.4677 10.8621 19.6789C10.0981 20.1383 9.29491 20.5374 8.46598 20.8665C8.28701 20.9376 8.19956 21.1402 8.2706 21.3192C8.32489 21.456 8.45604 21.5393 8.59475 21.5393C8.63757 21.5393 8.68108 21.5313 8.72334 21.5146C9.7219 21.1182 10.6847 20.6247 11.5898 20.0486C12.0043 20.2481 12.4268 20.4327 12.8564 20.602C11.9251 21.252 10.9318 21.8152 9.89474 22.2808C8.26683 21.9695 6.71042 21.6979 5.11999 21.6979C2.46522 21.6979 0.858278 22.6252 0.13665 23.1779C-0.0162012 23.295 -0.0452095 23.5139 0.0718929 23.6668C0.140555 23.7564 0.244176 23.8034 0.348913 23.8034C0.422875 23.8034 0.497441 23.78 0.560711 23.7315C1.50288 23.0098 2.84456 22.5498 4.32412 22.4279C5.79699 23.4566 7.52507 23.9999 9.33075 23.9999C10.4041 23.9999 11.4326 23.8054 12.3837 23.4504C13.6118 23.6529 14.8746 23.8034 16.1881 23.8034C17.3317 23.8034 18.3206 23.6007 19.048 23.2173C19.7705 22.8364 20.2112 22.2864 20.2887 21.6685C20.4058 20.735 19.675 19.5228 17.3234 18.8185C17.8137 17.7264 18.0869 16.5164 18.0869 15.2437C18.0869 13.1703 17.36 11.2547 16.1426 9.74709L20.5184 7.22077C20.6436 7.24457 20.8366 7.27148 21.0711 7.27148C21.456 7.27148 21.9512 7.19878 22.4342 6.9199C22.6929 6.77053 22.8416 6.53438 22.8526 6.25489C22.8608 6.04984 22.7946 5.82409 22.656 5.58403ZM16.9109 0.769534C16.9279 0.7402 16.9511 0.699895 17.0204 0.699895C17.0756 0.699895 17.1602 0.725556 17.2942 0.802912C17.4631 0.900397 17.5162 0.977427 17.5313 1.00606C17.5421 1.02652 17.5543 1.04976 17.5149 1.11814C17.2788 1.527 16.9219 1.77213 16.6546 1.90844C16.6386 1.61068 16.6729 1.18183 16.9109 0.769534ZM12.6402 8.16674L12.5967 8.24196C12.5005 8.40871 12.5576 8.62195 12.7243 8.71823C12.7793 8.74993 12.8392 8.76499 12.8984 8.76499C13.0188 8.76499 13.136 8.70242 13.2006 8.59062L13.3816 8.27711C13.8083 8.52609 14.2097 8.81311 14.5816 9.13336C12.8034 9.22276 11.0602 9.5895 9.38509 10.2259C9.15833 9.90301 8.94648 9.56891 8.74993 9.2249C10.0056 8.72929 11.3107 8.37431 12.6402 8.16674ZM14.6644 15.3165C14.7081 15.3346 14.7533 15.3432 14.7979 15.3432C14.9346 15.3432 15.0644 15.2622 15.1201 15.128C15.1939 14.9502 15.1095 14.7462 14.9316 14.6724C14.2994 14.4101 13.6944 14.0994 13.1204 13.7453C14.477 13.4903 15.8559 13.4601 17.232 13.6558C17.3352 14.1698 17.3896 14.7009 17.3896 15.2437C17.3896 15.2991 17.3886 15.3543 17.3875 15.4094C16.9949 15.3338 16.6047 15.2395 16.2231 15.1278C16.0379 15.0736 15.8446 15.1797 15.7905 15.3645C15.7364 15.5493 15.8424 15.7429 16.0272 15.797C16.4581 15.9232 16.8993 16.0279 17.3429 16.1103C17.301 16.5005 17.2315 16.8826 17.1357 17.2542C14.6298 16.7905 12.2845 15.6719 10.3355 14.0071C8.40443 12.3577 6.93835 10.2398 6.08103 7.86722C6.43308 7.71182 6.79866 7.58058 7.176 7.47622C8.45697 11.0203 11.1699 13.8668 14.6644 15.3165ZM17.0503 12.9286C15.4622 12.7363 13.8724 12.8289 12.3157 13.2051C11.9299 12.9245 11.5604 12.6235 11.2098 12.3028C12.953 11.7692 14.754 11.5713 16.5746 11.7138C16.7646 12.1025 16.9241 12.5086 17.0503 12.9286ZM3.89095 9.30048C4.32705 10.3852 4.87565 11.4266 5.52545 12.4022C5.59263 12.503 5.70322 12.5576 5.81596 12.5576C5.88239 12.5576 5.94951 12.5386 6.00893 12.4991C6.16917 12.3923 6.21254 12.1758 6.10581 12.0156C5.44024 11.0164 4.88532 9.94518 4.45433 8.82845C4.76919 8.58825 5.10279 8.37092 5.45238 8.17837C6.35433 10.6344 7.87973 12.8266 9.88256 14.5374C11.9044 16.2644 14.3337 17.4303 16.9304 17.9251C16.7971 18.3018 16.6365 18.6658 16.451 19.0147C12.6747 18.2319 9.28314 16.1326 6.87885 13.0816C6.75965 12.9303 6.54047 12.9043 6.38919 13.0235C6.23797 13.1426 6.21198 13.3619 6.33113 13.5132C8.78754 16.6304 12.2332 18.7945 16.0765 19.6475C15.8426 20.0046 15.5815 20.3425 15.2954 20.6574C9.8436 19.2755 5.28028 15.4003 3.02205 10.2341C3.2867 9.90078 3.57716 9.58843 3.89095 9.30048ZM2.55252 10.8896C2.70667 11.2222 2.86999 11.5494 3.04232 11.8708C2.49887 12.339 1.98119 12.8385 1.49404 13.3649C1.70756 12.476 2.06905 11.641 2.55252 10.8896ZM1.27179 15.2437C1.27179 15.046 1.27922 14.8499 1.2934 14.6553C1.92968 13.88 2.63299 13.1534 3.39014 12.4909C3.58896 12.8304 3.79765 13.1632 4.01632 13.4886C3.01642 14.3826 2.12893 15.3869 1.3675 16.4838C1.30447 16.0764 1.27179 15.6621 1.27179 15.2437ZM1.57368 17.4333C2.36541 16.1878 3.32096 15.0564 4.41947 14.0643C4.64832 14.379 4.88648 14.6863 5.13352 14.9858C4.06569 15.9616 3.14677 17.0784 2.39697 18.311C2.22237 18.3113 2.04762 18.3084 1.87287 18.3015C1.75675 18.0183 1.6568 17.7285 1.57368 17.4333ZM3.23905 18.2816C3.9021 17.2661 4.68956 16.3389 5.58738 15.516C5.84496 15.8059 6.1112 16.0876 6.38552 16.3611C5.81149 16.8863 5.28274 17.462 4.80973 18.0767C4.29139 18.1771 3.76669 18.2457 3.23905 18.2816ZM6.88898 16.8455C7.05169 16.9962 7.21723 17.1439 7.38505 17.2889C6.91413 17.4895 6.43159 17.6613 5.94054 17.8036C6.23932 17.4681 6.55618 17.1478 6.88898 16.8455ZM2.94455 20.1595C2.66339 19.7949 2.41543 19.4092 2.20247 19.0063C2.25825 19.007 2.31409 19.0086 2.36987 19.0086C4.30483 19.0086 6.22728 18.59 7.98363 17.7855C8.32592 18.0578 8.67741 18.3186 9.03778 18.5671C7.15708 19.5289 5.0656 20.0765 2.94455 20.1595ZM14.7236 21.2269C14.0203 21.8615 13.2051 22.374 12.3114 22.7311C11.8861 22.659 11.4644 22.5815 11.0461 22.5019C11.955 22.0369 12.8259 21.4981 13.6468 20.8933C14.0015 21.015 14.3606 21.1263 14.7236 21.2269ZM9.3307 23.3027C8.02719 23.3027 6.76779 22.9949 5.63121 22.4056C7.14806 22.4617 8.66797 22.7541 10.2676 23.0626C10.4472 23.0972 10.6275 23.1319 10.8083 23.1664C10.3291 23.2556 9.83537 23.3027 9.3307 23.3027ZM19.0442 20.4574C19.4523 20.8216 19.6434 21.2104 19.5968 21.5817C19.5048 22.3159 18.3987 23.1062 16.1881 23.1062C15.2887 23.1062 14.4079 23.0319 13.543 22.9182C14.9998 22.1154 16.2046 20.91 17.0068 19.4529C17.8851 19.7041 18.5863 20.0488 19.0442 20.4574ZM16.1721 10.9886C14.2932 10.8974 12.4376 11.1529 10.6438 11.7504C10.3537 11.4499 10.0779 11.1357 9.81864 10.808C11.3648 10.2416 12.9698 9.91384 14.6057 9.83044C14.4525 9.93114 14.4024 10.1348 14.4952 10.2957C14.5598 10.4075 14.677 10.4701 14.7975 10.4701C14.8566 10.4701 14.9166 10.455 14.9715 10.4233L15.531 10.1003C15.7641 10.381 15.9783 10.6778 16.1721 10.9886ZM22.0855 6.31602C21.6776 6.55148 21.247 6.58593 20.9475 6.5704C21.0841 6.30315 21.329 5.94756 21.7368 5.7121C21.7895 5.68175 21.8776 5.63056 22.0521 5.93273C22.1496 6.10158 22.1571 6.19492 22.1558 6.22719C22.1549 6.25029 22.1539 6.27651 22.0855 6.31602Z" fill="#1B1718"/>
</svg>
