<svg width="24" height="24" viewBox="0 0 23 23" fill="none" xmlns="http://www.w3.org/2000/svg">
<path d="M7.71011 0.629026C5.39421 1.43243 3.39699 2.95732 2.01179 4.97972C0.626595 7.00211 -0.0735549 9.41541 0.0141813 11.8651C0.101917 14.3149 0.972915 16.6719 2.49924 18.59C4.02556 20.5081 6.12676 21.8862 8.4942 22.5219C10.4135 23.0171 12.4244 23.0389 14.354 22.5853C16.102 22.1926 17.7181 21.3528 19.0441 20.1479C20.4241 18.8556 21.4257 17.2116 21.9414 15.3927C22.5017 13.4146 22.6014 11.3345 22.2329 9.31193H11.4549V13.7829H17.6968C17.5721 14.4959 17.3047 15.1765 16.9108 15.7839C16.5169 16.3912 16.0045 16.9129 15.4043 17.3176C14.6422 17.822 13.7829 18.1612 12.8818 18.3135C11.9781 18.4816 11.0512 18.4816 10.1475 18.3135C9.23148 18.1244 8.36498 17.7463 7.60327 17.2035C6.37942 16.3372 5.46048 15.1064 4.97758 13.6869C4.48664 12.2407 4.48664 10.673 4.97758 9.22682C5.32132 8.21315 5.88957 7.29021 6.63991 6.52688C7.49859 5.63731 8.5857 5.00144 9.78198 4.68903C10.9782 4.37663 12.2375 4.39976 13.4215 4.75589C14.3464 5.03969 15.1922 5.53578 15.8914 6.20455C16.5952 5.50437 17.2978 4.80237 17.9992 4.09857C18.3614 3.7201 18.7561 3.35975 19.1129 2.97223C18.0455 1.97903 16.7926 1.20614 15.426 0.697837C12.9374 -0.205783 10.2144 -0.230067 7.71011 0.629026Z" fill="white"/>
<path d="M7.70805 0.627953C10.2122 -0.231724 12.9352 -0.208079 15.424 0.694953C16.7908 1.20671 18.0431 1.98332 19.109 2.98021C18.7468 3.36773 18.3648 3.7299 17.9953 4.10655C17.2927 4.80794 16.5908 5.50692 15.8894 6.20348C15.1902 5.53471 14.3444 5.03862 13.4194 4.75482C12.2358 4.39744 10.9766 4.37297 9.78003 4.6841C8.58344 4.99522 7.49567 5.62992 6.63605 6.51857C5.8857 7.28189 5.31745 8.20484 4.97371 9.21851L1.21987 6.31213C2.56352 3.64761 4.88996 1.60946 7.70805 0.627953Z" fill="#E33629"/>
<path d="M0.224537 9.19171C0.426154 8.19172 0.761131 7.22333 1.22049 6.3125L4.97433 9.22612C4.4834 10.6723 4.4834 12.24 4.97433 13.6862C3.72365 14.652 2.47237 15.6226 1.22049 16.598C0.0708898 14.3097 -0.279718 11.7024 0.224537 9.19171Z" fill="#F8BD00"/>
<path d="M11.453 9.30859H22.231C22.5995 11.3312 22.4997 13.4113 21.9394 15.3893C21.4238 17.2083 20.4221 18.8523 19.0421 20.1446C17.8307 19.1993 16.6138 18.2613 15.4024 17.3161C16.003 16.9109 16.5156 16.3887 16.9095 15.7807C17.3035 15.1727 17.5706 14.4914 17.6949 13.7777H11.453C11.4511 12.2892 11.453 10.7989 11.453 9.30859Z" fill="#587DBD"/>
<path d="M1.21875 16.5974C2.47063 15.6316 3.72191 14.661 4.97259 13.6855C5.45646 15.1056 6.37671 16.3364 7.60191 17.2022C8.36599 17.7425 9.23436 18.1174 10.1515 18.3031C11.0552 18.4712 11.9822 18.4712 12.8859 18.3031C13.787 18.1508 14.6463 17.8116 15.4084 17.3072C16.6198 18.2524 17.8367 19.1905 19.0481 20.1357C17.7224 21.3412 16.1063 22.1817 14.3581 22.5749C12.4285 23.0285 10.4176 23.0068 8.49827 22.5115C6.98025 22.1062 5.56233 21.3917 4.33337 20.4128C3.0327 19.3799 1.97031 18.0785 1.21875 16.5974Z" fill="#319F43"/>
</svg>
