<svg width="24" height="24" viewBox="0 0 24 24" fill="none" xmlns="http://www.w3.org/2000/svg">
<g clip-path="url(#clip0_289_7552)">
<path d="M23.4603 21.4464C23.0895 21.0116 22.543 20.7661 21.9751 20.7495C21.0449 20.6753 20.4993 19.5925 21.0048 18.8008L23.4454 14.9775C24.0697 13.9997 23.6842 12.7107 22.6859 12.1665C22.8448 11.917 22.9487 11.7489 22.9832 11.6833C23.411 10.8709 23.0896 9.83651 22.2771 9.40912C21.4553 8.97679 20.4346 9.29339 20.002 10.1149C19.9737 10.1687 19.9135 10.3001 19.8272 10.4956L19.1257 10.0954C18.6487 9.82551 18.437 9.23355 18.7174 8.73759C18.9398 8.34409 18.3313 8.00007 18.1087 8.39349C17.651 9.20335 17.9657 10.2709 18.784 10.7054L19.5467 11.1405C19.1341 12.0993 18.4952 13.6124 17.8046 15.2566C17.3159 14.3777 16.8206 13.501 16.5998 12.5098C16.0375 9.98668 17.321 7.60503 18.6507 5.60798C19.0134 5.06318 19.0897 4.55599 18.8775 4.10045C18.3743 3.0205 16.3718 2.66549 14.6834 2.47682C13.6966 2.36655 13.6541 1.718 13.6541 0.893419C13.6541 -0.300205 10.345 -0.295405 10.345 0.893419C10.345 1.68459 10.3316 2.36524 9.36098 2.47034C7.60331 2.66022 5.52311 3.01626 5.03424 4.09332C4.90174 4.38527 4.83341 4.86137 5.26057 5.47118C6.079 6.63964 6.65745 7.69311 7.02892 8.69178C7.22737 9.2252 7.36631 9.74651 7.44736 10.254L6.85484 10.267C6.85032 10.2671 6.84579 10.2673 6.84123 10.2676C4.14553 10.4321 2.21033 11.2085 1.08937 12.5755C0.27965 13.5628 -0.0656204 14.8589 0.115357 16.2275V21.1765C0.115357 21.813 0.541772 22.5169 1.25599 23.0593C2.05452 23.6659 3.13218 23.9999 4.29039 23.9999C6.8224 23.9999 9.1409 21.9447 9.23836 21.8573C9.31218 21.7909 9.35441 21.6964 9.35441 21.5971V21.5883H10.8767V23.6218C10.8767 24.0738 11.5758 24.0738 11.5758 23.6218V21.5883H12.4232V23.6218C12.4232 24.0738 13.1223 24.0738 13.1223 23.6218V21.5883H15.1568C14.7134 22.6521 14.4095 23.3827 14.3601 23.5015C14.2042 23.8762 14.7501 24.1645 14.9736 23.8297C15.0573 23.7043 15.6448 22.8236 16.467 21.5883H18.2895C18.8245 21.5883 19.2598 21.1513 19.2598 20.6141C19.2598 19.6107 19.152 18.7146 18.9306 17.8805C20.231 15.9195 21.5382 13.9403 22.3068 12.755C22.956 13.1404 23.3044 13.8989 22.856 14.6014L20.4154 18.4245C19.6289 19.6567 20.4687 21.3307 21.9194 21.4464C22.7269 21.4737 23.2267 22.0776 23.2267 22.8523V23.6357C23.2267 24.0877 23.9258 24.0877 23.9258 23.6357V22.8656C23.9636 22.3464 23.7985 21.8429 23.4603 21.4464ZM1.05091 13.9917V15.1438C1.05091 15.5957 1.75003 15.5957 1.75003 15.1438V12.8798C1.96722 12.6385 2.21713 12.4193 2.49962 12.2225V12.8139C2.49962 13.2659 3.19874 13.2659 3.19874 12.8139V11.8129C3.47 11.6796 3.76297 11.5614 4.07702 11.4583V13.4684C4.07702 13.9203 4.77613 13.9203 4.77613 13.4684V11.2617C5.04865 11.1969 5.33472 11.142 5.63362 11.0963V11.8828C5.63362 12.3347 6.33274 12.3347 6.33274 11.8828V11.0093C6.73025 10.9705 7.12362 10.9604 7.52235 10.9516C7.60769 12.5502 6.95588 13.8879 6.20084 15.2448C3.73953 15.4796 2.17211 16.4812 1.58644 17.4594C1.07552 17.0393 0.814474 16.5525 0.814474 16.2059C0.814474 16.2041 0.814241 16.2024 0.814194 16.2006C0.814101 16.1945 0.813681 16.1883 0.813262 16.1822C0.812842 16.176 0.812423 16.1699 0.811677 16.1638C0.811444 16.162 0.811444 16.1602 0.811211 16.1585C0.730207 15.5669 0.731325 14.782 1.05091 13.9917ZM4.29039 18.3303C3.42474 18.3303 2.71607 18.1311 2.16936 17.8436C2.37788 17.4727 2.78971 17.098 3.34033 16.7857C3.83097 16.5075 4.63384 16.1651 5.79829 15.9963C5.47124 16.6435 5.17346 17.361 4.97631 18.2612C4.7497 18.3054 4.52035 18.3303 4.29039 18.3303ZM0.814474 21.1765V17.6958C1.0394 17.9318 1.29929 18.137 1.57651 18.3084V19.2797C1.57651 19.7317 2.27563 19.7317 2.27563 19.2797V18.6583C2.55276 18.7686 2.84634 18.8547 3.15148 18.9164V21.0208C3.15148 21.4727 3.85059 21.4727 3.85059 21.0208V19.0131C4.14194 19.0347 4.43557 19.0362 4.72645 19.0051V19.7729C4.72645 20.2249 5.42556 20.2249 5.42556 19.7729V18.8756C5.73807 18.7935 6.04167 18.6827 6.3325 18.5535V22.8477C5.70185 23.11 4.99999 23.3008 4.29039 23.3008C2.00828 23.3008 0.814474 21.9178 0.814474 21.1765ZM8.65529 21.4355C8.4141 21.6345 7.81575 22.1004 7.03162 22.5168V18.1971C7.69774 17.8144 8.26123 17.3699 8.65529 17.0235V21.4355ZM9.35441 20.8892V16.2059C9.35441 15.8943 8.96001 15.7402 8.74832 15.9685C8.73126 15.9869 7.39884 17.4073 5.75135 18.0362C6.03827 16.9703 6.48496 16.1692 6.91962 15.3915C7.37228 14.5817 7.84036 13.7443 8.0816 12.6617C8.37248 11.3564 8.23876 9.93872 7.68417 8.44797C7.29164 7.39287 6.68621 6.28794 5.83319 5.07008C5.54521 4.65895 5.63977 4.45066 5.67086 4.38219C5.84727 3.99358 6.64366 3.46696 9.43607 3.16536C10.7829 3.01985 11.0441 2.06057 11.0441 0.893372C11.0441 0.733741 12.955 0.74516 12.955 0.893372C12.955 2.09501 13.2287 3.01738 14.6058 3.17156C15.0635 3.22269 15.9154 3.31791 16.6892 3.52377C17.7726 3.81204 18.1326 4.15703 18.2438 4.39571C18.2819 4.47746 18.3978 4.72625 18.0687 5.22048C16.6573 7.34025 15.298 9.88209 15.9174 12.6617C16.1952 13.9085 16.8703 14.9681 17.4579 16.0828C16.7514 17.7674 16.0224 19.5129 15.4484 20.8892H9.35441V20.8892ZM18.5607 20.6141C18.5607 20.7658 18.4391 20.8892 18.2896 20.8892H16.9323C17.3843 20.2096 17.8835 19.4586 18.3957 18.6869C18.5064 19.2839 18.5607 19.9206 18.5607 20.6141ZM16.396 20.4329C18.2173 16.0687 20.4129 10.8348 20.6205 10.4405C20.8684 9.96986 21.4811 9.78026 21.9516 10.0278C22.4177 10.2729 22.6123 10.8873 22.3647 11.3575C22.3336 11.4165 22.2342 11.5768 22.08 11.8182L21.5534 11.5156L21.6881 11.2692C21.9048 10.8726 21.2914 10.5372 21.0746 10.9338L20.4812 12.0194C20.2698 12.4062 20.8804 12.7468 21.0947 12.3548L21.218 12.1292L21.7005 12.4065C20.5784 14.1339 18.2671 17.6198 16.396 20.4329Z" fill="#1B1718"/>
</g>
<defs>
<clipPath id="clip0_289_7552">
<rect width="24" height="24" fill="white"/>
</clipPath>
</defs>
</svg>
