<svg width="17" height="21" viewBox="0 0 17 21" fill="none" xmlns="http://www.w3.org/2000/svg">
<path d="M7.40559 15.4992C7.03678 15.3762 6.70922 15.3165 6.40378 15.3165C5.67853 15.3165 5.229 15.6583 4.83281 15.9604C4.4422 16.2575 4.10531 16.5142 3.48918 16.5142C1.57003 16.5142 0.184777 19.5061 0.0331837 19.8471C-0.0197381 19.9661 -0.00881638 20.1034 0.0620586 20.2126C0.13298 20.3217 0.254152 20.3874 0.384371 20.3874H16.2537C16.3711 20.3874 16.4822 20.3337 16.5554 20.2414C16.6282 20.1491 16.6548 20.0287 16.6274 19.9143C16.6143 19.8583 16.289 18.538 15.1082 17.6289C14.7476 17.3512 14.2688 17.2034 13.8059 17.0604C13.228 16.8818 12.6825 16.713 12.4337 16.34C11.9246 15.5765 11.3464 15.2212 10.6132 15.2212C10.2276 15.2212 9.8542 15.3165 9.45839 15.4174C9.10561 15.5073 8.73295 15.5827 8.36015 15.6041V10.4454C8.77045 10.6654 9.35161 10.8726 10.1082 10.8726C11.2169 10.8726 12.4086 10.4321 13.6501 9.56276C18.6948 6.03133 15.8072 0.262193 15.7776 0.204396C15.7066 0.0670525 15.5622 -0.0117445 15.405 0.00142739C15.2512 0.0130524 15.1176 0.120349 15.0684 0.267068C15.0639 0.280943 14.5668 1.65944 10.9006 3.17529C9.20259 3.87743 8.337 5.07565 7.8997 6.25807C7.44267 5.54168 6.78998 4.99507 5.93404 4.64121C3.16879 3.49647 2.77593 2.46241 2.77556 2.46241C2.73239 2.31082 2.60109 2.2009 2.44387 2.18515C2.28215 2.16827 2.13618 2.25119 2.06418 2.39187C2.04093 2.43729 -0.217082 6.95173 3.73082 9.71285C4.84443 10.4944 5.7757 10.7424 6.50882 10.7424C6.94411 10.7424 7.29909 10.65 7.59168 10.5349V15.5373C7.52986 15.5228 7.46643 15.5194 7.40559 15.4992ZM11.194 3.88516C13.6891 2.85372 14.8448 1.85904 15.3742 1.21146C15.928 2.70813 16.8064 6.41519 13.2097 8.93318C12.0994 9.71023 11.056 10.1042 10.1082 10.1042C9.50376 10.1042 9.0614 9.94324 8.74626 9.7766C9.93426 9.27682 12.2993 8.01462 13.3083 5.58372C13.3897 5.38751 13.2967 5.16274 13.1005 5.08132C12.9061 5.0014 12.6802 5.09332 12.5984 5.28879C11.6461 7.5843 9.24065 8.74887 8.25642 9.14224C8.22436 8.73874 8.21498 8.11052 8.34928 7.40965C8.35917 7.37702 8.36845 7.34487 8.36934 7.31022C8.62875 6.07343 9.34818 4.64866 11.194 3.88516ZM4.17168 9.0836C1.56478 7.26012 2.07431 4.59166 2.48775 3.37938C2.94586 3.88929 3.85425 4.61191 5.64023 5.35108C6.5999 5.74793 7.25564 6.42968 7.59862 7.37018C7.48542 8.0111 7.46976 8.58977 7.4879 9.01629C6.63328 8.60421 5.27372 7.75676 4.67896 6.31915C4.59792 6.12293 4.37315 6.03063 4.17731 6.11093C3.98109 6.19198 3.88804 6.41674 3.96909 6.61258C4.70334 8.38849 6.36 9.3619 7.35956 9.80754C6.76532 10.0535 5.70618 10.1605 4.17168 9.0836ZM9.64856 16.1619C9.996 16.0733 10.3239 15.9896 10.6132 15.9896C10.9411 15.9896 11.3381 16.0819 11.7944 16.7663C12.1943 17.3666 12.9301 17.594 13.5792 17.7944C13.9953 17.9231 14.3885 18.0446 14.6392 18.2375C15.2005 18.6697 15.5291 19.2281 15.7055 19.619H1.0057C1.52198 18.6754 2.49825 17.2826 3.48918 17.2826C4.36415 17.2826 4.88193 16.8882 5.29804 16.5716C5.82482 16.1701 6.26418 15.9289 7.16245 16.2283C8.00217 16.5067 8.93151 16.3453 9.64856 16.1619Z" fill="#1B1718"/>
</svg>
