<svg width="24" height="23" viewBox="0 0 24 23" fill="none" xmlns="http://www.w3.org/2000/svg">
<path d="M8.91745 18.3139H8.56514C8.35118 18.3139 8.17805 18.1407 8.17805 17.9268C8.17805 17.7128 8.35118 17.5397 8.56514 17.5397H8.91745C9.13141 17.5397 9.30454 17.7128 9.30454 17.9268C9.30454 18.1407 9.13141 18.3139 8.91745 18.3139ZM18.1823 20.1987H13.5342C12.9173 20.1987 12.416 19.6974 12.416 19.0805V14.4324C12.416 13.8154 12.9173 13.3134 13.5342 13.3134H18.1823C18.7992 13.3134 19.3005 13.8154 19.3005 14.4324V19.0805C19.3005 19.6974 18.7992 20.1987 18.1823 20.1987ZM13.5342 14.0876C13.3444 14.0876 13.1902 14.2426 13.1902 14.4324V19.0805C13.1902 19.2702 13.3444 19.4245 13.5342 19.4245H18.1823C18.3721 19.4245 18.5263 19.2702 18.5263 19.0805V14.4324C18.5263 14.2426 18.3721 14.0876 18.1823 14.0876H13.5342ZM23.9129 7.54688C23.9127 7.54557 23.9042 7.50714 23.9038 7.5073C23.8618 7.29655 23.7919 7.08547 23.6938 6.88296L20.9948 1.14956C20.6636 0.451354 19.9507 0 19.1795 0H16.9227H13.643H10.3637H7.07689H4.82048C4.0535 0 3.34357 0.451354 3.01204 1.15031L0.306562 6.8803C0.208189 7.08497 0.133481 7.30152 0.0835875 7.52291C0.083085 7.52511 0.0819412 7.53227 0.0816675 7.53353C0.0277387 7.75996 0 7.99919 0 8.24496V9.05012C0 9.86439 0.361016 10.6272 0.990416 11.1432C1.19245 11.3088 1.41815 11.4339 1.65374 11.5333V20.6225C1.65374 21.68 2.5125 22.5388 3.57001 22.5388H20.4337C21.4913 22.5388 22.35 21.68 22.35 20.6225V11.5365C23.3229 11.1044 24 10.0946 24 8.91973V8.23739C24 7.98434 23.9699 7.75891 23.9129 7.54688ZM19.1795 0.774195C19.6536 0.774195 20.0913 1.05165 20.2947 1.48032L22.9952 7.21637C22.9967 7.21978 22.9983 7.22317 23.0005 7.22658H19.2616L17.4349 0.774195H19.1795ZM18.5815 8.25931V8.91971C18.5815 10.0065 17.7604 10.933 16.7519 10.9852C16.2158 11.0185 15.6995 10.823 15.3116 10.4533C14.9253 10.0852 14.7121 9.58693 14.7121 9.05013V8.00075H18.5644C18.5693 8.08736 18.5815 8.17213 18.5815 8.25931ZM16.6298 0.774195C16.6298 0.774195 18.4396 7.18998 18.4489 7.22658H14.6775L14.0686 0.774195H16.6298ZM10.7164 0.774195H13.2905L13.8972 7.22658H10.1103L10.7164 0.774195ZM10.0689 8.00075H13.9379V9.05013C13.9379 10.1169 13.07 10.9848 12.0036 10.9848C10.9368 10.9848 10.0689 10.1169 10.0689 9.05013V8.00075ZM7.37004 0.774195H9.93848L9.3297 7.22658H5.55842C5.56885 7.18552 5.57302 7.14336 5.58474 7.1023L7.37004 0.774195ZM9.29471 8.00077V9.05015C9.29471 9.62926 9.03653 10.174 8.5863 10.5448C8.13572 10.9156 7.54411 11.0612 6.96384 10.9489C6.07249 10.7716 5.42532 9.93357 5.42532 8.95601V8.94882V8.25215C5.42532 8.16921 5.43748 8.085 5.44235 8.00075C5.48385 8.00075 9.29471 8.00077 9.29471 8.00077ZM1.00553 7.21296L3.71175 1.48146C3.9155 1.05164 4.35061 0.774191 4.82048 0.774191H6.56531L4.74506 7.22658H0.999094C1.00138 7.22205 1.00326 7.21752 1.00553 7.21296ZM1.48107 10.5444C1.03198 10.1762 0.774169 9.63153 0.774169 9.05013V8.24497C0.774169 8.16103 0.777968 8.08015 0.785888 8.00075C0.785888 8.00075 4.54815 8.00077 4.65113 8.00077V8.94882C4.65113 9.92638 4.00397 10.7644 3.11185 10.9417C2.52706 11.0585 1.93206 10.9138 1.48107 10.5444ZM5.47749 21.7659V14.4324C5.47749 14.2426 5.63209 14.0876 5.82186 14.0876H9.28715C9.47692 14.0876 9.63114 14.2426 9.63114 14.4324V21.7659H5.47749ZM21.5775 20.6226C21.5775 21.2525 21.0637 21.7663 20.4337 21.7663H10.4053V14.4324C10.4053 13.8154 9.90369 13.3134 9.28716 13.3134H5.82186C5.20494 13.3134 4.70329 13.8154 4.70329 14.4324V21.7663H3.57001C2.94001 21.7663 2.42624 21.2525 2.42624 20.6226V11.7314C2.52136 11.7413 2.61585 11.7556 2.71227 11.7556C2.89488 11.7556 3.07972 11.7378 3.26342 11.7008C4.0234 11.5499 4.65528 11.0634 5.03609 10.4045C5.41652 11.0671 6.05054 11.5567 6.81379 11.7084C6.99257 11.7435 7.17215 11.7605 7.3502 11.7605C7.97807 11.7605 8.58744 11.5462 9.07812 11.1425C9.32236 10.9415 9.52485 10.7031 9.68285 10.44C10.157 11.2285 11.0185 11.759 12.0036 11.759C12.9878 11.759 13.8484 11.2295 14.3227 10.4423C14.447 10.6493 14.5975 10.8424 14.7779 11.0139C15.2867 11.4993 15.9475 11.762 16.6521 11.762C16.6982 11.762 16.7443 11.7609 16.7904 11.7586C17.7087 11.7111 18.4981 11.1848 18.9503 10.4166C19.0772 10.6336 19.2336 10.8352 19.4215 11.0139C19.9303 11.4993 20.591 11.762 21.2957 11.762C21.3418 11.762 21.3879 11.7609 21.434 11.7586C21.4825 11.7561 21.5297 11.7489 21.5775 11.7438L21.5775 20.6226ZM23.2258 8.91973C23.2258 10.0065 22.404 10.933 21.3955 10.9852C20.8579 11.0185 20.343 10.823 19.9552 10.4534C19.5689 10.0852 19.3557 9.58692 19.3557 9.05015V8.00075H23.2137C23.222 8.07523 23.2258 8.15385 23.2258 8.23739L23.2258 8.91973Z" fill="#1B1718"/>
</svg>
