<svg width="23" height="21" viewBox="0 0 23 21" fill="none" xmlns="http://www.w3.org/2000/svg">
<path d="M20.954 11.7349C20.9192 11.7001 20.8778 11.6725 20.8323 11.6536C20.7868 11.6348 20.7381 11.6251 20.6888 11.6251C20.6396 11.6251 20.5908 11.6348 20.5453 11.6536C20.4998 11.6725 20.4585 11.7001 20.4236 11.7349L20.1013 12.0572L18.0623 10.1381C18.0633 10.1187 18.0638 10.0992 18.0638 10.0796C18.0638 9.78125 17.9453 9.4951 17.7343 9.28412C17.5233 9.07315 17.2372 8.95462 16.9388 8.95462C16.8966 8.9547 16.8544 8.95713 16.8125 8.96188L15.7998 8.00845C15.8092 7.9493 15.8139 7.88951 15.8138 7.82962C15.8138 7.53125 15.6953 7.2451 15.4843 7.03412C15.2733 6.82315 14.9872 6.70462 14.6888 6.70462C14.6062 6.70467 14.5237 6.71377 14.4431 6.73176L13.0211 5.39353L13.7874 4.67231C14.2827 5.29012 14.9875 5.62509 15.8138 5.62509C16.8873 5.62509 17.5402 5.08087 18.1164 4.60068C18.6641 4.14426 19.1373 3.75009 19.9388 3.75009C21.4834 3.75009 21.8125 4.91896 21.825 4.96603C21.8497 5.06189 21.9113 5.1441 21.9964 5.19473C22.0814 5.24536 22.1831 5.2603 22.2791 5.23629C22.3751 5.21228 22.4578 5.15128 22.509 5.06658C22.5603 4.98188 22.5759 4.88036 22.5526 4.78415C22.4541 4.44853 22.2822 4.13904 22.0492 3.87815C21.6987 3.4776 21.048 3.00009 19.9388 3.00009C18.8654 3.00009 18.2125 3.54431 17.6363 4.02449C17.0885 4.48092 16.6154 4.87509 15.8138 4.87509C15.1881 4.87509 14.6923 4.63317 14.3356 4.15626L16.0708 2.52318C16.1106 2.48575 16.1417 2.44008 16.162 2.38935L16.912 0.514355C16.9393 0.446207 16.946 0.371551 16.9312 0.299644C16.9165 0.227737 16.8809 0.16174 16.829 0.109835C16.7771 0.0579302 16.7111 0.0224001 16.6392 0.00764954C16.5673 -0.00710105 16.4927 -0.00042349 16.4245 0.0268545L14.5495 0.776854C14.5059 0.794281 14.466 0.81972 14.4318 0.851855L12.1505 2.99873C12.0452 2.88108 11.9162 2.78697 11.7721 2.72254C11.6279 2.65811 11.4717 2.62481 11.3138 2.62481C11.1559 2.62481 10.9998 2.65811 10.8556 2.72254C10.7114 2.78697 10.5824 2.88108 10.4771 2.99873L8.19588 0.851855C8.16166 0.81972 8.12172 0.794281 8.07813 0.776854L6.20313 0.0268545C6.13499 -0.00042349 6.06033 -0.00710105 5.98842 0.00764954C5.91652 0.0224001 5.85052 0.0579302 5.79862 0.109835C5.74671 0.16174 5.71118 0.227737 5.69643 0.299644C5.68168 0.371551 5.68836 0.446207 5.71564 0.514355L6.46564 2.38935C6.48592 2.44007 6.51703 2.48575 6.55681 2.52318L9.60649 5.39348L8.18464 6.73171C8.10393 6.71373 8.0215 6.70463 7.93882 6.70457C7.7761 6.70446 7.61529 6.7397 7.46754 6.80788C7.31978 6.87606 7.18861 6.97553 7.0831 7.09942C6.97759 7.2233 6.90027 7.36864 6.85649 7.52536C6.8127 7.68209 6.8035 7.84646 6.82953 8.00709L5.81538 8.96184C5.77344 8.95708 5.73127 8.95466 5.68906 8.95457C5.53657 8.95443 5.38564 8.98536 5.24551 9.04548C5.10537 9.10561 4.97895 9.19366 4.87397 9.30426C4.769 9.41487 4.68766 9.5457 4.63493 9.68879C4.58221 9.83187 4.55919 9.9842 4.56729 10.1365L2.52626 12.0572L2.20399 11.7349C2.16917 11.7001 2.12783 11.6725 2.08233 11.6536C2.03683 11.6348 1.98807 11.6251 1.93882 11.6251C1.88957 11.6251 1.84081 11.6348 1.79531 11.6536C1.74981 11.6725 1.70847 11.7001 1.67365 11.7349L0.328994 13.0796C0.118318 13.2907 0 13.5768 0 13.8751C0 14.1733 0.118318 14.4594 0.328994 14.6706L1.51835 15.8599C1.72949 16.0706 2.01557 16.1889 2.31382 16.1889C2.61208 16.1889 2.89816 16.0706 3.10929 15.8599L4.45399 14.5153C4.48882 14.4804 4.51644 14.4391 4.53529 14.3936C4.55414 14.3481 4.56384 14.2993 4.56384 14.2501C4.56384 14.2008 4.55414 14.1521 4.53529 14.1066C4.51644 14.0611 4.48882 14.0197 4.45399 13.9849L4.18184 13.7128L4.93882 13.0004V20.6251C4.93882 20.7245 4.97833 20.8199 5.04866 20.8903C5.11898 20.9606 5.21437 21.0001 5.31382 21.0001H17.3138C17.4133 21.0001 17.5087 20.9606 17.579 20.8903C17.6493 20.8199 17.6888 20.7245 17.6888 20.6251V13.0004L18.4458 13.7129L18.1736 13.985C18.1388 14.0198 18.1112 14.0611 18.0924 14.1066C18.0735 14.1521 18.0638 14.2009 18.0638 14.2501C18.0638 14.2994 18.0735 14.3481 18.0924 14.3936C18.1112 14.4391 18.1388 14.4805 18.1736 14.5153L19.5183 15.86C19.7295 16.0706 20.0156 16.1889 20.3138 16.1889C20.6121 16.1889 20.8982 16.0706 21.1093 15.86L22.2987 14.6706C22.5093 14.4595 22.6277 14.1734 22.6277 13.8751C22.6277 13.5769 22.5093 13.2908 22.2987 13.0797L20.954 11.7349ZM16.9388 9.70457C17.013 9.70457 17.0855 9.72657 17.1472 9.76778C17.2089 9.80899 17.2569 9.86756 17.2853 9.93609C17.3137 10.0046 17.3211 10.08 17.3066 10.1528C17.2921 10.2255 17.2564 10.2924 17.2039 10.3448L16.4085 11.1403C16.338 11.2099 16.2428 11.2488 16.1438 11.2485C16.0447 11.2482 15.9498 11.2087 15.8798 11.1386C15.8097 11.0686 15.7702 10.9737 15.7699 10.8746C15.7696 10.7755 15.8086 10.6804 15.8782 10.6099L16.6737 9.81445C16.7084 9.7795 16.7497 9.75179 16.7952 9.73293C16.8408 9.71407 16.8896 9.70443 16.9388 9.70457ZM15.3478 11.6706C15.5017 11.8243 15.6968 11.9302 15.9096 11.9755C16.1224 12.0207 16.3437 12.0034 16.5468 11.9255L16.8756 12.2349L15.8138 13.0313L14.6888 12.1876V10.1767L15.0713 10.5367C15.0093 10.7329 15.0024 10.9423 15.0511 11.1422C15.0999 11.3422 15.2025 11.5249 15.3478 11.6706ZM16.1032 9.32418L15.5088 9.91884L14.8298 9.27979L15.4242 8.68537L16.1032 9.32418ZM12.4388 3.75773L14.8941 1.44679L15.8907 1.04821L15.4964 2.03385L12.4388 4.9116V3.75773ZM12.4388 6.75009V5.87535L13.7851 7.14239L13.1906 7.73681L12.41 7.00213C12.4291 6.91948 12.4388 6.83492 12.4388 6.75009ZM10.9388 3.75009C10.9388 3.65063 10.9783 3.55525 11.0487 3.48492C11.119 3.4146 11.2144 3.37509 11.3138 3.37509C11.4133 3.37509 11.5087 3.4146 11.579 3.48492C11.6493 3.55525 11.6888 3.65063 11.6888 3.75009V6.75009C11.6888 6.84954 11.6493 6.94493 11.579 7.01525C11.5087 7.08558 11.4133 7.12509 11.3138 7.12509C11.2144 7.12509 11.119 7.08558 11.0487 7.01525C10.9783 6.94493 10.9388 6.84954 10.9388 6.75009V3.75009ZM7.13121 2.03385L6.73695 1.04821L7.73356 1.44689L10.1888 3.75773V4.91156L7.13121 2.03385ZM10.1888 5.87535V6.75009C10.1889 6.83492 10.1985 6.91948 10.2177 7.00213L9.43699 7.73681L8.84262 7.14239L10.1888 5.87535ZM7.2034 8.68513L7.79782 9.27956L7.11884 9.91884L6.52442 9.32437L7.2034 8.68513ZM5.4237 9.81445C5.49402 9.74413 5.5894 9.70463 5.68885 9.70463C5.78829 9.70463 5.88367 9.74413 5.95399 9.81445L6.74946 10.61C6.81976 10.6803 6.85926 10.7757 6.85926 10.8751C6.85926 10.9745 6.81976 11.0699 6.74946 11.1402C6.71464 11.175 6.6733 11.2027 6.6278 11.2215C6.5823 11.2404 6.53354 11.2501 6.48429 11.2501C6.43504 11.2501 6.38628 11.2404 6.34078 11.2215C6.29528 11.2027 6.25394 11.175 6.21912 11.1402L5.42365 10.3447C5.38883 10.3099 5.3612 10.2686 5.34236 10.2231C5.32351 10.1776 5.31381 10.1288 5.31381 10.0796C5.31381 10.0303 5.32351 9.98156 5.34236 9.93606C5.3612 9.89056 5.38883 9.84922 5.42365 9.8144L5.4237 9.81445ZM2.57899 15.3296C2.50861 15.3998 2.41324 15.4393 2.31382 15.4393C2.2144 15.4393 2.11904 15.3998 2.04865 15.3296L0.859291 14.1403C0.789075 14.0699 0.749643 13.9745 0.749643 13.8751C0.749643 13.7757 0.789075 13.6803 0.859291 13.6099L1.93882 12.5304L3.65853 14.2501L2.57899 15.3296ZM3.65126 13.1822L3.05684 12.5878L4.88567 10.8666C4.88834 10.8693 4.89059 10.8724 4.89335 10.8751L5.47967 11.4614L3.65126 13.1822ZM7.93882 20.2501H5.68882V18.7501L6.58882 19.4251C6.65373 19.4738 6.73268 19.5001 6.81382 19.5001C6.89496 19.5001 6.97391 19.4738 7.03882 19.4251L7.93882 18.7501V20.2501ZM7.93882 17.8126L6.81382 18.6563L5.68882 17.8126V16.8751L6.58882 17.5501C6.65373 17.5988 6.73268 17.6251 6.81382 17.6251C6.89496 17.6251 6.97391 17.5988 7.03882 17.5501L7.93882 16.8751V17.8126ZM7.93882 15.9376L6.81382 16.7813L5.68882 15.9376V15.0001L6.58882 15.6751C6.65373 15.7238 6.73268 15.7501 6.81382 15.7501C6.89496 15.7501 6.97391 15.7238 7.03882 15.6751L7.93882 15.0001V15.9376ZM7.93882 14.0626L6.81382 14.9063L5.68882 14.0626V13.1251L6.58882 13.8001C6.65373 13.8488 6.73268 13.8751 6.81382 13.8751C6.89496 13.8751 6.97391 13.8488 7.03882 13.8001L7.93882 13.1251V14.0626ZM7.93882 12.1876L6.81382 13.0313L5.75201 12.235L6.08178 11.9246C6.27935 12.0003 6.49427 12.0188 6.70186 11.9779C6.90946 11.937 7.1013 11.8384 7.25538 11.6933C7.40946 11.5483 7.51952 11.3628 7.57292 11.1581C7.62633 10.9533 7.62092 10.7377 7.55731 10.5359L7.93882 10.1767V12.1876ZM7.67365 8.09479C7.60332 8.02446 7.56381 7.92908 7.56381 7.82962C7.56381 7.73016 7.60332 7.63478 7.67365 7.56445C7.74398 7.49412 7.83936 7.45461 7.93882 7.45461C8.03828 7.45461 8.13367 7.49412 8.20399 7.56445L8.99946 8.35996C9.06976 8.43029 9.10926 8.52565 9.10926 8.62509C9.10926 8.72452 9.06976 8.81989 8.99946 8.89021C8.96464 8.92504 8.9233 8.95266 8.8778 8.97151C8.8323 8.99035 8.78354 9.00006 8.73429 9.00006C8.68504 9.00006 8.63628 8.99035 8.59078 8.97151C8.54528 8.95266 8.50394 8.92504 8.46912 8.89021L7.67365 8.09479ZM10.9388 20.2501H8.68882V18.7501L9.58882 19.4251C9.65373 19.4738 9.73268 19.5001 9.81382 19.5001C9.89496 19.5001 9.97391 19.4738 10.0388 19.4251L10.9388 18.7501V20.2501ZM10.9388 17.8126L9.81382 18.6563L8.68882 17.8126V16.8751L9.58882 17.5501C9.65373 17.5988 9.73268 17.6251 9.81382 17.6251C9.89496 17.6251 9.97391 17.5988 10.0388 17.5501L10.9388 16.8751V17.8126ZM10.9388 15.9376L9.81382 16.7813L8.68882 15.9376V15.0001L9.58882 15.6751C9.65373 15.7238 9.73268 15.7501 9.81382 15.7501C9.89496 15.7501 9.97391 15.7238 10.0388 15.6751L10.9388 15.0001V15.9376ZM10.9388 14.0626L9.81382 14.9063L8.68882 14.0626V13.1251L9.58882 13.8001C9.65373 13.8488 9.73268 13.8751 9.81382 13.8751C9.89496 13.8751 9.97391 13.8488 10.0388 13.8001L10.9388 13.1251V14.0626ZM10.9388 12.1876L9.81382 13.0313L8.68882 12.1876V11.2501L9.58882 11.9251C9.65373 11.9738 9.73268 12.0001 9.81382 12.0001C9.89496 12.0001 9.97391 11.9738 10.0388 11.9251L10.9388 11.2501V12.1876ZM10.9388 10.3126L9.81382 11.1563L8.68882 10.3126V9.74742C8.70401 9.74802 8.7191 9.74957 8.73429 9.74957C8.94903 9.74961 9.15931 9.68824 9.34031 9.57268C9.52132 9.45713 9.66549 9.29222 9.75584 9.0974L10.9388 10.2804V10.3126ZM11.3138 9.59474L9.97732 8.25824L10.6308 7.6432C10.8267 7.79358 11.0668 7.87509 11.3138 7.87509C11.5608 7.87509 11.8009 7.79358 11.9968 7.6432L12.6503 8.25824L11.3138 9.59474ZM13.9388 20.2501H11.6888V18.7501L12.5888 19.4251C12.6537 19.4738 12.7327 19.5001 12.8138 19.5001C12.895 19.5001 12.9739 19.4738 13.0388 19.4251L13.9388 18.7501V20.2501ZM13.9388 17.8126L12.8138 18.6563L11.6888 17.8126V16.8751L12.5888 17.5501C12.6537 17.5988 12.7327 17.6251 12.8138 17.6251C12.895 17.6251 12.9739 17.5988 13.0388 17.5501L13.9388 16.8751V17.8126ZM13.9388 15.9376L12.8138 16.7813L11.6888 15.9376V15.0001L12.5888 15.6751C12.6537 15.7238 12.7327 15.7501 12.8138 15.7501C12.895 15.7501 12.9739 15.7238 13.0388 15.6751L13.9388 15.0001V15.9376ZM13.9388 14.0626L12.8138 14.9063L11.6888 14.0626V13.1251L12.5888 13.8001C12.6537 13.8488 12.7327 13.8751 12.8138 13.8751C12.895 13.8751 12.9739 13.8488 13.0388 13.8001L13.9388 13.1251V14.0626ZM13.9388 12.1876L12.8138 13.0313L11.6888 12.1876V11.2501L12.5888 11.9251C12.6537 11.9738 12.7327 12.0001 12.8138 12.0001C12.895 12.0001 12.9739 11.9738 13.0388 11.9251L13.9388 11.2501V12.1876ZM13.9388 10.3126L12.8138 11.1563L11.6888 10.3126V10.2804L12.8731 9.09613C12.9624 9.2916 13.1061 9.45721 13.287 9.57318C13.4679 9.68915 13.6784 9.75057 13.8933 9.75009C13.9085 9.75009 13.9237 9.74957 13.9388 9.74896V10.3126ZM13.8933 9.00009C13.8191 9.00008 13.7466 8.97808 13.685 8.93687C13.6233 8.89567 13.5753 8.8371 13.5469 8.76857C13.5185 8.70005 13.5111 8.62465 13.5255 8.55191C13.54 8.47917 13.5757 8.41236 13.6282 8.35992L14.4237 7.56445C14.4584 7.52899 14.4997 7.50076 14.5454 7.4814C14.5911 7.46204 14.6401 7.45193 14.6897 7.45166C14.7393 7.45139 14.7885 7.46095 14.8344 7.47981C14.8802 7.49867 14.9219 7.52644 14.957 7.56151C14.992 7.59659 15.0198 7.63827 15.0387 7.68415C15.0575 7.73002 15.0671 7.77919 15.0668 7.82878C15.0665 7.87838 15.0564 7.92743 15.037 7.97309C15.0176 8.01875 14.9894 8.06012 14.9539 8.09479L14.1585 8.89026C14.1237 8.92519 14.0824 8.95288 14.0369 8.97174C13.9914 8.99059 13.9426 9.00022 13.8933 9.00009ZM16.9388 20.2501H14.6888V18.7501L15.5888 19.4251C15.6537 19.4738 15.7327 19.5001 15.8138 19.5001C15.895 19.5001 15.9739 19.4738 16.0388 19.4251L16.9388 18.7501V20.2501ZM16.9388 17.8126L15.8138 18.6563L14.6888 17.8126V16.8751L15.5888 17.5501C15.6537 17.5988 15.7327 17.6251 15.8138 17.6251C15.895 17.6251 15.9739 17.5988 16.0388 17.5501L16.9388 16.8751V17.8126ZM16.9388 15.9376L15.8138 16.7813L14.6888 15.9376V15.0001L15.5888 15.6751C15.6537 15.7238 15.7327 15.7501 15.8138 15.7501C15.895 15.7501 15.9739 15.7238 16.0388 15.6751L16.9388 15.0001V15.9376ZM16.9388 14.0626L15.8138 14.9063L14.6888 14.0626V13.1251L15.5888 13.8001C15.6537 13.8488 15.7327 13.8751 15.8138 13.8751C15.895 13.8751 15.9739 13.8488 16.0388 13.8001L16.9388 13.1251V14.0626ZM17.148 11.4614L17.7343 10.8751C17.737 10.8724 17.7395 10.8695 17.7422 10.8668L19.5708 12.5878L18.9764 13.1822L17.148 11.4614ZM21.7683 14.1403L20.5789 15.3296C20.5086 15.3999 20.4133 15.4394 20.3138 15.4394C20.2144 15.4394 20.119 15.3999 20.0487 15.3296L18.9691 14.2501L20.6888 12.5304L21.7683 13.6099C21.8031 13.6447 21.8308 13.6861 21.8496 13.7316C21.8684 13.7771 21.8781 13.8258 21.8781 13.8751C21.8781 13.9243 21.8684 13.9731 21.8496 14.0186C21.8308 14.0641 21.8031 14.1054 21.7683 14.1403Z" fill="#1B1718"/>
</svg>
