<svg preserveAspectRatio="none" width="100%" height="100%" overflow="visible" style="display: block;" viewBox="0 0 69.5824 80" fill="none" xmlns="http://www.w3.org/2000/svg">
<g id="Group">
<path id="Vector" d="M22.8191 41.1719C23.4665 41.1719 23.991 40.6473 23.991 40C23.991 39.3527 23.4665 38.8281 22.8191 38.8281H17.2129C16.5655 38.8281 16.041 39.3527 16.041 40C16.041 40.6473 16.5655 41.1719 17.2129 41.1719H22.8191Z" fill="var(--fill-0, #CCA2A0)"/>
<path id="Vector_2" d="M62.5124 52.3789C63.1149 50.8736 63.5386 49.3558 63.772 47.8569C63.8716 47.2173 63.4339 46.6183 62.7942 46.5188C62.1533 46.4198 61.5556 46.8572 61.4561 47.4966C61.2517 48.8087 60.8811 50.1431 60.3522 51.472H35.7797C34.0252 47.0855 34.0252 42.7977 35.7797 38.4111H60.3522C60.881 39.7398 61.2517 41.0745 61.4561 42.3883C61.556 43.028 62.1541 43.4656 62.7944 43.3659C63.4339 43.2662 63.8716 42.667 63.772 42.0277C63.5383 40.5275 63.1145 39.0094 62.5124 37.5045C63.9991 36.0092 65.2972 34.5598 66.4636 33.0917C69.9072 28.7567 70.5492 22.9627 68.1395 17.9706C65.7314 12.9823 60.801 9.88344 55.2724 9.88344H47.6528C45.0903 3.85828 39.303 0 32.7392 0H16.226C9.95721 0 4.36689 3.51375 1.63627 9.17C-1.09623 14.8303 -0.368108 21.4 3.53642 26.3153C4.88861 28.0172 6.39783 29.6989 8.1308 31.4367C7.58814 32.7748 7.16814 34.1239 6.88236 35.4575C6.74674 36.0903 7.1497 36.7133 7.78267 36.8488C7.86533 36.8666 7.94798 36.8752 8.02939 36.8752C8.57002 36.8752 9.05611 36.4986 9.17392 35.9484C9.42924 34.7575 9.80361 33.5489 10.2895 32.3466H29.1169C30.448 34.1742 31.8952 35.745 33.6205 37.5039C33.4438 37.9448 33.2814 38.3861 33.1363 38.8278H28.2877C27.6403 38.8278 27.1158 39.3523 27.1158 39.9997C27.1158 40.647 27.6403 41.1716 28.2877 41.1716H32.5161C32.0802 43.3297 32.0189 45.4933 32.3324 47.6528H10.2895C9.40658 45.4666 8.89595 43.2653 8.77002 41.0989C8.73252 40.4528 8.17424 39.9603 7.5322 39.9969C6.88595 40.0344 6.39267 40.5886 6.43017 41.2347C6.57142 43.6675 7.14392 46.1289 8.1308 48.5627C6.39783 50.3006 4.88845 51.9822 3.53627 53.6841C-0.368265 58.5994 -1.09639 65.1692 1.63611 70.8294C4.36674 76.4863 9.95721 80 16.226 80H32.7394C34.1805 80 35.596 79.8183 36.9495 79.463C38.1991 79.8144 39.5117 80 40.8605 80H55.2724C60.801 80 65.7314 76.9011 68.1395 71.9127C70.5494 66.9208 69.907 61.1269 66.4636 56.7919C65.2974 55.3237 63.9992 53.8742 62.5124 52.3789ZM49.1755 64.0933C47.1116 68.3286 46.0078 72.9998 45.9625 77.6562H41.1706C41.0594 73.0178 42.0783 68.358 44.1377 64.13C46.1328 60.0345 48.9439 56.5648 52.492 53.8156H57.1445C53.8317 56.6277 51.1081 60.1266 49.1755 64.0933ZM56.366 77.6056C54.8575 74.3464 52.5192 71.568 49.5625 69.5213C49.9542 68.2241 50.4349 66.9514 51.003 65.7158C55.5739 67.7103 59.1528 71.6091 60.7405 76.3433C59.3992 77.032 57.9197 77.4662 56.366 77.6056ZM48.937 71.962C50.9405 73.4989 52.5836 75.4353 53.7739 77.6562H48.306C48.326 75.7487 48.5406 73.8391 48.937 71.962ZM31.5045 58.2497C32.6711 56.7809 33.9828 55.3264 35.4994 53.8156H40.7231C38.3581 56.23 36.3995 59.01 34.887 62.1136C33.1258 65.7302 32.0844 69.54 31.7745 73.4672C31.1227 72.6975 30.5591 71.8366 30.1039 70.8939C28.0888 66.7191 28.6253 61.8741 31.5045 58.2497ZM34.0235 75.518C34.0877 71.2238 35.085 67.0605 36.9942 63.14C38.7522 59.533 41.1572 56.3977 44.1419 53.8155H48.8785C46.0572 56.4427 43.7591 59.5555 42.0306 63.1033C39.8414 67.5981 38.741 72.5473 38.8227 77.4837C37.0749 77.1869 35.4428 76.5108 34.0235 75.518ZM19.4695 30.0031H13.6122C17.552 26.7466 20.7869 22.6423 23.0581 17.9806C25.4377 13.098 26.6964 7.71141 26.7228 2.34375H32.5514C32.6594 6.20281 32.0666 10.26 30.8777 13.938C29.715 15.08 28.7342 16.4352 27.9933 17.9703C27.3139 19.3777 26.8774 20.8488 26.6774 22.333C24.7286 25.0881 22.0956 27.9723 19.4695 30.0031ZM15.078 2.39187C16.8091 6.18531 19.5213 9.40766 22.968 11.7658C22.4947 13.3541 21.9049 14.9106 21.202 16.4192C15.7995 14.1152 11.5802 9.51969 9.75236 3.93375C11.3769 3.07734 13.1811 2.54562 15.078 2.39187ZM23.5985 9.3375C21.1072 7.47875 19.0828 5.09781 17.6566 2.34375H24.3794C24.367 4.6875 24.1036 7.03516 23.5985 9.3375ZM45.13 24.1675C40.5633 22.1744 36.9785 18.2683 35.3925 13.5402C36.7338 12.8512 38.2131 12.417 39.7667 12.2777C41.2744 15.5363 43.6127 18.3144 46.5705 20.3619C46.1788 21.6589 45.6983 22.9316 45.13 24.1675ZM47.827 12.2269C47.807 14.1345 47.5922 16.0445 47.1958 17.9217C45.1917 16.3845 43.5494 14.4477 42.3594 12.2269H47.827ZM40.3045 9.89422C38.0138 9.98078 35.8397 10.6017 33.9202 11.6666C34.6424 8.66406 34.9711 5.59828 34.9 2.51C37.0394 2.84172 39.031 3.66234 40.7469 4.87969C40.7258 6.55422 40.578 8.23688 40.3045 9.89422ZM33.3713 14.8558C35.2411 19.9072 39.141 24.0678 44.0649 26.2594C43.4977 27.2722 42.8722 28.247 42.1944 29.1808C36.7989 27.867 32.3267 24.0766 30.1277 18.9427C30.9202 17.3184 32.0335 15.9367 33.3713 14.8558ZM46.9574 25.7898C49.0214 21.5542 50.1253 16.8836 50.1706 12.2269H54.9624C55.0335 15.1328 54.6681 18.0263 53.8709 20.8398C53.6945 21.4625 54.0564 22.1105 54.6789 22.2869C54.7858 22.317 54.8933 22.3316 54.9991 22.3316C55.51 22.3316 55.9797 21.9947 56.126 21.4789C56.9664 18.5123 57.363 15.4633 57.3105 12.3992C59.0581 12.6963 60.6902 13.3723 62.1094 14.3652C62.045 18.6597 61.0477 22.8231 59.1386 26.7431C57.3808 30.35 54.9758 33.4852 51.9914 36.0673H47.2538C50.0328 33.4783 52.3052 30.4191 54.0242 26.9378C54.3108 26.3573 54.0728 25.6547 53.4925 25.3681C52.9117 25.0816 52.2094 25.3198 51.9228 25.8998C49.9328 29.9297 47.1464 33.3494 43.6414 36.0672H38.9917C42.303 33.2552 45.0269 29.7517 46.9574 25.7898ZM66.0288 18.9892C68.0441 23.1641 67.5075 28.0091 64.6285 31.6336C63.4611 33.103 62.1495 34.5573 60.6338 36.0672H55.41C57.7749 33.653 59.7331 30.8731 61.2458 27.7697C63.0069 24.1533 64.0483 20.3436 64.3583 16.4161C65.0102 17.1856 65.5738 18.0466 66.0288 18.9892ZM45.0658 9.88312H42.6778C42.83 8.89234 42.9413 7.89422 43.0099 6.89422C43.8103 7.78344 44.5035 8.78469 45.0658 9.88312ZM7.72439 5.24359C9.84017 11.1548 14.3753 16.0055 20.1372 18.5116C19.4416 19.77 18.6692 20.9792 17.8261 22.1325C11.5188 20.6339 6.28236 16.2031 3.73955 10.2047C3.74205 10.1994 3.74439 10.1941 3.74689 10.1888C4.70439 8.20531 6.07345 6.53047 7.72439 5.24359ZM5.37173 24.8577C2.73502 21.5386 1.79345 17.3373 2.66283 13.3327C5.58517 18.5742 10.4641 22.4739 16.2417 24.1405C14.3795 26.3205 12.2461 28.2541 9.89314 29.8841C8.17986 28.1727 6.6947 26.5231 5.37173 24.8577ZM23.1127 30.0031C24.3956 28.8348 25.5919 27.5739 26.6942 26.2275C26.88 27.522 27.2466 28.7919 27.7892 30.0031H23.1127ZM31.5045 31.6336C29.317 28.8797 28.4833 25.4214 29.0922 22.0877C31.6427 26.4578 35.7541 29.7153 40.6111 31.1769C39.057 32.9678 37.2902 34.5623 35.35 35.9189C33.8964 34.4614 32.633 33.0542 31.5045 31.6336ZM33.6205 52.3787C31.226 54.8831 29.1047 57.0192 27.6558 60.1689C25.4256 65.0169 23.0117 72.0847 22.8766 77.6562H16.4128C16.3047 73.9803 16.8024 70.3308 17.8961 66.7964C18.0875 66.1781 17.7413 65.5219 17.123 65.3305C16.5049 65.1391 15.8485 65.4853 15.657 66.1036C14.5103 69.8095 13.9774 73.6344 14.0655 77.4888C11.9305 77.1583 9.93845 76.3425 8.21986 75.1234C8.28064 70.1466 9.42924 65.3216 11.6422 60.7775C13.6763 56.6038 16.4624 52.9787 19.9222 49.997H25.851C22.5338 53.0109 19.8338 56.6033 17.807 60.7113C17.5206 61.2917 17.7589 61.9944 18.3394 62.2806C18.5061 62.3628 18.6828 62.4019 18.8569 62.4019C19.2891 62.4019 19.7047 62.1619 19.9086 61.7481C22.2097 57.0841 25.4353 53.1309 29.4956 49.9969H32.8191C33.035 50.792 33.3028 51.5861 33.6205 52.3787ZM3.74705 69.8111C1.40892 64.968 2.03158 59.3472 5.37173 55.1423C6.72533 53.4383 8.24877 51.7509 10.0127 49.9969H16.4755C13.6495 52.8163 11.321 56.0866 9.53517 59.7508C7.46486 64.002 6.26658 68.485 5.95517 73.1072C5.0833 72.1378 4.33689 71.0331 3.74705 69.8111ZM32.7392 77.6562H25.2202C25.2911 74.8966 25.9419 71.7098 26.8699 68.6448C27.1088 69.7558 27.4814 70.8525 27.9933 71.9127C29.1486 74.3058 30.8853 76.2623 32.9892 77.6522C32.906 77.6536 32.8228 77.6562 32.7392 77.6562ZM62.7611 75.0278C60.8902 69.9705 56.9972 65.8162 52.0686 63.6233C52.6356 62.6106 53.26 61.6358 53.9374 60.7027C59.3241 62.0147 63.8078 65.8111 66.0058 70.9398C65.2131 72.5644 64.0994 73.9466 62.7611 75.0278ZM67.0406 67.7964C64.4891 63.4284 60.3703 60.1667 55.5195 58.7059C57.0735 56.9153 58.8416 55.3225 60.7833 53.9647C62.2364 55.4217 63.4995 56.8288 64.6283 58.2497C66.8161 61.0038 67.6497 64.4623 67.0406 67.7964Z" fill="var(--fill-0, #CCA2A0)"/>
<path id="Vector_3" d="M41.7217 43.7703C41.0743 43.7703 40.5498 44.2948 40.5498 44.9421C40.5498 45.5895 41.0743 46.114 41.7217 46.114H45.3311C45.9784 46.114 46.5029 45.5895 46.5029 44.9421C46.5029 44.2948 45.9784 43.7703 45.3311 43.7703H41.7217Z" fill="var(--fill-0, #CCA2A0)"/>
<path id="Vector_4" d="M50.8 43.7703C50.1527 43.7703 49.6281 44.2948 49.6281 44.9422C49.6281 45.5895 50.1527 46.1141 50.8 46.1141H54.411C55.0583 46.1141 55.5828 45.5895 55.5828 44.9422C55.5828 44.2948 55.0583 43.7703 54.411 43.7703H50.8Z" fill="var(--fill-0, #CCA2A0)"/>
</g>
</svg>
