<svg preserveAspectRatio="none" width="100%" height="100%" overflow="visible" style="display: block;" viewBox="0 0 80 80" fill="none" xmlns="http://www.w3.org/2000/svg">
<g id="Group">
<path id="Vector" d="M73.28 29.6773C71.4567 29.6773 69.6942 30.4386 68.4452 31.7664L65.8245 34.5509C65.4452 34.2077 65 33.9483 64.5161 33.778V30.9677C64.5161 13.893 50.6233 0 33.5484 0C16.4736 0 2.58063 13.893 2.58063 30.9678V33.7859C1.08266 34.32 0 35.7394 0 37.4194V40C0 41.68 1.08266 43.0994 2.58063 43.6336V60.6452C2.58063 65.6245 6.63219 69.6773 11.6128 69.6773H32.7625L29.4722 73.1728C28.7728 73.9173 28.387 74.8889 28.387 76.0077C28.387 78.2089 30.178 79.9998 32.3792 79.9998C33.4759 79.9998 34.5366 79.5417 35.2889 78.7405L38.7367 75.0695C42.2864 78.2478 46.8012 80 51.613 80C62.2852 80 70.9678 71.3173 70.9678 60.6452C70.9678 55.453 68.8684 50.5252 65.2014 46.8994L73.2402 38.342C73.9162 39.3742 75.0608 40.0002 76.3175 40.0002C78.3484 40 80 38.3484 80 36.3173C80 32.6567 77.0206 29.6773 73.28 29.6773ZM61.7961 73.9433C61.0128 74.5445 60.1806 75.08 59.298 75.5381L36.7198 52.96C37.1766 52.0775 37.7134 51.2452 38.3147 50.4619L61.7961 73.9433ZM56.0181 64.5161L66.8659 53.667C67.3137 54.6452 67.6544 55.6695 67.9072 56.72L58.0645 66.5625L56.0181 64.5161ZM34.9291 58.9109C35.0491 57.7445 35.2942 56.6155 35.6427 55.5316L56.7266 76.6167C55.6427 76.9652 54.5136 77.2089 53.3472 77.3303L34.9291 58.9109ZM35.8516 66.3948C35.4 65.1627 35.098 63.8878 34.9483 62.5794L37.2631 64.8942L35.8516 66.3948ZM18.6 33.5484L12.5936 27.542C13.1445 26.742 13.7897 26.0142 14.502 25.3575L22.693 33.5484H18.6ZM26.3419 33.5484L16.5883 23.7948C17.4656 23.2645 18.4037 22.8245 19.4012 22.5148L29.1431 32.2581L27.8528 33.5484H26.3419ZM30.9678 30.4322L28.9227 28.387L31.9497 25.36C32.6619 26.0167 33.307 26.7445 33.8581 27.5445L30.9678 30.4322ZM35.3148 25.1884C37.6736 23.0866 40.6684 21.9355 43.8709 21.9355C44.1136 21.9355 44.3497 21.9587 44.5897 21.9716L37.5588 29.0025C36.9936 27.6194 36.2336 26.3394 35.3148 25.1884ZM27.0967 26.5613L22.507 21.9716C22.747 21.9586 22.9831 21.9355 23.2258 21.9355C25.6555 21.9355 27.9212 22.6233 29.8645 23.7948L27.0967 26.5613ZM35.1445 29.9058C35.6194 31.0477 35.9355 32.2697 36.0633 33.5484H31.502L35.1445 29.9058ZM38.6439 33.5484C38.5948 32.9575 38.52 32.3742 38.4066 31.8039L47.6956 22.5148C48.693 22.8245 49.6311 23.2645 50.5086 23.7948L40.755 33.5484H38.6439ZM44.4039 33.5484L52.5936 25.3588C53.3058 26.0155 53.9509 26.7433 54.502 27.5433L48.4969 33.5484H44.4039ZM55.7897 29.9045C56.2645 31.0464 56.5819 32.2697 56.7097 33.5484H52.147L55.7897 29.9045ZM43.8709 19.3548C39.9987 19.3548 36.3794 20.7612 33.538 23.3212C30.7961 20.8645 27.1883 19.3548 23.2258 19.3548C18.2839 19.3548 13.8864 21.6903 11.0491 25.3058C13.587 15.2322 22.6981 7.74188 33.5484 7.74188C44.3988 7.74188 53.5097 15.2322 56.0478 25.3058C53.2103 21.6903 48.813 19.3548 43.8709 19.3548ZM11.307 29.9045L14.9509 33.5484H10.3884C10.5161 32.2697 10.8322 31.0464 11.307 29.9045ZM43.0736 36.1291L37.3148 47.6452C35.0606 50.1225 33.4309 53.173 32.6994 56.5613C32.2748 56.8503 31.64 56.7909 31.3291 56.36L16.7175 36.1291H43.0736ZM40.0373 48.5355C40.7392 47.8645 41.4903 47.2464 42.2992 46.7045L48.525 52.9303L46.5405 55.0387L40.0373 48.5355ZM50.2942 51.0503L44.6478 45.4039C45.6169 44.96 46.6336 44.6078 47.6905 44.3523L52.2789 48.9408L50.2942 51.0503ZM54.0478 47.0619L50.893 43.907C51.1342 43.8967 51.3703 43.8709 51.613 43.8709C53.2517 43.8709 54.8517 44.1109 56.3936 44.5703L54.0478 47.0619ZM58.3291 42.5136C56.1833 41.7163 53.9317 41.2903 51.613 41.2903C48.1666 41.2903 44.9342 42.2064 42.1278 43.7922L45.9587 36.1289H63.2258C63.5355 36.1289 63.818 36.2489 64.0464 36.4386L58.3291 42.5136ZM33.5484 2.58063C49.2014 2.58063 61.9355 15.3148 61.9355 30.9677V33.5483H59.3548V30.9677C59.3548 16.738 47.7781 5.16125 33.5484 5.16125C19.3188 5.16125 7.74188 16.7381 7.74188 30.9678V33.5484H5.16125V30.9678C5.16125 15.3148 17.8955 2.58063 33.5484 2.58063ZM2.58063 37.4194C2.58063 36.7084 3.16 36.1291 3.87094 36.1291H13.5342L17.262 41.2903H3.87094C3.16 41.2903 2.58063 40.7109 2.58063 40V37.4194ZM5.16125 60.6452V43.8709H19.1252L29.2373 57.8736C29.9083 58.8 30.9922 59.3548 32.1355 59.3548C32.2 59.3548 32.2606 59.3381 32.3239 59.3342C32.2955 59.7691 32.2581 60.2027 32.2581 60.6452C32.2581 62.8761 32.6348 65.0361 33.3652 67.0967H11.613C8.05547 67.0967 5.16125 64.2027 5.16125 60.6452ZM33.4091 76.973C33.142 77.2569 32.7678 77.4194 32.3794 77.4194C31.6012 77.4194 30.9678 76.7872 30.9678 75.9097C30.9678 75.5484 31.1033 75.2052 31.3511 74.9419L39.0892 66.72L41.1266 68.7573L33.4091 76.973ZM42.9522 70.5833L49.667 77.2981C46.2528 76.9072 43.0852 75.4866 40.5031 73.1911L42.9522 70.5833ZM63.7225 72.2206L59.8889 68.387L68.3483 59.9289C68.3586 60.1677 68.387 60.4037 68.387 60.645C68.387 65.1342 66.6052 69.2078 63.7225 72.2206ZM65.5419 51.3419L54.1934 62.6916L52.2192 60.7173L63.4359 48.7767C64.2284 49.5664 64.9303 50.4258 65.5419 51.3419ZM76.3173 37.4194C75.8967 37.4194 75.5186 37.1858 75.3316 36.8103L74.7031 35.5522C74.5147 35.1755 74.1534 34.9134 73.7353 34.8528C73.3159 34.7883 72.8966 34.9392 72.6075 35.2464L50.3936 58.8916L48.3652 56.8631L70.3225 33.5353C71.0864 32.7238 72.1637 32.258 73.3598 32.258C75.5986 32.258 77.4192 34.0786 77.4192 36.3173C77.4194 36.9252 76.9252 37.4194 76.3173 37.4194Z" fill="var(--fill-0, #CCA2A0)"/>
</g>
</svg>
