<svg preserveAspectRatio="none" width="100%" height="100%" overflow="visible" style="display: block;" viewBox="0 0 76.5959 80" fill="none" xmlns="http://www.w3.org/2000/svg">
<g id="Group">
<path id="Vector" d="M63.2645 24.1106C62.7305 24.4761 62.5936 25.2053 62.9591 25.7395C66.7389 31.2647 68.737 37.7381 68.737 44.4597C68.737 62.7644 53.845 77.6562 35.5403 77.6562C17.2356 77.6562 2.34375 62.7644 2.34375 44.4597C2.34375 26.155 17.2356 11.263 35.5403 11.263C42.6812 11.263 49.6923 13.4959 55.6675 18.0583C56.182 18.4509 56.9173 18.3525 57.3102 17.8381C57.703 17.3238 57.6044 16.5883 57.09 16.1955C53.623 13.5483 49.7791 11.5963 45.6977 10.3838V6.74844H49.1772C49.8244 6.74844 50.3491 6.22375 50.3491 5.57656C50.3491 4.92937 49.8244 4.40469 49.1772 4.40469H45.6977V3.92406C45.6977 1.76047 43.9372 0 41.7734 0C39.6097 0 37.8492 1.76047 37.8492 3.92422V4.40484H33.2314V3.92422C33.2314 1.76047 31.4711 0 29.3073 0C27.1436 0 25.3831 1.76047 25.3831 3.92422V4.40484H21.9036C21.2564 4.40484 20.7317 4.92953 20.7317 5.57672C20.7317 6.22391 21.2564 6.74859 21.9036 6.74859H25.3831V10.3863C10.9828 14.6578 0 28.0712 0 44.4597C0 64.1016 15.8955 80 35.5403 80C55.1823 80 71.0808 64.1044 71.0808 44.4597C71.0808 37.2637 68.9412 30.3328 64.8934 24.4161C64.5281 23.882 63.7986 23.745 63.2645 24.1106ZM41.7734 2.34375C42.6448 2.34375 43.3539 3.05281 43.3539 3.92422V9.77484C42.3128 9.5425 41.2584 9.35766 40.1931 9.21953V3.92422C40.193 3.05281 40.902 2.34375 41.7734 2.34375ZM37.8492 6.74844V8.99297C37.0841 8.94453 36.3142 8.91922 35.5403 8.91922C34.7664 8.91922 33.9969 8.94641 33.2314 8.99516V6.74844H37.8492ZM27.7269 3.92422C27.7269 3.05281 28.4359 2.34375 29.3073 2.34375C30.1788 2.34375 30.8878 3.05281 30.8878 3.92422V9.22141C29.8223 9.35984 28.7677 9.54391 27.727 9.77625L27.7269 3.92422Z" fill="var(--fill-0, #CCA2A0)"/>
<path id="Vector_2" d="M53.2631 21.7686C53.6408 21.243 53.5209 20.5108 52.9955 20.133C47.8872 16.4614 41.8514 14.5208 35.5405 14.5208C19.0322 14.5208 5.60172 27.9514 5.60172 44.4597C5.60172 60.968 19.032 74.3984 35.5403 74.3984C52.0486 74.3984 65.4792 60.968 65.4792 44.4597C65.4792 38.7452 63.8633 33.1887 60.8063 28.3914C60.4584 27.8456 59.7342 27.6853 59.1881 28.033C58.6423 28.3808 58.4819 29.1052 58.8297 29.6511C61.6466 34.0714 63.1355 39.1922 63.1355 44.4597C63.1355 59.6756 50.7564 72.0547 35.5405 72.0547C20.3245 72.0547 7.94531 59.6756 7.94531 44.4597C7.94531 29.2437 20.3244 16.8645 35.5403 16.8645C41.3573 16.8645 46.9203 18.6528 51.6275 22.0362C52.1531 22.4139 52.8853 22.2941 53.2631 21.7686Z" fill="var(--fill-0, #CCA2A0)"/>
<path id="Vector_3" d="M75.415 5.76703C73.8367 4.18875 71.2822 4.18859 69.7036 5.76703L64.4027 11.0678C63.0872 12.3833 62.8944 14.3359 63.6956 15.8291L52.3967 27.128C51.9391 27.5856 51.9391 28.3277 52.3967 28.7852C52.8544 29.2428 53.5964 29.2428 54.0539 28.7852L65.3544 17.4847C66.887 18.303 68.8306 18.0627 70.1141 16.7791L75.4148 11.4783C76.9895 9.90375 76.9895 7.34172 75.415 5.76703ZM73.7577 9.82109L68.4569 15.1219C67.7961 15.7827 66.7209 15.7827 66.06 15.1219C65.3978 14.4597 65.3975 13.3875 66.06 12.725L71.3608 7.42422C72.0219 6.76328 73.0967 6.76344 73.7577 7.42422C74.4184 8.08516 74.4184 9.16031 73.7577 9.82109Z" fill="var(--fill-0, #CCA2A0)"/>
<path id="Vector_4" d="M55.3129 44.4597C55.3129 41.4964 53.3122 38.9933 50.5911 38.2256C51.9723 35.7587 51.6172 32.5739 49.5217 30.4786C47.4264 28.3833 44.2418 28.0281 41.7746 29.4095C41.0073 26.6883 38.5042 24.6875 35.5407 24.6875C32.5775 24.6875 30.0743 26.6883 29.3067 29.4094C26.8398 28.0281 23.655 28.3833 21.5596 30.4786C19.4643 32.5739 19.109 35.7586 20.4904 38.2256C17.7693 38.9933 15.7686 41.4964 15.7686 44.4597C15.7686 47.423 17.7693 49.9261 20.4904 50.6936C19.1092 53.1605 19.4643 56.3453 21.5596 58.4406C22.8226 59.7036 24.4812 60.335 26.1403 60.335C27.2337 60.3348 28.3265 60.0586 29.3067 59.51C30.0743 62.2311 32.5775 64.2319 35.5407 64.2319C38.504 64.2319 41.0071 62.2311 41.7748 59.51C42.755 60.0588 43.8476 60.335 44.9412 60.335C46.6001 60.335 48.2589 59.7036 49.5217 58.4408C51.617 56.3455 51.9723 53.1606 50.5909 50.6938C53.3121 49.9261 55.3129 47.423 55.3129 44.4597ZM47.8645 32.1358C49.5012 33.7725 49.4729 36.4473 47.7979 38.0472C46.0056 38.2486 43.4509 38.9053 41.2756 39.8798C40.9343 39.4534 40.5468 39.0659 40.1204 38.7247C41.095 36.5494 41.7517 33.9947 41.9531 32.2023C43.5511 30.5288 46.2265 30.498 47.8645 32.1358ZM30.5406 44.4597C30.5406 41.7025 32.7836 39.4595 35.5407 39.4595C38.2979 39.4595 40.5409 41.7025 40.5409 44.4597C40.5409 47.2167 38.2979 49.4597 35.5407 49.4597C32.7836 49.4597 30.5406 47.2167 30.5406 44.4597ZM35.5407 27.0312C37.8203 27.0312 39.6748 28.8858 39.6748 31.1653C39.6748 32.5652 39.0356 35.325 38.0695 37.5645C37.2807 37.2744 36.4289 37.1156 35.5406 37.1156C34.6523 37.1156 33.8004 37.2742 33.0117 37.5645C32.0457 35.325 31.4064 32.5652 31.4064 31.1653C31.4067 28.8858 33.2612 27.0312 35.5407 27.0312ZM23.217 32.1358C24.8289 30.5241 27.4515 30.5239 29.0636 32.1358C29.0837 32.1559 29.1071 32.1816 29.1287 32.2041C29.3304 33.9963 29.987 36.55 30.9612 38.7247C30.5348 39.0659 30.1473 39.4534 29.8061 39.8798C27.6315 38.9056 25.0776 38.2491 23.2854 38.0473C23.2629 38.0258 23.2373 38.0023 23.2171 37.9823C21.6051 36.3705 21.6051 33.7478 23.217 32.1358ZM18.1125 44.4597C18.1125 42.1802 19.967 40.3255 22.2465 40.3255C23.967 40.3255 26.869 41.1644 28.6457 41.9308C28.3556 42.7195 28.1968 43.5714 28.1968 44.4597C28.1968 45.348 28.3554 46.1998 28.6457 46.9886C26.4062 47.9545 23.6464 48.5938 22.2465 48.5938C19.967 48.5938 18.1125 46.7392 18.1125 44.4597ZM23.217 56.7834C21.6051 55.1716 21.6051 52.5488 23.2168 50.937C23.2371 50.9167 23.2628 50.8933 23.2854 50.8716C25.0776 50.6698 27.6314 50.0134 29.8059 49.0392C30.1471 49.4656 30.5346 49.8531 30.9611 50.1944C29.9865 52.3697 29.3298 54.9245 29.1284 56.7167C27.5292 58.3906 24.855 58.4213 23.217 56.7834ZM35.5407 61.888C33.2612 61.888 31.4067 60.0334 31.4067 57.7539C31.4067 56.3541 32.0459 53.5942 33.012 51.3547C33.8007 51.6448 34.6526 51.8036 35.5409 51.8036C36.4292 51.8036 37.2811 51.645 38.0698 51.3547C39.0357 53.5942 39.6751 56.3542 39.6751 57.7539C39.675 60.0334 37.8204 61.888 35.5407 61.888ZM47.8645 56.7834C46.2525 58.3953 43.582 58.418 41.9528 56.715C41.7511 54.9228 41.0945 52.3691 40.1203 50.1945C40.5467 49.8533 40.9342 49.4658 41.2754 49.0394C43.45 50.0136 46.0037 50.6702 47.7961 50.8717C49.4989 52.5002 49.4767 55.1713 47.8645 56.7834ZM48.8351 48.5938C47.4353 48.5938 44.6753 47.9545 42.4359 46.9884C42.7261 46.1997 42.8848 45.3478 42.8848 44.4597C42.8848 43.5714 42.7262 42.7195 42.4359 41.9308C44.1992 41.1702 47.1129 40.3255 48.8351 40.3255C51.1146 40.3255 52.9692 42.1802 52.9692 44.4597C52.9692 46.7392 51.1146 48.5938 48.8351 48.5938Z" fill="var(--fill-0, #CCA2A0)"/>
</g>
</svg>
