<svg preserveAspectRatio="none" width="100%" height="100%" overflow="visible" style="display: block;" viewBox="0 0 80 80" fill="none" xmlns="http://www.w3.org/2000/svg">
<g id="fi_10583391">
<path id="Vector" d="M28.987 3.70626C28.697 3.70642 28.4189 3.82171 28.2138 4.02679C28.0087 4.23187 27.8934 4.50998 27.8933 4.80001V5.35626H18.8064C18.0756 3.91153 16.8791 2.75529 15.4103 2.07424C13.9414 1.39319 12.2859 1.22708 10.711 1.60275C9.13618 1.97841 7.73389 2.87392 6.73061 4.14466C5.72734 5.4154 5.18164 6.9872 5.18164 8.60626C5.18164 10.2253 5.72734 11.7971 6.73061 13.0679C7.73389 14.3386 9.13618 15.2341 10.711 15.6098C12.2859 15.9854 13.9414 15.8193 15.4103 15.1383C16.8791 14.4572 18.0756 13.301 18.8064 11.8563H27.8933V15.5H24.5745V14.9375C24.5745 14.6474 24.4593 14.3692 24.2542 14.1641C24.0491 13.959 23.7709 13.8438 23.4808 13.8438C23.1907 13.8438 22.9125 13.959 22.7074 14.1641C22.5023 14.3692 22.387 14.6474 22.387 14.9375V15.5H20.8345C20.691 15.5 20.5488 15.5282 20.4161 15.5831C20.2835 15.638 20.1629 15.7185 20.0614 15.82L17.9039 17.9763C17.699 18.1816 17.584 18.4599 17.584 18.75C17.584 19.0401 17.699 19.3184 17.9039 19.5238L20.0614 21.68C20.1629 21.7815 20.2835 21.862 20.4161 21.9169C20.5488 21.9718 20.691 22 20.8345 22H22.387V28.025H22.062C21.0036 28.0272 19.9893 28.4487 19.2411 29.1972C18.4928 29.9458 18.0718 30.9604 18.0701 32.0188V74.6C18.0718 75.6584 18.4928 76.673 19.2411 77.4215C19.9893 78.1701 21.0036 78.5916 22.062 78.5938H57.937C58.9954 78.5916 60.0098 78.1701 60.758 77.4215C61.5062 76.673 61.9272 75.6584 61.9289 74.6V32.0188C61.9272 30.9604 61.5062 29.9458 60.758 29.1972C60.0098 28.4487 58.9954 28.0272 57.937 28.025H57.612V22H61.1926C61.9235 23.4447 63.1199 24.601 64.5888 25.282C66.0576 25.9631 67.7131 26.1292 69.288 25.7535C70.8629 25.3778 72.2652 24.4823 73.2684 23.2116C74.2717 21.9409 74.8174 20.3691 74.8174 18.75C74.8174 17.1309 74.2717 15.5591 73.2684 14.2884C72.2652 13.0177 70.8629 12.1222 69.288 11.7465C67.7131 11.3708 66.0576 11.5369 64.5888 12.218C63.1199 12.899 61.9235 14.0553 61.1926 15.5H57.612V14.9375C57.612 14.6474 57.4968 14.3692 57.2917 14.1641C57.0866 13.959 56.8084 13.8438 56.5183 13.8438C56.2282 13.8438 55.95 13.959 55.7449 14.1641C55.5398 14.3692 55.4245 14.6474 55.4245 14.9375V15.5H52.1058V11.8563H59.1645C59.3081 11.8563 59.4503 11.8281 59.5829 11.7732C59.7156 11.7183 59.8361 11.6378 59.9376 11.5363L62.0951 9.38001C62.3 9.17462 62.4151 8.89636 62.4151 8.60626C62.4151 8.31616 62.3 8.0379 62.0951 7.83251L59.937 5.67626C59.8355 5.57476 59.7149 5.49426 59.5823 5.43935C59.4496 5.38445 59.3075 5.35621 59.1639 5.35626H52.1058V4.80001C52.1058 4.50993 51.9905 4.23173 51.7854 4.02661C51.5803 3.82149 51.3021 3.70626 51.012 3.70626C50.7219 3.70626 50.4437 3.82149 50.2386 4.02661C50.0335 4.23173 49.9183 4.50993 49.9183 4.80001V5.35626H41.0933V4.80001C41.0933 4.50993 40.978 4.23173 40.7729 4.02661C40.5678 3.82149 40.2896 3.70626 39.9995 3.70626C39.7094 3.70626 39.4312 3.82149 39.2261 4.02661C39.021 4.23173 38.9058 4.50993 38.9058 4.80001V5.35626H30.0808V4.80001C30.0806 4.50998 29.9653 4.23187 29.7602 4.02679C29.5552 3.82171 29.2771 3.70642 28.987 3.70626ZM12.3901 13.6188C11.3988 13.6188 10.4297 13.3248 9.60535 12.774C8.78105 12.2232 8.13859 11.4404 7.7592 10.5245C7.37982 9.60854 7.28055 8.6007 7.47396 7.62837C7.66737 6.65604 8.14476 5.76289 8.84577 5.06188C9.54678 4.36087 10.4399 3.88348 11.4123 3.69007C12.3846 3.49666 13.3924 3.59593 14.3083 3.97531C15.2243 4.35469 16.0071 4.99716 16.5579 5.82146C17.1087 6.64576 17.4026 7.61488 17.4026 8.60626C17.4012 9.9352 16.8726 11.2093 15.9329 12.149C14.9932 13.0887 13.7191 13.6173 12.3901 13.6188ZM19.5033 9.66876C19.5582 9.3172 19.5873 8.96207 19.5901 8.60626C19.5874 8.25041 19.5581 7.89526 19.5026 7.54376H27.8933V9.66876H19.5033ZM30.0808 11.8563H38.9058V15.5H35.587V14.9375C35.587 14.6474 35.4718 14.3692 35.2667 14.1641C35.0616 13.959 34.7834 13.8438 34.4933 13.8438C34.2032 13.8438 33.925 13.959 33.7199 14.1641C33.5148 14.3692 33.3995 14.6474 33.3995 14.9375V15.5H30.0808V11.8563ZM44.412 28.025H41.0933V22H44.412V28.025ZM46.5995 22H49.9183V28.025H46.5995V22ZM33.3995 22V28.025H30.0808V22H33.3995ZM35.587 22H38.9058V28.025H35.587V22ZM35.587 19.8125V17.6875H44.412V19.8125H35.587ZM33.3995 17.6875V19.8125H24.5745V17.6875H33.3995ZM21.2876 19.8125L20.2245 18.75L21.287 17.6875H22.387V19.8125H21.2876ZM24.5745 22H27.8933V28.025H24.5745V22ZM20.2576 55.63L24.3745 53.2894L29.0426 55.9444C29.2074 56.0384 29.3939 56.0878 29.5836 56.0878C29.7733 56.0878 29.9597 56.0384 30.1245 55.9444L34.7926 53.2894L39.4608 55.9444C39.6254 56.0384 39.8118 56.0878 40.0014 56.0878C40.191 56.0878 40.3773 56.0384 40.542 55.9444L45.2101 53.2894L49.8745 55.9444C50.0393 56.0384 50.2257 56.0878 50.4155 56.0878C50.6052 56.0878 50.7916 56.0384 50.9564 55.9444L55.6245 53.2894L59.7395 55.63V61.3638L56.1651 59.3306C56.0004 59.2369 55.8141 59.1877 55.6245 59.1877C55.435 59.1877 55.2487 59.2369 55.0839 59.3306L50.4151 61.9856L45.7495 59.3306C45.5846 59.2369 45.3982 59.1877 45.2086 59.1877C45.0189 59.1877 44.8325 59.2369 44.6676 59.3306L39.9995 61.9856L35.3314 59.3306C35.1665 59.2369 34.9801 59.1877 34.7905 59.1877C34.6008 59.1877 34.4144 59.2369 34.2495 59.3306L29.582 61.9856L24.9133 59.3306C24.7485 59.2369 24.5622 59.1877 24.3726 59.1877C24.1831 59.1877 23.9968 59.2369 23.832 59.3306L20.2576 61.3638V55.63ZM59.7414 53.1138L56.167 51.0806C56.0023 50.9866 55.816 50.9372 55.6264 50.9372C55.4368 50.9372 55.2504 50.9866 55.0858 51.0806L50.417 53.7356L45.7495 51.0806C45.5847 50.9866 45.3983 50.9372 45.2086 50.9372C45.0189 50.9372 44.8324 50.9866 44.6676 51.0806L39.9995 53.7356L35.3314 51.0806C35.1666 50.9866 34.9802 50.9372 34.7905 50.9372C34.6008 50.9372 34.4143 50.9866 34.2495 51.0806L29.582 53.7356L24.9133 51.0806C24.7486 50.9866 24.5623 50.9372 24.3726 50.9372C24.183 50.9372 23.9967 50.9866 23.832 51.0806L20.2576 53.1138V47.38L24.3745 45.0394L29.0426 47.6944C29.2074 47.7884 29.3939 47.8378 29.5836 47.8378C29.7733 47.8378 29.9597 47.7884 30.1245 47.6944L34.7926 45.0394L39.4608 47.6944C39.6254 47.7884 39.8118 47.8378 40.0014 47.8378C40.191 47.8378 40.3773 47.7884 40.542 47.6944L45.2101 45.0394L49.8745 47.6944C50.0393 47.7884 50.2257 47.8378 50.4155 47.8378C50.6052 47.8378 50.7916 47.7884 50.9564 47.6944L55.6245 45.0394L59.7395 47.38L59.7414 53.1138ZM20.2576 63.88L24.3745 61.5394L29.0426 64.1944C29.2074 64.2884 29.3939 64.3378 29.5836 64.3378C29.7733 64.3378 29.9597 64.2884 30.1245 64.1944L34.7926 61.5394L39.4608 64.1944C39.6254 64.2884 39.8118 64.3378 40.0014 64.3378C40.191 64.3378 40.3773 64.2884 40.542 64.1944L45.2101 61.5394L49.8783 64.1944C50.0431 64.2884 50.2295 64.3378 50.4192 64.3378C50.6089 64.3378 50.7954 64.2884 50.9601 64.1944L55.6245 61.5394L59.7395 63.88V69.6175L56.1664 67.5806C56.0012 67.4869 55.8145 67.4376 55.6245 67.4376C55.4346 67.4376 55.2479 67.4869 55.0826 67.5806L50.4151 70.2413L45.7495 67.5806C45.5844 67.4869 45.3978 67.4377 45.208 67.4377C45.0181 67.4377 44.8315 67.4869 44.6664 67.5806L39.9995 70.2413L35.332 67.5806C35.1669 67.4869 34.9803 67.4377 34.7905 67.4377C34.6006 67.4377 34.414 67.4869 34.2489 67.5806L29.582 70.2413L24.9145 67.5806C24.7493 67.4869 24.5626 67.4376 24.3726 67.4376C24.1827 67.4376 23.996 67.4869 23.8308 67.5806L20.2576 69.6175V63.88ZM59.7414 44.8638L56.167 42.8306C56.0023 42.7366 55.816 42.6872 55.6264 42.6872C55.4368 42.6872 55.2504 42.7366 55.0858 42.8306L50.417 45.4856L45.7495 42.8306C45.5847 42.7366 45.3983 42.6872 45.2086 42.6872C45.0189 42.6872 44.8324 42.7366 44.6676 42.8306L39.9995 45.4856L35.3314 42.8306C35.1666 42.7366 34.9802 42.6872 34.7905 42.6872C34.6008 42.6872 34.4143 42.7366 34.2495 42.8306L29.582 45.4856L24.9133 42.8306C24.7486 42.7366 24.5623 42.6872 24.3726 42.6872C24.183 42.6872 23.9967 42.7366 23.832 42.8306L20.2576 44.8638V39.13L24.3745 36.7894L29.0426 39.4444C29.2074 39.5384 29.3939 39.5878 29.5836 39.5878C29.7733 39.5878 29.9597 39.5384 30.1245 39.4444L34.7926 36.7894L39.4608 39.4444C39.6254 39.5384 39.8118 39.5878 40.0014 39.5878C40.191 39.5878 40.3773 39.5384 40.542 39.4444L45.2101 36.7894L49.8745 39.4444C50.0393 39.5384 50.2257 39.5878 50.4155 39.5878C50.6052 39.5878 50.7916 39.5384 50.9564 39.4444L55.6245 36.7894L59.7395 39.13L59.7414 44.8638ZM57.937 76.4063H22.062C21.5834 76.4056 21.1245 76.215 20.7862 75.8764C20.4479 75.5377 20.2578 75.0787 20.2576 74.6V72.1356L24.3745 69.79L29.042 72.45C29.207 72.544 29.3937 72.5934 29.5836 72.5934C29.7735 72.5934 29.9601 72.544 30.1251 72.45L34.7926 69.79L39.4595 72.45C39.6246 72.544 39.8114 72.5935 40.0014 72.5935C40.1914 72.5935 40.3782 72.544 40.5433 72.45L45.2101 69.79L49.8745 72.45C50.0395 72.544 50.2262 72.5934 50.4161 72.5934C50.606 72.5934 50.7926 72.544 50.9576 72.45L55.6245 69.79L59.7395 72.1356V74.6C59.7394 75.0784 59.5495 75.5371 59.2116 75.8757C58.8737 76.2143 58.4154 76.4051 57.937 76.4063ZM57.937 30.2125C58.4157 30.2132 58.8745 30.4037 59.2128 30.7424C59.5511 31.081 59.7412 31.5401 59.7414 32.0188V36.6138L56.167 34.5806C56.0023 34.4866 55.816 34.4372 55.6264 34.4372C55.4368 34.4372 55.2504 34.4866 55.0858 34.5806L50.417 37.2356L45.7495 34.5806C45.5847 34.4866 45.3983 34.4372 45.2086 34.4372C45.0189 34.4372 44.8324 34.4866 44.6676 34.5806L39.9995 37.2356L35.3314 34.5806C35.1666 34.4866 34.9802 34.4372 34.7905 34.4372C34.6008 34.4372 34.4143 34.4866 34.2495 34.5806L29.582 37.2356L24.9133 34.5806C24.7486 34.4866 24.5623 34.4372 24.3726 34.4372C24.183 34.4372 23.9967 34.4866 23.832 34.5806L20.2576 36.6138V32.0188C20.2578 31.5401 20.4479 31.081 20.7862 30.7424C21.1245 30.4037 21.5834 30.2132 22.062 30.2125H22.387V30.7625C22.387 31.0526 22.5023 31.3308 22.7074 31.5359C22.9125 31.741 23.1907 31.8563 23.4808 31.8563C23.7709 31.8563 24.0491 31.741 24.2542 31.5359C24.4593 31.3308 24.5745 31.0526 24.5745 30.7625V30.2125H27.8933V30.7625C27.8933 31.0526 28.0085 31.3308 28.2136 31.5359C28.4187 31.741 28.6969 31.8563 28.987 31.8563C29.2771 31.8563 29.5553 31.741 29.7604 31.5359C29.9655 31.3308 30.0808 31.0526 30.0808 30.7625V30.2125H33.3995V30.7625C33.3995 31.0526 33.5148 31.3308 33.7199 31.5359C33.925 31.741 34.2032 31.8563 34.4933 31.8563C34.7834 31.8563 35.0616 31.741 35.2667 31.5359C35.4718 31.3308 35.587 31.0526 35.587 30.7625V30.2125H38.9058V30.7625C38.9058 31.0526 39.021 31.3308 39.2261 31.5359C39.4312 31.741 39.7094 31.8563 39.9995 31.8563C40.2896 31.8563 40.5678 31.741 40.7729 31.5359C40.978 31.3308 41.0933 31.0526 41.0933 30.7625V30.2125H44.412V30.7625C44.412 31.0526 44.5273 31.3308 44.7324 31.5359C44.9375 31.741 45.2157 31.8563 45.5058 31.8563C45.7959 31.8563 46.0741 31.741 46.2792 31.5359C46.4843 31.3308 46.5995 31.0526 46.5995 30.7625V30.2125H49.9183V30.7625C49.9183 31.0526 50.0335 31.3308 50.2386 31.5359C50.4437 31.741 50.7219 31.8563 51.012 31.8563C51.3021 31.8563 51.5803 31.741 51.7854 31.5359C51.9905 31.3308 52.1058 31.0526 52.1058 30.7625V30.2125H55.4245V30.7625C55.4245 31.0526 55.5398 31.3308 55.7449 31.5359C55.95 31.741 56.2282 31.8563 56.5183 31.8563C56.8084 31.8563 57.0866 31.741 57.2917 31.5359C57.4968 31.3308 57.612 31.0526 57.612 30.7625V30.2125H57.937ZM55.4245 28.025H52.1058V22H55.4245V28.025ZM67.6089 13.7375C68.6003 13.7375 69.5694 14.0315 70.3937 14.5823C71.218 15.133 71.8605 15.9159 72.2398 16.8318C72.6192 17.7477 72.7185 18.7556 72.5251 19.7279C72.3317 20.7002 71.8543 21.5934 71.1533 22.2944C70.4523 22.9954 69.5591 23.4728 68.5868 23.6662C67.6145 23.8596 66.6066 23.7603 65.6907 23.381C64.7748 23.0016 63.9919 22.3591 63.4412 21.5348C62.8904 20.7105 62.5964 19.7414 62.5964 18.75C62.5979 17.4211 63.1265 16.147 64.0662 15.2073C65.0059 14.2676 66.28 13.739 67.6089 13.7375ZM60.4995 17.6875C60.3833 18.3911 60.3833 19.1089 60.4995 19.8125H57.612V17.6875H60.4995ZM55.4245 19.8125H46.5995V17.6875H55.4245V19.8125ZM49.9183 15.5H46.5995V14.9375C46.5995 14.6474 46.4843 14.3692 46.2792 14.1641C46.0741 13.959 45.7959 13.8438 45.5058 13.8438C45.2157 13.8438 44.9375 13.959 44.7324 14.1641C44.5273 14.3692 44.412 14.6474 44.412 14.9375V15.5H41.0933V11.8563H49.9183V15.5ZM58.7114 7.54376L59.7739 8.60626L58.7114 9.66876H52.1058V7.54376H58.7114ZM49.9183 7.54376V9.66876H41.0933V7.54376H49.9183ZM38.9058 7.54376V9.66876H30.0808V7.54376H38.9058Z" fill="var(--fill-0, #CCA2A0)"/>
</g>
</svg>
