<svg preserveAspectRatio="none" width="100%" height="100%" overflow="visible" style="display: block;" viewBox="0 0 80 80" fill="none" xmlns="http://www.w3.org/2000/svg">
<g id="fi_8211964">
<path id="Vector" d="M57.2891 40.5331C57.3691 41.2367 57.4097 41.9514 57.4097 42.6575C57.4097 43.3104 57.3749 43.9691 57.3065 44.615C57.2337 45.3017 57.7312 45.917 58.4177 45.9898C58.4625 45.9946 58.5069 45.997 58.551 45.997C59.1823 45.997 59.7246 45.5203 59.7925 44.8787C59.8703 44.1453 59.9097 43.3981 59.9097 42.6575C59.9097 41.8575 59.8637 41.0478 59.7732 40.2509C59.6951 39.565 59.0747 39.0723 58.39 39.1499C57.7042 39.2279 57.2113 39.8473 57.2891 40.5331Z" fill="var(--fill-0, #CCA2A0)"/>
<path id="Vector_2" d="M23.9117 49.3983C23.64 48.7636 22.905 48.4694 22.2707 48.7415C21.6361 49.0132 21.3419 49.7479 21.6138 50.3825C22.2238 51.8071 23.0026 53.1618 23.9285 54.409C24.1739 54.7394 24.5511 54.9141 24.9332 54.9141C25.1923 54.9141 25.4535 54.8338 25.6774 54.6677C26.2317 54.2561 26.3474 53.4732 25.936 52.9188C25.1262 51.8281 24.4452 50.6436 23.9117 49.3983Z" fill="var(--fill-0, #CCA2A0)"/>
<path id="Vector_3" d="M22.6128 44.4884L22.6096 44.4597C22.5356 43.8028 22.498 43.1357 22.498 42.4768C22.498 41.7822 22.5399 41.0822 22.6224 40.3958C22.705 39.7104 22.2161 39.088 21.5306 39.0056C20.8452 38.9241 20.2228 39.4119 20.1404 40.0974C20.046 40.8823 19.998 41.6829 19.998 42.4768C19.998 43.2288 20.0409 43.9902 20.1247 44.733L20.1308 44.7875C20.2073 45.4221 20.7466 45.8881 21.3703 45.8881C21.4202 45.8881 21.4705 45.885 21.5213 45.8789C22.2068 45.7964 22.6953 45.1738 22.6128 44.4884Z" fill="var(--fill-0, #CCA2A0)"/>
<path id="Vector_4" d="M56.0311 35.5965C56.229 36.0807 56.696 36.3738 57.1887 36.3738C57.3461 36.3738 57.5063 36.3439 57.6612 36.2806C58.3002 36.0193 58.6065 35.2895 58.3453 34.6505C57.7526 33.2007 56.9996 31.832 56.1071 30.5826C55.7057 30.021 54.9249 29.8906 54.3633 30.2921C53.8017 30.6934 53.6715 31.4741 54.0728 32.0359C54.8528 33.1278 55.5117 34.3258 56.0311 35.5965Z" fill="var(--fill-0, #CCA2A0)"/>
<path id="Vector_5" d="M41.9394 59.8919L41.9347 59.8927C40.6026 60.041 39.2444 60.037 37.9236 59.8805C37.2395 59.7981 36.6165 60.2891 36.5352 60.9747C36.4539 61.6603 36.9438 62.2819 37.6294 62.3631C38.4042 62.4549 39.194 62.5015 39.977 62.5015C40.7289 62.5015 41.4903 62.4586 42.24 62.3741C42.2577 62.3721 42.2752 62.3698 42.2929 62.367L42.3196 62.3629C43.0019 62.2579 43.47 61.6197 43.365 60.9373C43.26 60.2552 42.6224 59.7866 41.9394 59.8919Z" fill="var(--fill-0, #CCA2A0)"/>
<path id="Vector_6" d="M28.0183 58.5136C29.261 59.444 30.6113 60.2292 32.032 60.8475C32.1944 60.9183 32.3636 60.9517 32.5302 60.9517C33.0125 60.9517 33.4721 60.6708 33.6769 60.2002C33.9525 59.5672 33.6627 58.8307 33.0296 58.5553C31.7865 58.0141 30.6046 57.3268 29.5168 56.5123C28.9643 56.0989 28.1809 56.2112 27.7669 56.7638C27.3532 57.3164 27.4658 58.0998 28.0183 58.5136Z" fill="var(--fill-0, #CCA2A0)"/>
<path id="Vector_7" d="M24.0057 30.4932C23.0734 31.7345 22.2861 33.0835 21.6655 34.5029C21.389 35.1355 21.6776 35.8723 22.31 36.149C22.473 36.2203 22.643 36.254 22.8102 36.254C23.2918 36.254 23.7509 35.974 23.9562 35.5045C24.4992 34.2621 25.1885 33.0812 26.0047 31.9946C26.4192 31.4426 26.3079 30.659 25.756 30.2444C25.204 29.8299 24.4203 29.9409 24.0057 30.4932Z" fill="var(--fill-0, #CCA2A0)"/>
<path id="Vector_8" d="M28.8613 28.6646C29.1197 28.6646 29.3803 28.5848 29.6038 28.4192C30.696 27.6112 31.8815 26.9321 33.1275 26.4009C33.7626 26.1301 34.0579 25.3958 33.7872 24.7607C33.5163 24.1257 32.7821 23.8306 32.147 24.1011C30.7217 24.7089 29.3658 25.4855 28.1169 26.4096C27.5619 26.8202 27.445 27.6028 27.8556 28.158C28.1007 28.4892 28.4786 28.6646 28.8613 28.6646Z" fill="var(--fill-0, #CCA2A0)"/>
<path id="Vector_9" d="M38.009 25.1134C39.4157 25.0124 40.799 25.0356 42.1066 25.183C42.1542 25.1885 42.2014 25.191 42.2482 25.191C42.8758 25.191 43.4167 24.7194 43.4888 24.081C43.5661 23.3949 43.0728 22.7762 42.3868 22.6988C40.9209 22.5333 39.3758 22.5072 37.8096 22.6213C37.7954 22.6222 37.7777 22.6239 37.7635 22.6254L37.7608 22.6257C37.0743 22.6981 36.5762 23.3132 36.6486 23.9998C36.7204 24.6817 37.3254 25.1805 38.009 25.1134Z" fill="var(--fill-0, #CCA2A0)"/>
<path id="Vector_10" d="M54.3252 54.8033C54.5494 54.9701 54.8109 55.0507 55.0705 55.0507C55.4521 55.0507 55.8288 54.8764 56.0742 54.5467C56.997 53.3064 57.77 51.943 58.3715 50.4945C58.6364 49.857 58.3341 49.1255 57.6966 48.8608C57.0599 48.5959 56.3276 48.898 56.0629 49.5357C55.54 50.7947 54.8689 51.9786 54.0685 53.0543C53.6564 53.6082 53.7713 54.3913 54.3252 54.8033Z" fill="var(--fill-0, #CCA2A0)"/>
<path id="Vector_11" d="M50.4632 56.5791C49.3823 57.3498 48.1833 58.0086 46.8994 58.5371C46.261 58.8 45.9566 59.5305 46.2195 60.1689C46.4181 60.6515 46.8843 60.9433 47.3758 60.9433C47.5343 60.9433 47.6956 60.9129 47.8512 60.8488C49.3112 60.2476 50.6782 59.4962 51.9144 58.6148C52.4765 58.2141 52.6074 57.4336 52.2067 56.8715C51.8059 56.3092 51.0251 56.1787 50.4632 56.5791Z" fill="var(--fill-0, #CCA2A0)"/>
<path id="Vector_12" d="M35.6838 35.591C33.98 34.3132 31.5596 34.485 30.0536 35.991C28.5477 37.4971 28.3757 39.9176 29.6535 41.6212L31.2819 43.7924L30.4949 44.973C29.4571 46.5295 29.6642 48.6194 30.987 49.9423C31.7284 50.6837 32.7301 51.0957 33.7709 51.0957C33.8638 51.0957 33.9572 51.0924 34.0506 51.0856C35.1901 51.0048 36.2367 50.4342 36.9223 49.5204L37.9563 48.1417C38.5447 48.5257 39.2465 48.75 40 48.75C40.7656 48.75 41.478 48.5189 42.0721 48.1235L43.1198 49.5206C43.8052 50.4343 44.8519 51.0048 45.9912 51.0857C46.0848 51.0924 46.178 51.0957 46.2711 51.0957C47.3117 51.0956 48.3136 50.6836 49.0552 49.9422C50.3778 48.6192 50.5848 46.5294 49.5471 44.973L48.7601 43.7924L50.3885 41.6212C51.6663 39.9176 51.4943 37.4971 49.9884 35.9911C48.4824 34.4852 46.0619 34.313 44.3582 35.591L42.5 36.9846V36.7677C42.5 35.9616 42.8139 35.2039 43.384 34.634C43.8721 34.1457 43.8721 33.3544 43.384 32.8661C42.8957 32.3781 42.1044 32.3781 41.6161 32.8661C40.6968 33.7854 40.1425 34.9721 40.0244 36.2506C40.0163 36.2506 40.0082 36.25 40 36.25C39.9918 36.25 39.9838 36.2506 39.9756 36.2506C39.8575 34.972 39.3033 33.7854 38.384 32.8661C37.8957 32.3781 37.1044 32.3781 36.6161 32.8661C36.128 33.3544 36.128 34.1457 36.6161 34.634C37.1862 35.2039 37.5 35.9616 37.5 36.7677V36.9531L35.6838 35.591ZM34.9223 48.0203C34.6683 48.3591 34.2958 48.562 33.8736 48.5921C33.449 48.6214 33.0539 48.4735 32.7548 48.1744C32.2716 47.6913 32.196 46.9281 32.5749 46.3597L33.8525 44.4434C34.1466 44.0024 34.1306 43.4241 33.8126 43L31.6534 40.1213C31.1174 39.4064 31.1896 38.3908 31.8214 37.759C32.4532 37.1269 33.4688 37.0549 34.1838 37.5911L36.3356 39.2049C36.28 39.4613 36.25 39.7272 36.25 40V45C36.25 45.3642 36.3032 45.7161 36.4005 46.0493L34.9223 48.0203ZM43.6705 39.2317L45.8582 37.5909C46.573 37.0547 47.5887 37.1268 48.2205 37.7589C48.8524 38.3908 48.9246 39.4064 48.3884 40.1213L46.2294 43C45.9114 43.4241 45.8954 44.0024 46.1894 44.4433L47.467 46.3597C47.8459 46.9281 47.7704 47.6913 47.2874 48.1744C46.9879 48.4736 46.591 48.6204 46.1684 48.5921C45.7462 48.562 45.3737 48.3589 45.1198 48.0205L43.6111 46.0087C43.7009 45.6875 43.75 45.3495 43.75 45V40C43.75 39.7367 43.7224 39.4798 43.6705 39.2317ZM38.75 40C38.75 39.3108 39.3108 38.75 40 38.75C40.6892 38.75 41.25 39.3108 41.25 40V45C41.25 45.6892 40.6892 46.25 40 46.25C39.3108 46.25 38.75 45.6892 38.75 45V40Z" fill="var(--fill-0, #CCA2A0)"/>
<path id="Vector_13" d="M73.8634 5.50323L61.7307 15.4301C60.8461 16.1537 60.3389 17.224 60.3389 18.3667C60.3389 19.6332 60.9632 20.7559 61.9196 21.4455C61.8746 21.5816 61.8152 21.7103 61.7429 21.8307C56.9559 16.7953 50.6145 13.5899 43.75 12.7331V9.99998H45V11.25C45 11.9403 45.5597 12.5 46.25 12.5H51.25C51.9403 12.5 52.5 11.9403 52.5 11.25V6.25C52.5 5.55969 51.9403 5 51.25 5H46.25C45.5597 5 45 5.55969 45 6.25V7.5H32.5C31.8097 7.5 31.25 8.05969 31.25 8.75C31.25 9.44031 31.8097 10 32.5 10H36.25V12.7324C29.1615 13.6172 22.6297 17.0077 17.7937 22.3283C12.768 27.8581 10 35.0218 10 42.5C10 50.0911 12.8355 57.0314 17.5011 62.321C17.501 62.3286 17.5 62.3361 17.5 62.3437V66.875C17.5 69.2874 15.5374 71.25 13.125 71.25C10.7126 71.25 8.75 69.2874 8.75 66.875V58.75C8.75 55.993 6.50695 53.75 3.75 53.75C3.05969 53.75 2.5 54.3097 2.5 55C2.5 55.6903 3.05969 56.25 3.75 56.25C5.12848 56.25 6.25 57.3715 6.25 58.75V66.875C6.25 70.6659 9.33411 73.75 13.125 73.75C16.9159 73.75 20 70.6659 20 66.875V64.84C25.3115 69.6001 32.3231 72.5 40 72.5C56.542 72.5 70 59.042 70 42.5C70 35.6475 67.6757 29.0622 63.421 23.7536C63.8253 23.2915 64.1325 22.7483 64.318 22.156C65.3907 22.1044 66.3854 21.606 67.0699 20.7693L76.9968 8.63662C77.7242 7.7475 77.6601 6.46453 76.8478 5.65216C76.0353 4.83994 74.7524 4.776 73.8634 5.50323ZM47.5 7.5H50V10H47.5V7.5ZM43.75 15.2553C49.4097 16.0274 54.6669 18.5446 58.8291 22.4588L58.2851 22.2774C57.1501 21.8993 55.9692 22.0027 54.9669 22.4809C51.7542 20.07 47.9337 18.4091 43.75 17.7798V15.2553ZM38.75 10H41.25V18.75H38.75V10ZM36.2889 20.3045C36.4251 20.8474 36.9149 21.25 37.5 21.25H42.5C43.0846 21.25 43.5741 20.848 43.7107 20.3059C47.1771 20.8807 50.3583 22.2432 53.0791 24.1948C52.9476 24.4134 52.8321 24.6455 52.7371 24.8917C52.5265 25.4369 52.0876 25.8542 51.5324 26.0368C50.9775 26.2196 50.3764 26.1443 49.8834 25.8305L46.9211 23.9455C46.3385 23.5748 45.5661 23.7466 45.1955 24.3289C44.8248 24.9113 44.9965 25.6839 45.5789 26.0545L48.5413 27.9396C49.2641 28.3997 50.0887 28.6356 50.9219 28.6356C51.3885 28.6356 51.8579 28.5616 52.3137 28.4116C53.5815 27.9946 54.5846 27.0421 55.0667 25.7979C59.6499 29.944 62.5 35.9339 62.5 42.5C62.5 54.9066 52.4066 65 40 65C27.5934 65 17.5 54.9066 17.5 42.5C17.5 31.4535 25.5068 22.089 36.2889 20.3045ZM67.5 42.5C67.5 57.6636 55.1636 70 40 70C24.8364 70 12.5 57.6636 12.5 42.5C12.5 35.645 15.0371 29.0784 19.6437 24.0099C24.0064 19.21 29.8737 16.1253 36.25 15.2554V17.7809C24.0817 19.6089 15 30.1002 15 42.5C15 56.2851 26.2149 67.5 40 67.5C53.7851 67.5 65 56.2851 65 42.5C65 35.5684 62.1405 29.215 57.4871 24.6471C57.4895 24.6479 57.4921 24.6484 57.4945 24.6492L58.6751 25.0427C59.5298 25.3275 60.4428 25.3416 61.2942 25.0996C65.3055 30.0024 67.5 36.125 67.5 42.5ZM65.135 19.1864C65.0635 19.2738 64.9811 19.349 64.892 19.4137L64.9757 18.9951C65.1111 18.3182 64.6721 17.6596 63.9951 17.5243C63.629 17.4516 63.2685 17.5477 62.9927 17.7577C63.0722 17.6092 63.1792 17.4749 63.3136 17.365L73.331 9.169L65.135 19.1864Z" fill="var(--fill-0, #CCA2A0)"/>
</g>
</svg>
