<svg preserveAspectRatio="none" width="100%" height="100%" overflow="visible" style="display: block;" viewBox="0 0 27.7656 5.87038" fill="none" xmlns="http://www.w3.org/2000/svg">
<g id="Group">
<path id="Vector" d="M11.8083 5.87038C9.03212 5.87038 7.73493 5.31681 5.90069 4.43067C4.62003 3.81307 3.17206 3.11283 1.04038 2.75136C0.358736 2.63568 -0.0977578 1.99122 0.0179148 1.30958C0.133587 0.627937 0.77805 0.171443 1.45969 0.287116C5.25417 0.931577 7.0946 2.45391 8.99494 3.02195C9.79432 3.26155 10.6639 3.36896 11.8103 3.36896C14.3283 3.36896 15.1814 2.8505 16.6768 2.15647C18.5668 1.24348 21.1571 0 25.7633 0C26.0236 0 26.2901 0.00413129 26.5544 0.0123936C27.2444 0.0330494 27.7876 0.609347 27.7649 1.30132C27.7442 1.99122 27.1679 2.53447 26.476 2.51175C22.2601 2.38162 20.1202 3.3008 17.7096 4.43274C16.0468 5.23832 14.7311 5.87038 11.8083 5.87038ZM16.6562 2.16886C16.6541 2.17093 16.652 2.17093 16.65 2.17299C16.652 2.17093 16.6541 2.16886 16.6562 2.16886Z" fill="var(--fill-0, #CCA2A0)"/>
</g>
</svg>
