<svg preserveAspectRatio="none" width="100%" height="100%" overflow="visible" style="display: block;" viewBox="0 0 72.6562 80" fill="none" xmlns="http://www.w3.org/2000/svg">
<g id="Group">
<path id="Vector" d="M65.625 7.12051V3.48082C65.5027 -1.16199 58.7147 -1.15855 58.5938 3.48082V7.12051H52.7344V3.48082C52.612 -1.16199 45.8241 -1.15855 45.7031 3.48082V7.12051H39.8438V3.48082C39.7214 -1.16199 32.9334 -1.15855 32.8125 3.48082V7.12051H26.9531V3.48082C26.8308 -1.16199 20.0428 -1.15855 19.9219 3.48082V7.12051H14.0625V3.48082C13.9402 -1.16199 7.15219 -1.15855 7.03125 3.48082V7.12051H0V80H57.4219V77.6535H2.34375V9.46707H7.03125V13.0502C7.15359 17.693 13.9416 17.6896 14.0625 13.0502V9.46707H19.9219V13.0502C20.0442 17.693 26.8322 17.6896 26.9531 13.0502V9.46707H32.8125V13.0502C32.9348 17.693 39.7228 17.6896 39.8438 13.0502V9.46707H45.7031V13.0502C45.8255 17.693 52.6134 17.6896 52.7344 13.0502V9.46707H58.5938V13.0502C58.7161 17.693 65.5041 17.6896 65.625 13.0502V9.46707H70.3125V77.6533H64.4531V80H72.6562V7.12051H65.625ZM11.7188 13.0504C11.6922 14.5894 9.40266 14.5944 9.375 13.0504V3.48098C9.40156 1.94191 11.6911 1.93691 11.7188 3.48098V13.0504ZM24.6094 13.0504C24.5828 14.5894 22.2933 14.5944 22.2656 13.0504V3.48098C22.2922 1.94191 24.5817 1.93691 24.6094 3.48098V13.0504ZM37.5 13.0504C37.4734 14.5894 35.1839 14.5944 35.1562 13.0504V3.48098C35.1828 1.94191 37.4723 1.93691 37.5 3.48098V13.0504ZM50.3906 13.0504C50.3641 14.5894 48.0745 14.5944 48.0469 13.0504V3.48098C48.0734 1.94191 50.363 1.93691 50.3906 3.48098V13.0504ZM63.2812 13.0504C63.2547 14.5894 60.9652 14.5944 60.9375 13.0504V3.48098C60.9641 1.94191 63.2536 1.93691 63.2812 3.48098V13.0504Z" fill="var(--fill-0, #CCA2A0)"/>
<path id="Vector_2" d="M59.7656 77.6535H62.1094V80H59.7656V77.6535Z" fill="var(--fill-0, #CCA2A0)"/>
<path id="Vector_3" d="M35.1963 24.7632H51.6025V27.1097H35.1963V24.7632Z" fill="var(--fill-0, #CCA2A0)"/>
<path id="Vector_4" d="M53.9463 24.7632H60.9775V27.1097H53.9463V24.7632Z" fill="var(--fill-0, #CCA2A0)"/>
<path id="Vector_5" d="M53.9463 29.4364H63.3213V31.783H53.9463V29.4364Z" fill="var(--fill-0, #CCA2A0)"/>
<path id="Vector_6" d="M53.9463 41.1794H60.9775V43.526H53.9463V41.1794Z" fill="var(--fill-0, #CCA2A0)"/>
<path id="Vector_7" d="M53.9463 45.8525H63.3213V48.1991H53.9463V45.8525Z" fill="var(--fill-0, #CCA2A0)"/>
<path id="Vector_8" d="M53.9463 61.1072H60.9775V63.4537H53.9463V61.1072Z" fill="var(--fill-0, #CCA2A0)"/>
<path id="Vector_9" d="M53.9463 65.7805H63.3213V68.1271H53.9463V65.7805Z" fill="var(--fill-0, #CCA2A0)"/>
<path id="Vector_10" d="M23.4783 41.1794V43.526H36.3519H51.6033V41.1794H37.5589V29.4365H36.387C34.4375 29.4365 32.8516 27.8485 32.8516 25.8966V22.4066H14.1216V25.8966C14.1216 27.8486 12.5355 29.4365 10.5859 29.4365H9.41406V55.304C9.41406 57.4766 10.9141 59.3043 12.9314 59.8055V64.6454H34.0252V59.8094C36.0508 59.3141 37.5589 57.4826 37.5589 55.304V45.7696H35.2152V55.304C35.2152 56.5677 34.1884 57.5957 32.9262 57.5957H14.0466C12.7844 57.5957 11.7577 56.5677 11.7577 55.304V31.6655C14.4402 31.1202 16.4652 28.7408 16.4652 25.8965V24.7532H18.875L23.4861 31.5068L28.0992 24.7532H30.5077V25.8965C30.5077 28.7408 32.5327 31.1202 35.215 31.6655V41.1793H23.4783V41.1794ZM15.2752 62.2988V59.9422H31.6814V62.2988H15.2752ZM23.4867 27.3493L21.7141 24.7532H25.2598L23.4867 27.3493Z" fill="var(--fill-0, #CCA2A0)"/>
<path id="Vector_11" d="M36.3866 61.1072H51.6028V63.4538H36.3866V61.1072Z" fill="var(--fill-0, #CCA2A0)"/>
<path id="Vector_12" d="M14.0625 32.9049H16.4062V35.2514H14.0625V32.9049Z" fill="var(--fill-0, #CCA2A0)"/>
<path id="Vector_13" d="M18.75 32.9049H21.0938V35.2514H18.75V32.9049Z" fill="var(--fill-0, #CCA2A0)"/>
<path id="Vector_14" d="M4.6875 18.8252H7.03125V21.1718H4.6875V18.8252Z" fill="var(--fill-0, #CCA2A0)"/>
<path id="Vector_15" d="M9.41406 18.8252H11.7578V21.1718H9.41406V18.8252Z" fill="var(--fill-0, #CCA2A0)"/>
</g>
</svg>
