<svg preserveAspectRatio="xMidYMid meet" overflow="visible" style="display: block;" viewBox="0 0 90.1608 50" fill="none" xmlns="http://www.w3.org/2000/svg">
<g id="Group">
<path id="Vector" d="M9.9188 23.6298C9.83827 23.5113 9.66465 23.5146 9.5236 23.5396C8.86513 23.6567 7.99631 24.9839 7.5839 24.8028C7.1715 24.6217 7.69709 22.063 7.72569 21.2537C7.74268 20.7728 7.77122 20.2767 7.60512 19.8252C7.30864 19.0193 6.43716 18.8307 5.67843 19.052C4.96577 19.26 3.44066 20.6127 3.30603 20.493C3.1714 20.3733 4.15902 18.9024 4.4662 18.4554C4.65945 18.1742 4.88526 17.9112 5.10688 17.6523C5.27882 17.4514 5.47411 17.1193 5.68222 16.9687C5.90735 16.8058 6.15271 16.9461 6.16495 17.2115C6.17149 17.3536 6.15439 17.5176 6.25708 17.6161C6.34486 17.7002 6.48272 17.6965 6.60318 17.6802C7.17872 17.6025 7.73083 17.3584 8.1757 16.9849C8.37795 16.8151 8.56534 16.6065 8.62413 16.3489C8.69398 16.0429 8.56208 15.7123 8.33255 15.4984C8.10299 15.2844 7.78912 15.1774 7.47653 15.1508C6.91414 15.103 6.3594 15.2971 5.8473 15.5345C4.57745 16.1233 3.41076 18.8618 3.23126 18.8918C3.05177 18.9217 3.82077 15.6009 3.92266 14.342C3.93022 14.2486 3.93576 14.1471 3.88334 14.0695C3.79372 13.9369 3.59719 13.9502 3.4407 13.9838C2.92879 14.0933 2.41533 14.2654 2.0137 14.6014C1.29807 15.2001 1.38945 16.1402 1.2983 16.986C1.18587 18.0291 1.06465 19.0713 0.934678 20.1123C0.674737 22.1945 0.379795 24.2723 0.0499574 26.3445C0.0367589 26.4274 0.0235182 26.5103 0.0102147 26.5932C-0.0762157 27.1315 0.403254 27.097 0.791006 26.9759C1.35764 26.7989 1.93361 26.5307 2.26242 26.0362C2.50616 25.6697 2.58569 25.2215 2.65974 24.7875C2.73774 24.3303 2.79508 23.8691 2.89375 23.4159C3.14869 22.2449 4.38346 20.6902 4.96631 20.7324C5.42864 20.7659 5.28811 23.0069 5.28841 23.2718C5.28912 23.8834 5.2465 24.4942 5.24848 25.1058C5.24984 25.5259 5.2096 26.1212 5.61222 26.3867C5.76962 26.4905 5.96745 26.513 6.15578 26.5042C7.59177 26.4372 9.06795 25.183 9.8373 24.0512C9.91415 23.9381 9.98763 23.7903 9.94012 23.6701C9.93467 23.6562 9.92762 23.6428 9.9188 23.6298Z" fill="var(--fill-0, #BBB9BA)"/>
<path id="Vector_2" d="M21.6491 25.0604C21.8155 24.9178 22.2875 24.442 21.9209 24.2618C21.6333 24.1205 21.3068 24.4165 21.136 24.5014C20.7497 24.6933 19.5804 25.5788 19.2663 25.2197C18.9522 24.8605 19.6398 21.9543 19.8724 20.5273C20.0951 19.1606 20.3661 17.8103 20.4711 16.4251C20.4913 16.1605 20.5023 15.8735 20.3542 15.6534C20.2112 15.4408 19.9444 15.3388 19.6884 15.3311C18.6382 15.2998 17.6046 16.0708 16.7736 16.6186C15.9209 17.1807 14.5486 18.539 14.3571 18.4973C14.3569 18.4973 14.3566 18.4972 14.3563 18.4971C13.7584 18.3518 15.2822 15.8333 13.9615 16.1079C13.4659 16.2109 12.9728 16.3864 12.5851 16.7119C11.4983 17.6241 11.9047 19.8814 11.8052 21.147C11.6614 22.9777 11.4283 24.7998 11.2156 26.6234C11.2068 26.6987 11.1985 26.7778 11.2271 26.848C11.2927 27.009 11.5078 27.039 11.6803 27.0175C11.9677 26.9818 12.2411 26.8739 12.5043 26.753C12.83 26.6033 13.1545 26.425 13.3814 26.1474C13.693 25.7663 13.7793 25.2504 13.8033 24.7586C13.8782 23.2244 14.1362 20.88 14.2182 20.1617C14.3003 19.4434 17.6462 16.9322 17.9851 17.0654C18.3239 17.1987 17.6376 20.3967 17.4087 21.7965C17.1733 23.2364 17.0002 24.6938 16.9811 26.1527C16.9748 26.6331 17.1334 27.0375 17.6759 27.0496C18.3549 27.0648 19.1562 26.8277 19.7598 26.4767C20.4515 26.0745 21.0389 25.5831 21.6491 25.0604Z" fill="var(--fill-0, #BBB9BA)"/>
<path id="Vector_3" d="M51.6168 27.0175C51.9043 26.9818 52.1776 26.8739 52.4408 26.753C52.7665 26.6033 53.091 26.425 53.3179 26.1474C53.6295 25.7663 53.7157 25.2504 53.7398 24.7586C53.8147 23.2244 54.0727 20.88 54.1548 20.1617C54.2369 19.4434 57.5827 16.9322 57.9216 17.0654C58.2604 17.1987 57.5741 20.3967 57.3453 21.7965C57.1098 23.2364 56.9367 24.6938 56.9176 26.1527C56.9113 26.6331 57.0699 27.0375 57.6124 27.0496C58.2914 27.0648 59.0928 26.8277 59.6964 26.4767C60.3881 26.0746 60.9755 25.5831 61.5856 25.0604C61.7521 24.9178 62.2241 24.442 61.8574 24.2618C61.5698 24.1205 61.2433 24.4165 61.0725 24.5014C60.6862 24.6933 59.5169 25.5788 59.2028 25.2197C58.8887 24.8605 59.5763 21.9543 59.8089 20.5273C60.0316 19.1606 60.3027 17.8103 60.4076 16.4251C60.4279 16.1605 60.4389 15.8735 60.2908 15.6534C60.1478 15.4408 59.8809 15.3388 59.625 15.3311C58.5747 15.2998 57.5411 16.0708 56.7101 16.6186C55.8578 17.1805 54.4863 18.5378 54.2939 18.4974C53.7443 18.382 55.08 16.0712 54.0295 16.1091C52.78 16.1542 51.8971 17.1113 51.8804 18.3136C51.842 21.0971 51.4742 23.8624 51.1521 26.6234C51.1433 26.6987 51.135 26.7778 51.1636 26.848C51.2292 27.009 51.4443 27.039 51.6168 27.0175Z" fill="var(--fill-0, #BBB9BA)"/>
<path id="Vector_4" d="M24.4917 27.049C25.1981 27.0273 25.8824 26.7741 26.4934 26.4187C27.1043 26.0633 27.65 25.6072 28.1862 25.1466C28.3452 25.01 28.5063 24.8698 28.6164 24.6914C28.677 24.5931 28.7209 24.4683 28.6713 24.364C28.6471 24.3133 28.6091 24.2796 28.5627 24.2593C28.4377 24.2044 28.2523 24.2466 28.1158 24.3126C27.5155 24.6028 26.9922 25.0518 26.3595 25.2622C26.2211 25.3082 26.0533 25.3371 25.9419 25.2428C25.8494 25.1646 25.8317 25.0305 25.8274 24.9094C25.8138 24.5213 25.871 24.1345 25.9324 23.7511C26.3232 21.3131 26.8944 18.9001 27.1094 16.4403C27.1764 15.6737 26.6094 15.2476 25.8844 15.4076C24.8603 15.6336 24.8249 16.4887 24.6956 17.3328C24.3815 19.383 24.3461 20.0321 24.0602 21.7923C23.9158 22.6809 23.7863 23.5731 23.7212 24.4716C23.6881 24.9297 23.5993 25.3884 23.6037 25.8477C23.6068 26.1735 23.6003 26.6123 23.8555 26.8689C24.0155 27.0298 24.2649 27.056 24.4917 27.049Z" fill="var(--fill-0, #BBB9BA)"/>
<path id="Vector_5" d="M25.0475 14.0221C25.1842 14.1258 25.3613 14.105 25.5202 14.066C26.1002 13.9237 26.6742 13.587 27.083 13.0699C27.2026 12.9188 27.3673 12.6415 27.4405 12.3657C27.5011 12.1372 27.4989 11.9097 27.3559 11.756C27.0977 11.4784 26.5389 11.7564 26.283 11.9038C25.8121 12.1751 25.2782 12.6307 24.9865 13.1597C24.8383 13.4285 24.8196 13.8493 25.0475 14.0221Z" fill="var(--fill-0, #BBB9BA)"/>
<path id="Vector_6" d="M46.1799 27.0489C46.8864 27.0271 47.5706 26.774 48.1816 26.4186C48.7926 26.0631 49.3382 25.6071 49.8744 25.1465C50.0335 25.0099 50.1945 24.8697 50.3046 24.6912C50.3652 24.5929 50.4092 24.4682 50.3595 24.3639C50.3353 24.3132 50.2973 24.2795 50.251 24.2592C50.1259 24.2043 49.9405 24.2465 49.804 24.3125C49.2037 24.6027 48.6805 25.0517 48.0478 25.2621C47.9093 25.3081 47.7416 25.3369 47.6301 25.2427C47.5376 25.1645 47.5199 25.0304 47.5157 24.9093C47.502 24.5212 47.5592 24.1344 47.6207 23.751C48.0115 21.3129 48.5826 18.9 48.7976 16.4401C48.8862 15.4271 48.0253 15.0506 47.1615 15.5543C46.4463 15.9712 46.4919 16.627 46.3838 17.3327C46.0697 19.3829 46.0343 20.032 45.7484 21.7922C45.6041 22.6808 45.4745 23.5731 45.4095 24.4715C45.3763 24.9296 45.2875 25.3883 45.2919 25.8476C45.295 26.1734 45.2885 26.6122 45.5437 26.8688C45.7037 27.0297 45.9531 27.0559 46.1799 27.0489Z" fill="var(--fill-0, #BBB9BA)"/>
<path id="Vector_7" d="M46.7357 14.0221C46.8725 14.1258 47.0496 14.105 47.2084 14.066C47.7884 13.9237 48.3624 13.587 48.7713 13.0699C48.8908 12.9188 49.0556 12.6415 49.1287 12.3657C49.1893 12.1372 49.1871 11.9097 49.0441 11.756C48.7859 11.4784 48.2271 11.7564 47.9712 11.9038C47.5004 12.1751 46.9664 12.6307 46.6747 13.1597C46.5265 13.4285 46.5078 13.8493 46.7357 14.0221Z" fill="var(--fill-0, #BBB9BA)"/>
<path id="Vector_8" d="M30.3318 17.7815C30.4449 17.8074 30.5627 17.7829 30.6762 17.7583C31.15 17.6555 31.6231 17.5493 32.0957 17.4407C31.8614 19.3917 31.6502 21.1035 31.5383 21.7926C31.3939 22.6812 31.2644 23.5735 31.1994 24.4719C31.1662 24.93 31.0026 25.4486 31.007 25.9079C31.0101 26.2337 31.0784 26.6126 31.3336 26.8692C31.4936 27.0301 31.743 27.0564 31.9698 27.0494C32.6763 27.0276 33.3605 26.7745 33.9715 26.4191C34.5824 26.0636 35.1281 25.6076 35.6643 25.147C35.8234 25.0104 35.9844 24.8702 36.0945 24.6917C36.1551 24.5934 36.1991 24.4687 36.1494 24.3644C36.1252 24.3137 36.0872 24.28 36.0408 24.2597C35.9158 24.2048 35.7304 24.247 35.5939 24.3129C34.9936 24.6031 34.4703 25.0522 33.8377 25.2625C33.6992 25.3086 33.5314 25.3374 33.42 25.2432C33.3275 25.165 33.3098 25.0308 33.3056 24.9097C33.2919 24.5217 33.3491 24.1349 33.4105 23.7515C33.5919 22.6199 34.0055 19.8175 34.4181 16.8931C35.0043 16.7478 35.5817 16.5654 36.0699 16.1971C36.278 16.0401 36.6531 15.7192 36.4785 15.481C36.4609 15.4571 36.4379 15.4341 36.4085 15.412C36.1913 15.2492 35.6285 15.4033 35.3901 15.4558C35.1251 15.5141 34.8601 15.5724 34.5951 15.6304C34.9234 13.2721 35.4353 10.8283 35.4814 8.44355C35.4847 8.27585 35.4825 8.10159 35.4103 7.95025C35.3131 7.74687 35.1011 7.6174 34.8819 7.56526C34.2808 7.42225 33.6474 7.81096 33.3406 8.34765C32.8129 9.27095 32.8981 10.7994 32.7675 11.8539C32.7124 12.2981 32.4799 16.0945 32.2501 16.1505C31.4566 16.3439 30.6349 16.6332 30.1815 17.3449C30.1422 17.4066 30.1049 17.4749 30.1076 17.5481C30.1117 17.6641 30.2187 17.7556 30.3318 17.7815Z" fill="var(--fill-0, #BBB9BA)"/>
<path id="Vector_9" d="M37.8111 17.781C37.9242 17.8069 38.0421 17.7824 38.1555 17.7578C38.6293 17.655 39.1024 17.5488 39.575 17.4402C39.3407 19.3912 39.1295 21.103 39.0176 21.7921C38.8732 22.6807 38.7437 23.573 38.6786 24.4714C38.6455 24.9295 38.4819 25.4481 38.4863 25.9074C38.4894 26.2332 38.5577 26.6121 38.8129 26.8687C38.9729 27.0296 39.2223 27.0559 39.4491 27.0489C40.1555 27.0271 40.8398 26.774 41.4508 26.4185C42.0617 26.0631 42.6074 25.6071 43.1436 25.1465C43.3026 25.0099 43.4637 24.8697 43.5738 24.6912C43.6344 24.5929 43.6784 24.4681 43.6287 24.3639C43.6045 24.3132 43.5665 24.2795 43.5201 24.2591C43.3951 24.2043 43.2096 24.2465 43.0732 24.3124C42.4729 24.6026 41.9496 25.0517 41.3169 25.262C41.1785 25.3081 41.0107 25.3369 40.8993 25.2427C40.8068 25.1645 40.7891 25.0303 40.7848 24.9092C40.7712 24.5212 40.8284 24.1344 40.8898 23.751C41.0712 22.6194 41.4848 19.817 41.8974 16.8925C42.4836 16.7472 43.061 16.5649 43.5492 16.1966C43.7572 16.0396 44.1323 15.7187 43.9577 15.4805C43.9402 15.4566 43.9171 15.4335 43.8878 15.4115C43.6705 15.2486 43.1078 15.4028 42.8694 15.4553C42.6044 15.5136 42.3394 15.5719 42.0744 15.6299C42.4042 13.2606 42.9335 10.7929 42.9615 8.39605C42.9634 8.23451 42.9597 8.06618 42.8863 7.92228C42.7796 7.71297 42.5439 7.59753 42.312 7.56088C41.7732 7.47575 41.2142 7.75878 40.8955 8.2017C40.3122 9.01231 40.4043 10.5904 40.2816 11.5721C40.2219 12.0501 39.9742 16.0903 39.7293 16.15C38.9359 16.3434 38.1142 16.6327 37.6608 17.3443C37.6214 17.4061 37.5842 17.4743 37.5868 17.5476C37.591 17.6636 37.6979 17.7551 37.8111 17.781Z" fill="var(--fill-0, #BBB9BA)"/>
<path id="Vector_10" d="M89.9267 0.970609C89.5412 0.41175 88.7744 0.167305 88.0503 0.372451C87.3615 0.567624 86.7666 1.27043 86.8339 1.98107C86.8859 2.52948 86.6562 2.87463 86.3032 3.19708C85.0821 4.31279 83.898 5.45986 82.7942 6.69835C81.2326 8.45044 79.6027 10.1393 77.9968 11.8504C77.8782 11.9768 77.7574 12.1012 77.6345 12.2235C77.5564 12.3011 77.3232 12.6113 77.2159 12.6197C77.1271 12.6266 76.9123 12.3717 76.842 12.3096C76.7208 12.2026 76.6005 12.0945 76.4875 11.9788C76.026 11.5059 75.4578 11.235 74.8358 11.0499C73.9399 10.7832 73.0031 10.6781 72.0699 10.7124C71.5989 10.7298 71.1295 10.7816 70.6649 10.86C70.2619 10.928 69.9304 11.0069 69.5829 11.2256C69.2332 11.4456 68.8162 11.4117 68.421 11.3829C68.1899 11.366 67.9547 11.3743 67.7235 11.395C67.3928 11.4245 67.0366 11.4942 66.7745 11.7127C66.533 11.9139 66.4451 12.2079 66.3749 12.5022C66.2956 12.8345 65.8651 13.0738 65.6102 13.2927C65.5075 13.381 65.3776 13.5448 65.2546 13.5987C65.1231 13.6564 65.0632 13.5429 64.959 13.4389C64.5515 13.0317 64.2234 12.5534 63.8877 12.0877C62.8327 10.6242 61.8086 9.13772 60.7281 7.69341C59.6734 6.28357 58.5563 4.92065 57.4824 3.52489C56.9815 2.87381 56.4449 2.24826 56.3274 1.36864C56.2519 0.803651 55.7755 0.457956 55.32 0.189915C54.4512 -0.32127 53.2743 0.256275 53.0904 1.24453C52.8975 2.28082 53.9098 3.41602 54.9754 3.53864C55.3399 3.58059 56.7564 5.61836 58.4687 7.80142C60.6636 10.5998 63.2426 13.7389 63.628 14.3067C63.7029 14.4172 63.8786 14.6375 63.8644 14.7785C63.8588 14.8333 63.8349 14.8842 63.8113 14.9339C63.6727 15.2258 63.5136 15.5123 63.4443 15.8306C63.2814 16.5794 63.1505 17.329 63.1943 18.1146C63.2388 18.9112 62.8815 19.6161 62.8495 20.401C62.8071 21.4414 62.9447 22.5848 63.2591 23.5789C63.5108 24.3745 63.8846 25.1318 64.368 25.8122C64.5947 26.1312 64.8455 26.4801 65.1427 26.7367C65.4427 26.9957 65.8324 27.1304 66.1969 27.2697C66.4093 27.3508 66.5147 27.4366 66.5832 27.6577C66.6406 27.8429 66.7002 28.0291 66.7946 28.1986C67.0818 28.7146 67.6446 28.7978 68.1836 28.6917C68.2793 28.6729 68.4059 28.6636 68.4806 28.7102C68.812 28.9171 69.1511 28.9526 69.5223 28.8437C69.6122 28.8173 69.7527 28.8284 69.8203 28.8834C70.2062 29.1972 70.5941 29.1422 71.0132 28.9597C71.1798 28.8872 71.3836 28.9048 71.567 28.8651C71.7478 28.8261 71.9567 28.8105 72.0962 28.7074C72.2818 28.5702 72.6342 28.8148 72.8643 28.7307C73.1114 28.6404 73.2344 28.095 73.4079 28.1578C74.0098 28.3759 74.3291 27.8065 74.8306 27.7408C74.8398 28.0505 74.7254 28.4274 74.6786 28.6599C74.5148 29.4752 74.2928 30.2794 74.0667 31.0792C73.5676 32.8441 73.0085 34.591 72.4626 36.3417C72.4031 36.5326 72.3437 36.7237 72.2854 36.915C71.6403 39.0305 70.8732 41.2013 69.1178 42.6604C67.0356 44.3911 64.2745 45.0267 61.6842 45.5532C51.5065 47.6223 40.2451 49.8892 29.9653 47.1767C28.7943 46.8677 27.6464 46.4666 26.5531 45.9437C25.151 45.273 23.8048 44.3652 22.9762 43.0497C22.0663 41.6053 21.8761 39.7551 22.3657 38.1196C23.7901 33.3616 29.5325 31.891 33.8818 32.9266C35.7165 33.3634 37.4154 34.2041 38.7087 35.5929C39.94 36.9153 40.8591 38.5106 42.2158 39.7195C43.9149 41.2336 46.1917 41.9835 48.4589 42.1758C50.7262 42.368 53.0047 42.0415 55.2416 41.6248C57.1693 41.2657 59.1694 40.7985 60.6562 39.5148C60.6966 39.48 60.7282 39.4354 60.7445 39.3847C60.8356 39.1014 60.3721 39.0062 60.0824 39.0797C57.4291 39.7531 54.7617 40.4949 52.0254 40.5692C49.2892 40.6436 46.422 39.9743 44.3876 38.142C42.7504 36.6674 41.766 34.5571 40.0548 33.1691C37.7766 31.3214 34.5976 31.0616 31.6781 31.3401C28.2139 31.6704 24.5998 32.764 22.128 35.3458C20.2532 37.3041 19.2385 40.2257 20.0449 42.8145C20.5784 44.527 21.8456 45.9463 23.3484 46.9246C24.8512 47.9028 26.5823 48.4757 28.3268 48.8894C38.1781 51.2254 48.4779 49.4261 58.2585 47.6133C64.3358 46.4869 69.696 45.6628 72.7955 39.7803C74.2199 37.077 75.6334 33.0939 76.348 30.1228C76.5575 29.2517 76.785 28.3852 77.0214 27.5211C77.1397 27.0889 77.2601 26.6574 77.3817 26.2262C77.5223 25.7277 77.6584 24.9168 78.1168 24.6039C78.3069 24.4742 78.4489 24.2749 78.6166 24.1113C79.1675 23.574 79.6374 22.9499 79.9565 22.2473C80.1152 21.8981 80.2359 21.532 80.3165 21.1569C80.3994 20.7707 80.4548 20.2699 80.4498 19.8748C80.4478 19.7179 80.4435 19.5581 80.4024 19.4066C80.1733 18.5634 80.4691 18.424 80.469 17.9327C80.4689 17.8208 80.4592 17.7089 80.4397 17.5987C80.3621 17.1577 80.1306 16.7623 79.8465 16.4225C79.7948 16.3606 79.7352 16.268 79.7444 16.1982C79.8032 15.7516 79.5426 15.4459 79.2402 15.2237C78.8004 14.9005 78.5635 14.4092 78.3187 13.9375C78.2921 13.8864 78.2649 13.8324 78.2664 13.7749C78.27 13.6304 78.4427 13.5145 78.5342 13.4211C79.5458 12.3898 80.5624 11.3635 81.5715 10.3298C82.0022 9.88869 82.4141 9.42923 82.8425 8.98583C83.5662 8.23686 84.2921 7.49 85.0245 6.74957C86.011 5.75227 86.9988 4.75617 88.0013 3.7752C88.1423 3.63721 88.3613 3.54723 88.5591 3.5051C89.1605 3.377 89.5836 2.99996 89.9361 2.54134C90.2511 2.13174 90.2226 1.39965 89.9267 0.970609ZM34.8694 31.7083C37.4181 31.9901 39.7398 33.1624 40.8914 34.8756C42.1539 36.7538 43.7036 38.7015 45.6918 39.7815C46.8129 40.3906 48.8231 40.9257 50.0964 41.0037C50.8194 41.048 53.8126 41.1189 58.4696 40.0739C58.5812 40.0489 58.6403 40.2015 58.5405 40.2575C56.187 41.5761 50.2104 41.8331 49.6319 41.7955C47.1468 41.6342 44.5167 40.8313 42.6125 39.2256C41.4306 38.2288 40.5944 36.8941 39.6018 35.7086C38.8612 34.824 38.6375 34.5313 36.8653 33.4985C36.3264 33.1844 35.3935 32.6933 33.6823 32.328C32.7434 32.1275 30.4132 32.2247 30.1895 32.0526C29.7741 31.7328 33.6407 31.5724 34.8694 31.7083ZM43.274 49.2398C43.2126 49.3024 42.8432 49.2626 42.7512 49.2663C42.553 49.2745 42.3548 49.2822 42.1567 49.2896C41.3931 49.3181 40.6293 49.3405 39.8653 49.3526C39.8094 49.3535 39.7534 49.3544 39.6974 49.3552C36.7119 49.3969 33.7099 49.2801 30.7683 48.7373C29.5906 48.5199 28.4251 48.2341 27.2853 47.8661C25.7453 47.369 24.2325 46.7093 22.9818 45.6822C21.7312 44.655 20.7569 43.2248 20.5223 41.6231C20.2987 40.0957 20.755 38.5399 21.4409 37.1572C21.7932 36.447 22.2486 35.7284 22.9677 35.3952C22.8606 36.0382 22.3977 36.5525 22.0584 37.109C20.805 39.1651 21.2969 41.9597 22.7681 43.8659C24.2392 45.7722 26.5064 46.9095 28.8126 47.6C31.7498 48.4794 34.8247 48.7252 37.873 48.8675C39.409 48.9393 40.9462 48.9851 42.4815 49.0723C42.5938 49.0787 43.428 49.0829 43.274 49.2398ZM69.9327 11.707C69.9827 11.579 70.1332 11.5271 70.267 11.4959C70.3396 11.479 70.4126 11.4636 70.4859 11.4497C70.9654 11.3586 71.4558 11.3292 71.9443 11.3168C73.0573 11.2886 74.2062 11.3554 75.2137 11.8296C75.8884 12.1471 76.4653 12.633 76.9846 13.1616C77.2475 13.4292 77.4974 13.7092 77.7446 13.9913C77.9164 14.1874 78.0562 14.3972 78.0883 14.6622C78.0944 14.7127 78.0953 14.7686 78.0641 14.8088C77.9217 14.9921 77.4953 14.3131 77.4044 14.2287C77.173 14.0137 76.9316 13.8092 76.6804 13.6176C76.1792 13.2352 75.638 12.9039 75.0629 12.6449C73.9194 12.13 72.6305 11.9069 71.3933 12.1117C70.9931 12.178 70.5679 12.2854 70.1948 12.1261C70.0268 12.0545 69.8662 11.8772 69.9327 11.707ZM73.986 14.2203C73.8888 14.2182 73.789 14.2238 73.6903 14.2242C73.5095 14.2248 73.314 14.1695 73.1629 14.0572C73.0757 13.9924 72.7575 13.6539 72.9358 13.5563C73.0847 13.4748 73.4929 13.5835 73.6574 13.604C73.9748 13.6436 74.29 13.704 74.597 13.7943C74.9229 13.8901 75.2435 14.0135 75.5382 14.1837C75.6409 14.243 76.3677 14.7192 76.2509 14.8576C76.2342 14.8774 76.2077 14.8854 76.1825 14.8915C75.7656 14.9912 75.4286 14.7517 75.0837 14.5579C74.7465 14.3685 74.3726 14.2288 73.986 14.2203ZM74.9037 15.2936C74.9037 15.32 74.8925 15.3441 74.8671 15.3646C74.7456 15.4629 74.5852 15.5119 74.4295 15.4983C74.1909 15.4775 73.9235 15.283 73.883 15.0339C73.8369 14.751 74.1025 14.7655 74.2939 14.8112C74.4068 14.8381 74.9039 15.1176 74.9037 15.2936ZM75.8309 13.9224C74.9547 13.4057 73.9201 13.1575 72.9022 13.2077C72.7009 13.2176 72.4979 13.2385 72.2987 13.2076C72.0995 13.1767 71.8995 13.0856 71.7879 12.9177C71.7429 12.8501 71.7134 12.7688 71.7227 12.6881C71.7434 12.5075 71.9382 12.4037 72.1143 12.3595C72.3855 12.2915 72.6703 12.2903 72.9472 12.3285C73.5693 12.4144 74.1452 12.6926 74.7241 12.9361C75.194 13.1337 75.6952 13.2928 76.1425 13.5515C76.3687 13.6823 76.5858 13.8389 76.7535 14.0413C76.8847 14.1996 77.0008 14.3626 77.0651 14.5603C77.0787 14.6022 77.0893 14.651 77.0654 14.688C77.0427 14.7231 76.9948 14.7346 76.9538 14.7265C76.7568 14.6874 76.5865 14.4666 76.4378 14.3451C76.2465 14.1887 76.0434 14.0476 75.8309 13.9224ZM67.6471 12.414C67.6672 12.3823 67.7011 12.3624 67.7344 12.3452C68.2703 12.0686 68.9227 12.1991 69.4913 12.4001C71.193 13.0017 72.6507 14.1716 73.651 15.6684C73.7034 15.7466 73.7568 15.8354 73.7424 15.9284C73.7417 15.9329 73.7409 15.9373 73.7399 15.9417C73.705 16.0946 73.4886 16.1492 73.3451 16.0777C73.1976 16.0043 73.1098 15.8518 73.0212 15.7127C72.6129 15.0715 72.0282 14.5655 71.4453 14.0778C70.7953 13.5339 70.0924 12.9802 69.2541 12.8569C68.7788 12.787 68.2771 12.8596 67.8283 12.6881C67.7695 12.6656 67.7102 12.6376 67.6698 12.5892C67.6295 12.5408 67.6134 12.4672 67.6471 12.414ZM66.1011 13.3855C66.1651 13.3295 66.2497 13.3038 66.3326 13.2851C66.4345 13.2621 66.5379 13.2475 66.6419 13.2376C66.7461 13.2277 66.8508 13.2225 66.9553 13.2186C67.8681 13.1847 68.7938 13.2444 69.6663 13.5148C71.0182 13.9337 72.1531 14.9228 72.6982 16.2381C72.7554 16.3761 72.7906 16.5677 72.6644 16.6475C72.592 16.6933 72.4965 16.6767 72.4176 16.6436C72.168 16.5391 72.005 16.3025 71.8281 16.0978C71.2995 15.4861 70.564 15.098 69.8399 14.7388C69.1977 14.4202 68.5394 14.1096 67.8327 13.9893C67.3049 13.8995 66.7577 13.9174 66.2449 13.7637C66.1584 13.7377 66.0636 13.6982 66.0303 13.6141C65.999 13.535 66.0371 13.4415 66.1011 13.3855ZM65.4012 14.338C65.7324 14.1721 66.1184 14.1584 66.4882 14.1802C66.8921 14.204 67.2927 14.2661 67.6879 14.354C67.924 14.4066 68.1583 14.4684 68.3903 14.5367C69.0515 14.7315 69.7007 14.9847 70.2942 15.3385C70.8539 15.672 71.5177 16.1504 71.8095 16.7531C71.8404 16.817 71.8672 16.8892 71.8481 16.9576C71.8162 17.0717 71.6665 17.1158 71.5544 17.0773C71.4424 17.0388 71.3604 16.9444 71.2827 16.855C70.9207 16.4387 70.5281 16.0437 70.0714 15.7344C69.4245 15.2962 68.6656 15.0427 67.8948 14.9156C67.1241 14.7885 66.3383 14.7836 65.5576 14.8105C65.4156 14.8154 65.2362 14.7975 65.1895 14.6632C65.143 14.5294 65.2746 14.4015 65.4012 14.338ZM65.4804 15.4018C65.5857 15.3858 65.6913 15.3713 65.7972 15.3586C66.6228 15.2596 67.4641 15.2656 68.2732 15.4514C69.4702 15.7262 70.7872 16.4637 71.195 17.6964C71.22 17.7721 71.2417 17.8518 71.2299 17.9306C71.2181 18.0094 71.1645 18.0871 71.0866 18.1034C71.0249 18.1163 70.9623 18.0898 70.9066 18.0605C70.425 17.8072 70.1134 17.3183 69.6707 17.0019C69.0253 16.5406 68.1827 16.4935 67.3907 16.4501C66.6555 16.4097 65.9208 16.3582 65.1871 16.2956C64.9921 16.279 64.7965 16.2615 64.6058 16.2179C64.5098 16.1959 64.4064 16.1607 64.3566 16.0757C64.3061 15.9894 64.3293 15.8745 64.3897 15.7948C64.45 15.7151 64.5406 15.6644 64.6318 15.6233C64.8991 15.5026 65.1905 15.4458 65.4804 15.4018ZM55.7178 2.4889C55.7034 2.51892 55.6876 2.54856 55.6704 2.57779C55.5686 2.75085 55.4097 2.89577 55.2173 2.95279C54.9225 3.04012 54.6034 2.91072 54.3589 2.72432C54.101 2.52768 53.892 2.2622 53.7827 1.95672C53.6734 1.65125 53.6679 1.30577 53.7884 1.00453C53.8547 0.838794 53.9651 0.681807 54.1264 0.605539C54.6186 0.372934 55.2749 0.766871 55.562 1.15669C55.8469 1.54364 55.926 2.05501 55.7178 2.4889ZM63.7714 13.7847C63.548 13.5043 63.3287 13.2206 63.1095 12.937C62.4062 12.027 61.7093 11.112 61.0131 10.1966C60.1963 9.12252 59.3816 8.04685 58.5684 6.97C57.9088 6.0965 57.2498 5.22251 56.594 4.34615C56.426 4.12165 56.2587 3.8966 56.0921 3.67101C56.0091 3.55859 55.9465 3.47533 55.9248 3.39251C55.8998 3.29701 55.9292 3.20208 56.0448 3.06372C56.3643 2.68271 57.6127 4.8118 57.8501 5.13541C58.137 5.52641 58.4443 5.90239 58.7417 6.28573C59.8336 7.69339 60.9253 9.10127 62.017 10.5092C62.7727 11.4838 63.5288 12.4582 64.2834 13.4338C64.4897 13.7005 64.6127 14.2191 64.0392 14.1025C63.9551 14.0852 63.8197 13.8454 63.7714 13.7847ZM63.7819 16.9167C63.7997 16.8718 63.8382 16.8388 63.8772 16.8104C63.9952 16.7246 64.1281 16.6658 64.268 16.6251C64.4367 16.576 64.6156 16.5533 64.7911 16.5413C65.6055 16.4853 66.4188 16.6238 67.2277 16.7339C67.7478 16.8046 68.2728 16.8645 68.7735 17.0218C69.4234 17.2259 70.0306 17.6269 70.3556 18.2419C70.3827 18.293 70.4081 18.3492 70.4003 18.4065C70.3831 18.532 70.2227 18.5819 70.0977 18.5618C69.8478 18.5215 69.6564 18.3279 69.4551 18.1743C69.0414 17.8587 68.5355 17.6907 68.0328 17.5564C67.0041 17.2817 65.9321 17.1254 64.8728 17.2321C64.5758 17.2621 64.266 17.311 63.9863 17.2066C63.8625 17.1604 63.7333 17.0396 63.7819 16.9167ZM70.0763 19.3907C70.0618 19.7222 69.8128 20.0957 69.5478 20.0781C69.2828 20.0605 69.2925 19.1792 69.4949 18.9677C69.6973 18.7562 70.0907 19.0592 70.0763 19.3907ZM67.397 23.0553C66.4862 21.7949 66.0373 20.2241 66.0436 18.6679C66.0444 18.4783 66.056 18.2757 66.1689 18.1235C66.2608 17.9996 66.4573 17.9228 66.6004 18.0027C66.7752 18.1004 66.7904 18.425 66.8162 18.6052C66.8879 19.1073 66.8538 19.6185 66.9356 20.1196C67.0311 20.7046 67.2827 21.2545 67.591 21.7607C67.7307 21.9899 67.8853 22.2184 67.9427 22.4806C68.0001 22.7429 67.9341 23.0538 67.7096 23.2009C67.6727 23.2251 67.6294 23.2447 67.5857 23.238C67.53 23.2294 67.4901 23.1812 67.4564 23.136C67.4364 23.1092 67.4166 23.0823 67.397 23.0553ZM67.268 24.2521C67.1664 24.281 67.0625 24.2189 66.9804 24.1525C66.8463 24.044 66.7287 23.9164 66.6168 23.785C65.2786 22.2125 64.7438 19.9892 65.2205 17.9796C65.2347 17.9202 65.2922 17.8137 65.3683 17.8467C65.4323 17.8744 65.4281 18.0696 65.4358 18.1264C65.4691 18.3705 65.4927 18.6159 65.5146 18.8613C65.5563 19.3287 65.5898 19.7975 65.6663 20.2609C65.8649 21.4641 66.3611 22.6268 67.1487 23.5567C67.1683 23.5798 67.188 23.6027 67.208 23.6255C67.2911 23.7207 67.38 23.8185 67.4109 23.941C67.4417 24.0635 67.3895 24.2175 67.268 24.2521ZM67.7393 21.3736C67.2751 20.4707 67.1297 19.4051 67.3347 18.4092C67.3638 18.2677 67.4047 18.1188 67.512 18.022C67.7897 17.7713 68.0312 18.1375 67.9718 18.4049C67.9431 18.5339 67.8786 18.6517 67.8352 18.7765C67.6948 19.1807 67.7858 19.6323 67.9576 20.0241C68.1294 20.416 68.3777 20.7693 68.57 21.1515C68.633 21.2766 68.6913 21.4156 68.6633 21.5529C68.6362 21.6854 68.5343 21.788 68.4361 21.8811C68.3824 21.9321 68.3219 21.9856 68.248 21.9901C68.1412 21.9966 68.059 21.9006 67.999 21.8119C67.9036 21.6711 67.817 21.5246 67.7393 21.3736ZM68.621 20.5696C68.4077 20.3348 68.2518 20.0475 68.1746 19.7396C68.0674 19.3127 68.1123 18.8491 68.2993 18.4506C68.3336 18.3774 68.3748 18.3038 68.4408 18.2571C68.8641 17.9571 68.7348 19.0538 68.7275 19.2096C68.7088 19.6083 68.7931 20.0115 68.9699 20.3693C69.028 20.4869 69.0972 20.604 69.1089 20.7346C69.1126 20.7757 69.1081 20.8223 69.077 20.8496C69.0261 20.8941 68.9473 20.8572 68.893 20.8168C68.7946 20.7435 68.7035 20.6605 68.621 20.5696ZM66.4897 26.8887C66.4713 26.8929 66.4522 26.8951 66.4326 26.8949C66.3669 26.8946 66.3042 26.8694 66.2446 26.8418C65.8955 26.6798 65.6 26.4207 65.3365 26.1401C64.0804 24.8026 63.4845 22.9447 63.3885 21.112C63.3859 21.0618 63.3848 21.0072 63.414 20.9662C63.5643 20.7555 63.704 21.3919 63.7252 21.4652C63.8031 21.7346 63.8726 22.0065 63.9478 22.2767C64.0992 22.8204 64.274 23.3655 64.5768 23.8463C65.0663 24.6235 65.8453 25.168 66.4432 25.8652C66.602 26.0503 66.755 26.2663 66.7523 26.5102C66.7505 26.6758 66.6444 26.8536 66.4897 26.8887ZM66.8526 25.3449C66.8146 25.3794 66.7733 25.4133 66.7237 25.4263C66.609 25.4564 66.4999 25.3685 66.4137 25.287C66.3619 25.238 66.3101 25.189 66.2583 25.1399C65.7434 24.651 65.2354 24.1482 64.8522 23.5517C64.2664 22.6398 64.0035 21.5537 63.9013 20.4746C63.8252 19.6707 63.8414 18.8232 64.2136 18.1067C64.2864 17.9666 64.5079 17.7339 64.6124 17.944C64.7161 18.1524 64.5594 18.5355 64.5161 18.7449C64.4035 19.2893 64.449 19.8544 64.5397 20.4029C64.8055 22.0095 65.5032 23.6064 66.7745 24.6234C66.8968 24.7212 67.0351 24.8333 67.0452 24.9896C67.0543 25.1288 66.9559 25.2511 66.8526 25.3449ZM72.0571 27.2981C72.036 27.5394 72.0426 27.8207 71.9738 28.0684C71.9409 28.1871 71.8906 28.2981 71.8116 28.3932C71.7632 28.4515 71.6885 28.5027 71.6161 28.4804C71.5235 28.4518 71.4902 28.332 71.4798 28.2471C71.4406 27.9257 71.4964 27.6008 71.5613 27.2836C71.5998 27.0951 71.6434 26.9029 71.7474 26.7411C71.7717 26.7033 71.8009 26.6661 71.8418 26.6476C72.0991 26.5313 72.0669 27.1861 72.0571 27.2981ZM73.0343 27.1036C73.0275 27.2331 73.0159 27.3739 72.9902 27.5125C72.9467 27.7472 72.8625 27.9759 72.692 28.1332C72.6772 28.1468 72.6587 28.1606 72.6391 28.1565C72.622 28.1528 72.6109 28.1368 72.6019 28.1218C72.4361 27.8452 72.461 27.5059 72.4419 27.195C72.396 26.4494 72.2255 25.5924 72.3786 24.8546C72.4153 24.6782 72.4977 24.5053 72.6389 24.3935C72.6598 24.3769 72.6847 24.3611 72.7111 24.365C72.7405 24.3695 72.7604 24.3966 72.7753 24.4223C72.9912 24.7948 72.9777 25.352 73.0102 25.7727C73.0445 26.2153 73.0577 26.6601 73.0343 27.1036ZM74.1704 26.0433C74.1337 26.5736 74.1987 27.1883 73.8958 27.6559C73.8768 27.6853 73.8544 27.7153 73.8215 27.7276C73.7242 27.7638 73.6438 27.5391 73.6163 27.476C73.5657 27.3603 73.5257 27.2399 73.4969 27.1169C73.4387 26.8678 73.4499 26.6207 73.4381 26.3676C73.4117 25.7993 73.2979 25.2384 73.284 24.6692C73.2757 24.3275 73.2972 23.986 73.3286 23.6458C73.3499 23.4154 73.3333 23.1706 73.4135 22.9497C73.4664 22.8043 73.6898 22.5242 73.8395 22.7372C74.1176 23.1325 74.1133 23.784 74.1537 24.2486C74.2056 24.8452 74.2117 25.4458 74.1704 26.0433ZM74.7883 27.2912C74.6778 27.213 74.6192 27.0798 74.5898 26.9477C74.493 26.5127 74.616 26.0195 74.6317 25.5783C74.6489 25.0932 74.6357 24.6068 74.5902 24.1234C74.5544 23.7433 74.4989 23.3651 74.4237 22.9907C74.387 22.8075 74.3464 22.6248 74.3003 22.4437C74.255 22.2664 74.1355 22.0467 74.2391 21.8649C74.4214 21.5448 74.5802 22.1628 74.6232 22.2697C74.6973 22.4539 74.7658 22.6417 74.7974 22.8386C74.9352 23.6963 75.0143 24.5639 75.1025 25.429C75.1369 25.7658 75.1511 26.104 75.1746 26.4416C75.1913 26.6816 75.3224 27.0171 75.1742 27.2377C75.1258 27.3097 75.0487 27.3447 74.9691 27.3466C74.9061 27.3481 74.8416 27.3289 74.7883 27.2912ZM76.0895 26.4904C76.0474 26.5683 75.9858 26.6369 75.8973 26.6916C75.6217 26.8619 75.5424 26.3549 75.5291 26.1879C75.4618 25.3473 75.4557 24.4991 75.3253 23.6645C75.2423 23.1339 75.0634 22.6253 74.9454 22.1025C74.8952 21.8802 74.812 21.6374 74.8409 21.4066C74.8636 21.2256 75.1754 20.8523 75.3248 21.1315C75.3864 21.2467 75.4179 21.3752 75.4481 21.5023C75.6536 22.3684 75.8484 23.2383 75.9831 24.1187C76.0548 24.5867 76.1075 25.0579 76.1302 25.5309C76.1445 25.8292 76.2372 26.2169 76.0895 26.4904ZM76.1377 28.3865C76.0149 28.8021 75.8749 29.2129 75.732 29.6213C75.5531 30.1328 75.3652 30.6516 75.2009 31.1679C75.1512 31.3391 75.1027 31.5112 75.0537 31.687C75.0247 31.7913 74.9951 31.8957 74.9639 31.9997C74.9095 32.2249 74.861 32.4512 74.8087 32.6774C74.7243 33.0415 74.6245 33.4022 74.5146 33.7594C74.082 35.1648 73.4748 36.5073 72.9134 37.8638C72.8855 37.9312 72.8057 38.0902 72.7038 38.0531C72.6032 38.0165 72.6392 37.8458 72.6649 37.7733C72.9621 36.9328 73.2366 36.0846 73.5007 35.2332C73.8292 34.1738 74.1418 33.1096 74.4652 32.0487C74.7108 30.9931 75.083 29.9668 75.381 28.9261C75.3872 28.9043 75.4006 28.8742 75.4189 28.8443C75.4204 28.8279 75.4229 28.8129 75.4259 28.8005C75.4625 28.6463 75.5038 28.4935 75.548 28.3415C75.6314 28.0548 75.6369 27.745 75.7311 27.4626C75.7741 27.3338 75.8467 27.2111 75.9566 27.1313C76.0316 27.0768 76.1203 27.0447 76.2087 27.0164C76.2533 27.0021 76.2994 26.9885 76.3461 26.9917C76.4164 26.9966 76.4822 27.0431 76.5104 27.1078C76.5504 27.1995 76.496 27.304 76.4683 27.3927C76.3643 27.7261 76.2526 28.0568 76.1377 28.3865ZM76.8313 25.7142C76.7546 25.8577 76.6883 25.8719 76.6364 25.8278C76.5687 25.7703 76.5254 25.6138 76.515 25.5156C76.492 25.2967 76.5224 25.0727 76.4949 24.8552C76.4502 24.5029 76.4026 24.1509 76.3427 23.8009C76.2183 23.073 76.0482 22.353 75.9007 21.629C75.8517 21.3886 75.8201 21.1445 75.7617 20.9061C75.7234 20.749 75.5823 20.5113 75.7299 20.3762C75.7873 20.3236 75.8629 20.2965 75.9364 20.2707C76.0165 20.2425 76.1016 20.2139 76.1847 20.2313C76.291 20.2535 76.3693 20.347 76.4121 20.4468C76.4931 20.6354 76.5041 20.8443 76.565 21.0383C76.6963 21.4567 76.7822 21.888 76.8405 22.3222C76.9289 22.9812 76.9539 23.6462 76.9857 24.3096C77.009 24.7948 77.0702 25.2677 76.8313 25.7142ZM76.7602 19.5724C76.8025 19.4521 76.9657 19.3219 77.0869 19.2908C77.1429 19.2763 77.1855 19.2819 77.2167 19.3006C77.5478 19.4999 76.936 20.11 76.7967 19.9198C76.7421 19.8452 76.73 19.6584 76.7602 19.5724ZM77.2733 21.2543C77.2409 21.2781 77.1994 21.2944 77.1587 21.2987C77.1046 21.3046 77.052 21.2895 77.0246 21.2436C77.0116 21.2218 77.0066 21.1962 77.0032 21.171C76.9508 20.7723 77.3018 20.5923 77.487 20.2975C77.7423 19.8909 77.842 19.4449 77.9776 18.9917C78.0005 18.9151 78.0279 18.8363 78.0848 18.7802C78.3044 18.5641 78.6641 18.8417 78.5991 19.111C78.4048 19.9169 77.9527 20.753 77.2733 21.2543ZM77.6728 21.5952C78.3395 20.854 78.7578 19.9968 78.8934 19.0104C78.9147 18.8551 79.2275 18.5275 79.3855 18.7282C79.3995 18.746 79.4062 18.7684 79.4115 18.7905C79.5051 19.1817 79.2688 19.553 79.125 19.9001C79.0064 20.1865 78.8897 20.4733 78.7544 20.7525C78.4748 21.3295 78.1287 21.8789 77.6724 22.333C77.6197 22.3855 77.5604 22.439 77.4868 22.4491C77.4712 22.4513 77.4543 22.4511 77.4409 22.4429C77.4246 22.4328 77.417 22.4134 77.4114 22.395C77.317 22.0883 77.4735 21.8169 77.6728 21.5952ZM79.9217 20.465C79.8708 21.1813 79.5453 21.8954 79.1801 22.5032C78.8252 23.094 78.3676 23.5819 77.844 24.0247C77.8141 24.0499 77.7831 24.0758 77.7458 24.0875C77.5856 24.1376 77.4346 23.939 77.4229 23.7986C77.4151 23.7052 77.4468 23.6132 77.484 23.5272C77.7054 23.0159 78.1124 22.6165 78.4345 22.1707C78.7739 21.7011 79.0632 21.1972 79.3204 20.6786C79.3725 20.5734 79.6799 19.9657 79.8258 20.0327C79.8653 20.0509 79.8857 20.0948 79.898 20.1365C79.9293 20.2423 79.9295 20.3548 79.9217 20.465ZM79.8119 17.5649C79.8642 17.6293 79.8875 17.7051 79.8868 17.7808C79.8856 17.9191 79.8047 18.0573 79.6755 18.1261C79.4776 18.2314 79.2396 18.2046 79.0156 18.2005C77.9518 18.1809 76.9658 18.7312 76.0844 19.3274C74.9115 20.1207 73.7972 21.0445 73.0161 22.2259C71.8283 24.0226 71.5137 26.2371 70.8262 28.2785C70.7532 28.4952 70.6155 28.753 70.3873 28.7376C70.1444 28.7212 70.0509 28.4145 70.0387 28.1712C69.9913 27.2191 70.2312 26.2742 70.557 25.3784C71.0261 24.0882 71.6744 22.8697 72.3911 21.6989C73.0944 20.5499 73.8951 19.413 75.0245 18.679C76.2236 17.8996 77.6797 17.646 79.0935 17.4312C79.3268 17.3958 79.6442 17.3585 79.8119 17.5649ZM79.4492 16.543C79.5752 16.6159 79.5843 16.6913 79.534 16.7605C79.4352 16.8966 79.1069 17.0085 78.9886 17.0293C77.558 17.2814 76.0806 17.5051 74.8302 18.2448C73.5895 18.9788 72.68 20.1613 71.9187 21.3858C70.7273 23.3021 69.8118 25.425 69.5322 27.6643C69.4925 27.9827 69.3703 28.3951 69.0496 28.3939C68.8814 28.3933 68.737 28.258 68.6743 28.1018C68.6116 27.9456 68.6143 27.7718 68.6219 27.6037C68.7118 25.6214 69.3678 23.6885 70.3564 21.9683C71.6502 19.717 73.5772 17.7661 75.9835 16.7923C76.7113 16.4978 77.4973 16.2979 78.2872 16.3197C78.6445 16.3296 79.1318 16.3593 79.4492 16.543ZM78.7018 15.4466C78.8724 15.5056 79.0244 15.584 79.0491 15.6823C79.1171 15.9527 78.5639 16.0085 78.4115 16.0095C76.8832 16.0202 75.3752 16.5053 74.0697 17.3005C72.7643 18.0957 71.6564 19.1929 70.76 20.4314C69.6262 21.9979 68.82 23.8007 68.4082 25.6904C68.2466 26.4316 68.1452 27.1847 67.9937 27.928C67.9705 28.0415 67.9425 28.1618 67.8597 28.2427C67.6976 28.4012 67.4024 28.3145 67.2741 28.1275C67.1459 27.9405 67.1403 27.6976 67.1501 27.471C67.216 25.9614 67.7608 24.5144 68.3951 23.1431C69.1941 21.4158 70.1571 19.7442 71.4507 18.3486C72.7444 16.9531 74.3912 15.8412 76.242 15.4009C76.8852 15.2479 77.5696 15.1809 78.2214 15.3219C78.3115 15.3414 78.5175 15.3827 78.7018 15.4466ZM87.4568 3.53946C87.4231 3.63553 87.3738 3.72007 87.3157 3.79804C87.2197 3.92675 87.0993 4.03761 86.9839 4.15316C85.2889 5.85067 83.5939 7.54818 81.8989 9.24571C81.1955 9.95017 80.492 10.6546 79.7886 11.3591L78.7462 12.4031C78.503 12.6466 78.2736 12.907 78.0002 13.1179C77.867 13.2206 77.7048 13.356 77.7296 13.0883C77.7453 12.9182 77.8755 12.7626 77.9858 12.6419C78.8101 11.8173 79.5697 10.9163 80.3636 10.062C81.1678 9.19663 81.9756 8.33464 82.787 7.47609C83.5416 6.67761 84.2993 5.88207 85.06 5.08949C85.4363 4.69747 85.8134 4.30616 86.1912 3.91558C86.3801 3.7203 86.5692 3.52517 86.7585 3.33027C86.8525 3.23344 86.9184 3.1136 87.0438 3.13283C87.1483 3.14884 87.3013 3.28761 87.3934 3.34282C87.4186 3.35791 87.4447 3.37397 87.4599 3.39912C87.4848 3.44059 87.4728 3.4938 87.4568 3.53946ZM89.0038 2.54403C88.6475 2.80823 88.2938 2.89873 87.8761 2.70053C87.4835 2.51428 87.3246 2.17159 87.4716 1.76321C87.598 1.41218 87.8743 1.12781 88.2184 0.98562C88.612 0.822986 88.9717 0.914494 89.3472 1.08914C89.4419 1.13316 89.5407 1.28303 89.5445 1.38814C89.5616 1.85789 89.4 2.25033 89.0038 2.54403Z" fill="var(--fill-0, #BBB9BA)"/>
</g>
</svg>
