<svg preserveAspectRatio="xMidYMid meet" overflow="visible" style="display: block;" viewBox="0 0 87.9456 50" fill="none" xmlns="http://www.w3.org/2000/svg">
<g id="Logo">
<path id="Vector" d="M83.4125 7.46149C83.812 7.45218 84.2129 7.47354 84.6111 7.44945C86.8974 7.31491 88.3355 5.37872 87.8521 3.14573C87.3647 0.899328 85.0224 -0.10331 82.8999 0.0591762C80.9864 0.206891 79.519 1.19908 78.3178 2.60646C77.8651 3.13641 77.536 3.11778 76.9395 2.82757C75.1233 1.94083 73.2524 1.23907 71.2444 2.32421C71.0219 2.44397 70.8369 2.35079 70.6278 2.2324C69.8088 1.76903 68.938 1.64518 67.9992 1.80903C67.0525 1.97424 66.1576 2.28171 65.2774 2.64395C64.9086 2.79576 64.6316 2.79303 64.3693 2.43488C64.0419 1.98878 63.6144 1.62927 63.1894 1.27362C61.3212 -0.288295 58.7792 -0.426919 56.7685 0.931373C55.5913 1.72631 54.9523 3.31367 55.2384 4.71968C55.542 6.21637 56.5194 7.04994 57.9361 7.4215C58.6644 7.61193 58.6737 7.58126 58.2676 8.23234C56.3328 11.323 55.2129 14.6547 55.2995 18.4431C55.197 19.8186 55.4486 21.2542 55.8429 22.6709C57.8843 30.0014 63.5767 34.1799 70.8592 34.2571C75.4265 34.3065 79.4 32.5659 82.4308 29.0571C86.118 24.7866 87.2047 19.8184 86.0607 14.3443C85.5707 11.9993 84.6226 9.83674 83.1926 7.89805C83.118 7.79692 82.998 7.68488 83.0608 7.54512C83.1303 7.38695 83.2914 7.46422 83.4125 7.46149ZM71.2964 6.34023C71.4907 5.3669 71.6932 4.39471 71.9102 3.42525C71.9516 3.24277 72.1138 3.11505 72.3218 3.20686C72.5574 3.31208 72.5988 3.5091 72.5536 3.75954C72.4804 4.16837 72.2193 4.61833 72.8531 4.87149C73.3392 5.06715 73.6653 5.02193 73.8344 4.48788C73.8689 4.38267 73.9155 4.28018 73.9341 4.17223C73.9955 3.82862 74.0021 3.32003 74.4893 3.47184C75.0406 3.64364 74.6811 4.08428 74.5531 4.40789C74.2561 5.16169 74.332 5.37872 74.9367 5.61688C75.3283 5.77141 75.5785 5.6596 75.7464 5.30395C75.8769 5.02307 75.9835 4.73127 76.1153 4.45175C76.2164 4.23859 76.3989 4.18019 76.6159 4.25745C76.8395 4.33608 76.8529 4.52516 76.7729 4.69423C76.3216 5.65165 75.8582 6.60384 75.396 7.55717C75.3135 7.72761 75.1642 7.76624 75.0045 7.68375C74.7661 7.55989 74.7368 7.37082 74.8327 7.12311C74.9272 6.87677 75.1749 6.6252 74.8368 6.35613C74.3307 5.95526 73.9966 6.05911 73.8248 6.70497C73.7475 6.99653 73.6782 7.31628 73.2789 7.17765C72.9235 7.0538 73.054 6.75815 73.1244 6.50112C73.3176 5.81277 73.1617 5.56098 72.5331 5.53711C72.2695 5.50507 72.1097 5.59302 72.087 5.88322C72.0725 6.07888 72.0484 6.28 71.9872 6.46522C71.93 6.63566 71.8141 6.78473 71.5891 6.72088C71.3989 6.66656 71.255 6.54657 71.2964 6.34023ZM70.813 8.45209C72.1845 8.42686 73.5255 9.00727 74.7438 9.73448C79.15 12.3658 80.6494 19.1009 77.7292 23.4992C74.7997 27.9122 68.8221 28.6565 65.0684 24.9266C63.2601 23.129 62.4238 20.8731 62.4638 18.2992C62.585 14.7279 63.8912 11.7743 66.9473 9.73153C68.1192 8.94887 69.472 8.47891 70.813 8.45209ZM65.2243 4.26018C65.6197 4.09905 65.661 4.51311 65.7756 4.75695C66.1989 5.66778 66.5387 5.81027 67.1925 5.37622C67.3868 5.24714 67.4681 5.10192 67.4243 4.75036C67.3629 4.58401 67.2632 4.29086 67.1459 4.00588C67.0354 3.73568 67.0766 3.50388 67.355 3.40525C67.6386 3.30276 67.7345 3.5491 67.8156 3.75545C67.8981 3.9618 67.9808 4.16814 68.0313 4.38267C68.1299 4.79945 68.2044 5.12828 68.8062 4.94057C69.3468 4.77013 69.5666 4.55583 69.332 4.00315C69.2814 3.88726 69.28 3.7434 69.2827 3.6116C69.2868 3.42775 69.3373 3.24413 69.5504 3.21072C69.7568 3.17868 69.8979 3.31867 69.942 3.49842C70.1711 4.41857 70.3947 5.34008 70.5931 6.26819C70.6437 6.50385 70.5038 6.73564 70.2363 6.72496C69.9461 6.71428 69.854 6.45999 69.8261 6.20569C69.7741 5.74096 69.6863 5.36281 69.0525 5.55325C68.6757 5.66506 68.5319 5.84618 68.641 6.22433C68.6903 6.3934 68.7448 6.56384 68.7689 6.73701C68.7969 6.93268 68.7103 7.08721 68.5185 7.15379C68.2962 7.23242 68.191 7.08721 68.119 6.91268C68.059 6.76882 68.0006 6.62361 67.9644 6.47453C67.8633 6.04048 67.6008 5.95912 67.22 6.11229C66.8432 6.26546 66.5955 6.4784 66.8843 6.90995C67.0575 7.16697 67.0041 7.39741 66.7539 7.52785C66.4357 7.6942 66.3319 7.39604 66.2267 7.19106C65.8644 6.48271 65.5049 5.77164 65.1706 5.05125C65.05 4.7915 64.7888 4.43743 65.2243 4.26018ZM56.6807 4.36949C56.513 3.23231 57.4184 1.95538 58.6356 1.61313C60.195 1.17635 62.1816 1.91015 63.119 3.23777C63.3467 3.56138 63.2908 3.69977 62.9699 3.89021C62.055 4.43084 61.1642 5.00875 60.3399 5.68528C59.9697 5.98889 59.5184 6.11138 59.0376 6.10615C57.8061 6.10593 56.8312 5.38804 56.6807 4.36949ZM83.2594 10.5842C83.3632 10.8664 83.2248 11.053 82.9571 11.1528C82.7294 11.238 82.4976 11.3139 82.2713 11.4043C81.4709 11.7225 81.3711 12.4563 82.037 13.0328C82.2126 13.1846 82.3699 13.1046 82.5338 13.0581C82.9385 12.9435 83.3407 12.821 83.7416 12.6931C83.9441 12.6292 84.0984 12.6797 84.1836 12.8688C84.2834 13.0937 84.1902 13.2683 83.9704 13.3455C83.6375 13.4642 83.2914 13.5467 82.9558 13.6598C82.519 13.8075 82.2861 14.0632 82.4631 14.5666C82.6215 15.0179 82.796 15.4094 83.3898 15.271C83.6693 15.2058 83.9491 15.1392 84.23 15.082C84.4683 15.034 84.6813 15.0606 84.7479 15.3483C84.8172 15.6426 84.6267 15.7531 84.3897 15.7971C84.0847 15.8558 83.7773 15.9158 83.4696 15.9303C82.9635 15.953 82.8092 16.2326 82.8771 16.68C82.9437 17.1168 82.9651 17.6068 83.6134 17.5761C83.7905 17.5681 83.9677 17.5747 84.1461 17.5747V17.5602C84.3672 17.5602 84.5895 17.5561 84.8106 17.5629C85.0237 17.5681 85.1328 17.6827 85.1287 17.8997C85.1246 18.1074 85.0356 18.2447 84.8172 18.2499C84.4404 18.2578 84.0622 18.2592 83.6852 18.254C83.2512 18.246 82.9421 18.3537 82.9755 18.8839C83.0048 19.3341 82.8503 19.8679 83.6027 19.8641C83.9104 19.8627 84.2179 19.9266 84.5256 19.9693C84.7492 20 84.8879 20.1118 84.8758 20.3661C84.8624 20.6538 84.6667 20.6804 84.4577 20.6576C84.1061 20.619 83.7532 20.5751 83.4057 20.5045C82.8119 20.3847 82.6881 20.776 82.6081 21.2155C82.5256 21.6723 82.5708 22.065 83.1367 22.1743C83.4416 22.2329 83.7411 22.3116 84.0434 22.3793C84.2777 22.4325 84.3949 22.5791 84.3418 22.8134C84.2831 23.0649 84.1207 23.1942 83.8491 23.1183C83.5507 23.0345 83.2378 22.9799 82.9596 22.852C82.3031 22.5525 82.1592 23.037 81.9609 23.4606C81.7266 23.9626 81.9195 24.2382 82.4176 24.39C82.6706 24.4659 82.913 24.5818 83.1487 24.703C83.3525 24.8068 83.4364 24.9866 83.3112 25.2022C83.1901 25.4086 83.0103 25.4445 82.7999 25.3275C82.6453 25.2395 82.491 25.1518 82.331 25.0745C81.5375 24.6909 81.0528 24.9386 80.8157 25.8149C80.7385 26.0999 80.8875 26.2303 81.0714 26.3596C81.3257 26.5353 81.5934 26.6953 81.849 26.8696C82.0622 27.0134 82.1474 27.2012 81.9743 27.4316C81.8211 27.6354 81.6175 27.5979 81.4402 27.4861C81.1407 27.2971 80.8582 27.0828 80.568 26.8803C79.9794 26.4714 79.8183 27.0721 79.5174 27.3316C79.19 27.6139 79.2366 27.8895 79.5481 28.1638C79.7479 28.3383 79.9342 28.5299 80.1101 28.7297C80.254 28.8908 80.3151 29.0905 80.1315 29.2596C79.9545 29.4235 79.7547 29.3582 79.5895 29.2223C79.4709 29.1251 79.3725 29.0012 79.2711 28.8842C78.6666 28.1745 78.0833 28.2263 77.5601 29.0053C77.4163 29.2185 77.5363 29.3328 77.6201 29.4753C77.8012 29.7803 78.009 30.0705 78.1742 30.3834C78.2687 30.5645 78.2794 30.7722 78.053 30.904C77.8481 31.0227 77.6949 30.9106 77.5963 30.7643C77.4124 30.4913 77.2606 30.1957 77.0956 29.908C76.9159 29.5937 76.6748 29.4446 76.3339 29.6616C75.9944 29.8787 75.3978 29.8852 75.5428 30.5286C75.6108 30.8295 75.7319 31.1186 75.8398 31.4074C75.9357 31.6603 75.9771 31.9121 75.6642 32.0119C75.3499 32.1105 75.2419 31.856 75.1581 31.6165C75.1142 31.4912 75.0781 31.3635 75.0449 31.2342C74.8172 30.3686 74.6868 30.3048 73.8398 30.5445C73.3896 30.6711 73.2046 30.8974 73.3498 31.366C73.4285 31.6176 73.4803 31.8814 73.5162 32.1437C73.5455 32.3514 73.5042 32.5632 73.2565 32.6125C73.0142 32.6618 72.8822 32.4914 72.821 32.2916C72.7704 32.1253 72.7572 31.9442 72.7492 31.7683C72.7333 31.4512 72.7265 31.0972 72.4097 30.9547C72.0261 30.7829 71.6268 30.9202 71.2578 31.0931C71.0967 31.169 71.0594 31.2888 71.0887 31.474C71.1314 31.7337 71.1446 32.0053 71.1273 32.2689C71.1101 32.5298 71.0807 32.8589 70.704 32.8123C70.3856 32.7723 70.3897 32.4914 70.4217 32.2344C70.4376 32.1026 70.4538 31.9708 70.4617 31.8376C70.499 31.1026 70.3099 30.9202 69.5523 30.8761C69.1009 30.8495 68.8771 31.0213 68.8837 31.474C68.8889 31.7883 68.8505 32.0946 68.7278 32.3862C68.6612 32.5432 68.5426 32.6352 68.3617 32.5993C68.1885 32.5662 68.094 32.4555 68.086 32.2757C68.074 32.008 68.1113 31.7496 68.1833 31.4887C68.3537 30.8588 68.1619 30.6006 67.4736 30.4009C66.8809 30.2291 66.668 30.5486 66.5507 31.0401C66.5055 31.2333 66.4562 31.4276 66.3869 31.6128C66.3069 31.8285 66.1898 32.0469 65.9087 31.9603C65.5799 31.8592 65.6531 31.5756 65.721 31.3479C65.7956 31.0963 65.9342 30.8631 66.0312 30.6168C66.2655 30.0216 65.8501 29.8564 65.424 29.65C64.99 29.4396 64.685 29.4317 64.4852 29.9402C64.38 30.2066 64.2189 30.4516 64.0764 30.7006C63.938 30.9429 63.7208 30.9763 63.5119 30.8297C63.3267 30.7006 63.3028 30.4982 63.4401 30.3025C63.5667 30.1214 63.6905 29.9364 63.8342 29.7698C64.183 29.3664 64.1257 29.0494 63.7144 28.7072C63.0379 28.1427 62.9806 28.1265 62.3975 28.7924C62.267 28.9428 62.1591 29.1133 62.0259 29.2598C61.8275 29.4796 61.5971 29.4969 61.3907 29.2812C61.1962 29.0787 61.2683 28.8778 61.4521 28.7019C61.5801 28.5795 61.705 28.4529 61.8396 28.337C62.4788 27.7843 62.347 27.0332 61.5519 26.6778C61.3162 26.5739 61.1765 26.731 61.0167 26.843C60.7463 27.0321 60.492 27.2532 60.2031 27.4075C59.9941 27.5207 59.7543 27.4661 59.6332 27.2291C59.508 26.9855 59.7039 26.8655 59.8688 26.7537C59.9979 26.6658 60.1393 26.5992 60.2711 26.518C61.066 26.036 61.0953 25.5461 60.3949 24.9241C60.2218 24.7709 60.0834 24.7961 59.9157 24.8695C59.6121 25.0027 59.3125 25.1438 59.0062 25.2718C58.7519 25.3784 58.4949 25.4636 58.3351 25.1173C58.1647 24.7498 58.4935 24.7139 58.684 24.6112C58.9169 24.4873 59.166 24.3782 59.4203 24.3089C59.845 24.1944 59.9702 23.9308 59.777 23.5685C59.5814 23.2024 59.58 22.5604 58.861 22.7909C58.5453 22.892 58.2217 22.972 57.9088 23.0838C57.6186 23.1876 57.4282 23.1145 57.3536 22.8161C57.2857 22.5432 57.4216 22.4059 57.6918 22.362C57.9088 22.3261 58.1206 22.2475 58.339 22.2155C58.941 22.1261 59.1698 21.8187 59.0342 21.2049C58.901 20.6017 58.5694 20.3992 57.9822 20.5338C57.7252 20.5924 57.4575 20.6138 57.1939 20.6349C57.0128 20.6508 56.9009 20.5617 56.893 20.3672C56.885 20.1781 56.9023 20.0011 57.138 19.9677C57.4243 19.9291 57.7131 19.8572 57.9968 19.8759C58.6626 19.9197 58.6999 19.4605 58.7092 19.0089C58.7212 18.4869 58.496 18.1688 57.9022 18.2285C57.6172 18.2578 57.3257 18.2337 57.038 18.2233C56.7982 18.2126 56.6826 18.0767 56.6826 17.8345C56.6812 17.5602 56.8664 17.4963 57.0793 17.5015C57.3443 17.5068 57.6134 17.5268 57.8729 17.5747C58.4988 17.692 58.7051 17.3604 58.7651 16.8116C58.8251 16.243 58.6306 15.9142 58.0208 15.8862C57.7572 15.8755 57.4895 15.8396 57.2325 15.7783C57.0234 15.729 56.8782 15.5865 56.9289 15.3388C56.9821 15.079 57.17 15.0511 57.3884 15.0897C57.7147 15.1483 58.0436 15.1976 58.3685 15.2667C58.696 15.3374 58.8958 15.2561 59.0503 14.9245C59.4723 14.0243 59.415 13.8566 58.4576 13.5489C58.3099 13.501 58.1581 13.4689 58.0129 13.4158C57.752 13.3185 57.3723 13.2667 57.5202 12.8644C57.6441 12.5276 57.949 12.6488 58.2072 12.7392C58.5201 12.851 58.8383 12.9442 59.1487 13.0587C59.7718 13.2878 59.7493 12.7192 59.9384 12.4222C60.154 12.0866 60.1247 11.7818 59.7441 11.5886C59.4284 11.4289 59.0996 11.2971 58.7733 11.1584C58.5217 11.0519 58.4444 10.8562 58.5335 10.6192C58.636 10.3462 58.8492 10.349 59.0794 10.4674C59.355 10.6099 59.6307 10.7496 59.9063 10.8935C60.2379 11.0666 60.4736 11.0853 60.7199 10.6899C61.2978 9.76311 61.3219 9.76175 60.3804 9.18248C60.2859 9.12521 60.1793 9.08522 60.0902 9.02C59.8759 8.86547 59.6002 8.71502 59.8479 8.39278C60.0477 8.13439 60.2647 8.23438 60.4817 8.39801C60.7108 8.57254 60.9558 8.72548 61.1901 8.89342C61.511 9.12521 61.7694 9.10385 62.0596 8.80024C62.6388 8.19438 62.6534 8.11576 61.9982 7.55649C61.845 7.42741 61.6732 7.31946 61.5921 7.12902C61.5055 6.92654 61.5203 6.73224 61.7094 6.59361C61.8971 6.45635 62.0396 6.57225 62.1714 6.70406C62.3432 6.87722 62.5216 7.04221 62.684 7.22333C63.0488 7.62943 63.3644 7.5708 63.7426 7.20742C64.0714 6.89313 64.0475 6.64156 63.8119 6.29796C63.5962 5.9823 63.0688 5.57097 63.5894 5.25532C64.0407 4.98102 64.1753 5.64142 64.3964 5.9264C64.8025 6.44976 65.2154 6.97313 65.4735 7.59489C65.5615 7.81055 65.6678 8.02372 65.4122 8.17939C65.1259 8.35392 65.0261 8.10485 64.9143 7.91713C64.8025 7.72942 64.7052 7.44581 64.4536 7.5283C64.1887 7.61489 63.9371 7.83055 63.8451 8.10758C63.7571 8.37392 64.0421 8.46436 64.2046 8.60299C64.3071 8.68821 64.4043 8.78002 64.4948 8.87592C64.6786 9.07158 64.5693 9.23952 64.4361 9.40314C64.2802 9.59767 64.1046 9.60813 63.9194 9.45382C63.7662 9.32611 63.6278 9.18225 63.4719 9.05704C62.9965 8.67343 62.7449 9.06226 62.5052 9.36997C62.2057 9.75607 62.5863 9.86538 62.8181 9.99446C63.1204 10.1608 63.4826 10.3074 63.2135 10.7269C62.9472 11.145 62.6409 10.876 62.3679 10.6842C61.8128 10.2953 61.6541 10.3406 61.3853 10.9171C61.2162 11.278 61.2828 11.5016 61.6703 11.6348C61.8566 11.6986 62.0377 11.7918 62.2057 11.8984C62.4107 12.0275 62.4107 12.2272 62.315 12.4256C62.2084 12.6467 62.03 12.592 61.8582 12.5254C61.7344 12.4761 61.616 12.4163 61.4935 12.3629C60.8663 12.09 60.3708 12.4254 60.3549 13.1233C60.3497 13.3603 60.4429 13.5042 60.6706 13.5587C60.7572 13.5787 60.8517 13.5707 60.9315 13.6014C61.2392 13.7225 61.7584 13.7173 61.6198 14.2114C61.4828 14.7 61.0499 14.5109 60.729 14.3604C60.2018 14.1114 59.9275 14.2193 59.7809 14.8252C59.665 15.3113 59.8354 15.4842 60.2602 15.5469C60.4347 15.5722 60.6145 15.5735 60.7874 15.6069C61.0669 15.659 61.2242 15.8226 61.1696 16.1237C61.1124 16.4487 60.854 16.3766 60.6438 16.3607C60.5133 16.3514 60.3881 16.2848 60.259 16.2635C59.8143 16.1862 59.46 16.2355 59.4148 16.8068C59.3748 17.3236 59.4534 17.699 60.1072 17.5938C60.2377 17.5724 60.3736 17.5897 60.5067 17.5897C60.7997 17.5897 61.0567 17.6549 61.0501 18.0158C61.0408 18.4206 60.7345 18.3646 60.4695 18.3567C60.3136 18.3526 60.1579 18.3608 60.0034 18.3474C59.4987 18.3022 59.2591 18.4926 59.3069 19.0332C59.3507 19.5418 59.5946 19.7377 60.0925 19.6804C60.4547 19.6391 61.0233 19.3248 61.0819 19.9122C61.1444 20.5488 60.4947 20.3249 60.1191 20.3729C59.7582 20.4208 59.5039 20.5326 59.6305 20.9574C59.7343 21.3048 59.6664 21.8482 60.3308 21.6139C60.5386 21.5407 60.7583 21.4928 60.9753 21.4528C61.1617 21.4196 61.3414 21.4501 61.4028 21.6671C61.4667 21.8868 61.4042 22.0625 61.1751 22.1477C61.0299 22.2023 60.886 22.2675 60.737 22.3009C60.2563 22.4075 60.1484 22.6511 60.3122 23.1251C60.4906 23.6419 60.7729 23.5565 61.1324 23.3835C61.3094 23.2969 61.4946 23.2172 61.685 23.1638C61.9393 23.092 62.03 23.289 62.1298 23.4674C62.255 23.6924 62.0966 23.7976 61.9473 23.8921C61.8182 23.9746 61.6757 24.0492 61.5291 24.0919C60.9192 24.2689 61.0044 24.6087 61.2708 25.0348C61.4785 25.3677 61.6955 25.4543 62.0111 25.1893C62.0964 25.1186 62.1961 25.0668 62.2841 25.0002C62.5411 24.8059 62.7954 24.5875 63.059 24.9868C63.324 25.385 63.0217 25.5327 62.7447 25.6965C62.1495 26.0494 62.1255 26.2224 62.5622 26.7471C62.7979 27.0307 63.0283 27.0534 63.2785 26.7792C63.3385 26.7139 63.3944 26.6446 63.4556 26.5808C63.686 26.3424 63.9337 25.9949 64.2784 26.3317C64.6659 26.7112 64.2637 26.9469 64.0173 27.188C63.8682 27.3346 63.5592 27.4291 63.6699 27.6848C63.791 27.9656 64.0373 28.1947 64.3702 28.2388C64.6686 28.2761 64.7804 28.0352 64.9043 27.822C64.9922 27.6702 65.084 27.5143 65.2052 27.3918C65.3211 27.2732 65.4835 27.2559 65.634 27.3505C65.7817 27.4436 65.8403 27.5834 65.7899 27.7513C65.7447 27.8991 65.7192 28.0788 65.6194 28.1788C65.1068 28.6888 65.4583 28.9233 65.8937 29.1655C66.1932 29.3332 66.3957 29.2921 66.5209 28.9631C66.5755 28.8178 66.6262 28.6715 66.6887 28.529C66.7805 28.3213 66.8884 28.0949 67.1707 28.1961C67.4556 28.2986 67.4809 28.5449 67.4011 28.8047C67.3625 28.9326 67.3106 29.0551 67.2638 29.1801C67.0414 29.7793 67.5422 29.7621 67.8697 29.8846C68.2892 30.0405 68.4383 29.8128 68.4796 29.4412C68.4849 29.3973 68.4849 29.3532 68.4862 29.3094C68.4983 29.0085 68.5355 28.6542 68.9164 28.6942C69.3198 28.7356 69.3173 29.0644 69.2348 29.4132C69.0777 30.0805 69.3014 30.3093 69.9738 30.2534C70.2388 30.232 70.3947 30.1389 70.3865 29.8552C70.3813 29.6994 70.3731 29.545 70.3706 29.3892C70.3665 29.0949 70.4638 28.814 70.7846 28.8192C71.111 28.8244 71.1748 29.1255 71.1814 29.4092C71.1828 29.4757 71.1694 29.5437 71.1748 29.6089C71.1907 29.8353 71.023 30.1268 71.3319 30.2586C71.6341 30.3877 71.9684 30.3252 72.232 30.1761C72.4849 30.0323 72.369 29.7314 72.312 29.5051C72.2388 29.2067 72.1695 28.8647 72.5224 28.7781C72.9633 28.669 72.9912 29.0844 73.0337 29.3812C73.1083 29.9005 73.3546 30.0309 73.8634 29.9005C74.4175 29.758 74.3682 29.453 74.2109 29.0535C74.0884 28.7406 73.9314 28.349 74.4027 28.2372C74.8595 28.1293 74.9088 28.566 74.982 28.8817C75.0286 29.0801 75.0233 29.2812 75.3042 29.2971C75.6424 29.3171 75.9114 29.1919 76.1257 28.9428C76.2962 28.7472 76.1857 28.5713 76.0712 28.4008C76.0339 28.3463 75.9819 28.3011 75.9473 28.2449C75.781 27.984 75.6796 27.6698 75.9621 27.4752C76.2857 27.2527 76.4761 27.5511 76.6425 27.7975C77.022 28.3633 77.2297 28.3967 77.6824 28.0106C77.9367 27.7936 77.9887 27.6004 77.7356 27.3527C77.5772 27.1982 77.4292 27.0319 77.2922 26.8587C77.1352 26.6617 77.2136 26.4912 77.3815 26.3381C77.5385 26.1928 77.6958 26.1876 77.8542 26.326C77.9553 26.4126 78.0485 26.5071 78.1419 26.6017C78.648 27.1184 78.8516 27.0891 79.2991 26.4885C79.4643 26.2687 79.4961 26.1142 79.2484 25.9544C79.1366 25.8826 79.0379 25.7906 78.9302 25.7133C78.6625 25.5215 78.2844 25.3472 78.62 24.945C78.9475 24.5534 79.2338 24.7693 79.4895 25.0782C79.6279 25.2445 79.7931 25.4697 80.034 25.3459C80.339 25.19 80.528 24.8957 80.5933 24.5575C80.6639 24.1914 80.3149 24.2273 80.1219 24.118C80.006 24.0528 79.8783 24.0101 79.7638 23.9423C79.5374 23.8092 79.4747 23.6081 79.5947 23.3765C79.7038 23.1633 79.8997 23.1301 80.1088 23.2088C80.2526 23.2633 80.403 23.326 80.5217 23.4206C80.9798 23.7842 81.1875 23.5551 81.398 23.1236C81.647 22.615 81.555 22.3286 80.9812 22.2355C80.9385 22.2289 80.8919 22.2209 80.8532 22.2023C80.6055 22.0784 80.1249 22.1477 80.274 21.6669C80.4165 21.2114 80.8012 21.3819 81.1168 21.4726C81.5163 21.5871 81.9011 21.7334 82.0183 21.1103C82.1263 20.5431 81.8731 20.3327 81.3446 20.3274C81.2141 20.3261 81.0809 20.2888 80.9516 20.2568C80.7239 20.2009 80.5987 20.0384 80.6467 19.8159C80.6919 19.6041 80.865 19.4816 81.0928 19.5016C81.2911 19.5175 81.4868 19.5602 81.6841 19.5934C82.1754 19.6745 82.3099 19.3723 82.3379 18.9741C82.3645 18.5839 82.2354 18.3217 81.78 18.3442C81.5588 18.3549 81.3366 18.3494 81.1155 18.3349C80.8732 18.319 80.7639 18.1472 80.7546 17.9326C80.7426 17.6877 80.9037 17.5811 81.1368 17.5718C81.2686 17.5677 81.4059 17.5397 81.535 17.5611C82.1436 17.6608 82.302 17.392 82.2474 16.8168C82.2047 16.3666 82.0624 16.1564 81.5936 16.2496C81.4191 16.2855 81.2421 16.311 81.0664 16.3162C80.8521 16.3228 80.663 16.2562 80.6244 16.0085C80.5898 15.7756 80.6989 15.6249 80.9266 15.5665C81.0771 15.5278 81.2302 15.464 81.3807 15.4692C81.8654 15.4879 82.0186 15.2561 81.9147 14.8113C81.8081 14.3545 81.5991 14.0671 81.0732 14.3227C81.0159 14.3507 80.9466 14.3627 80.8814 14.372C80.5951 14.4107 80.2262 14.6384 80.1024 14.1843C79.9826 13.741 80.3887 13.6782 80.6751 13.6185C81.0946 13.5305 81.4234 13.4321 81.2371 12.8928C81.0573 12.3722 80.7751 12.1631 80.249 12.4999C80.1038 12.5917 79.9188 12.6345 79.747 12.6624C79.5393 12.6956 79.422 12.5533 79.3488 12.3774C79.265 12.1804 79.3195 12.0393 79.5234 11.9513C79.6445 11.8993 79.7538 11.8195 79.8749 11.7664C80.558 11.4641 80.606 11.1964 80.0974 10.6144C79.9404 10.436 79.8083 10.3615 79.5954 10.5265C79.405 10.6755 79.1959 10.8035 78.9895 10.9326C78.7405 11.0885 78.5114 11.0605 78.3716 10.7914C78.2426 10.5437 78.381 10.3681 78.5928 10.2428C78.6873 10.1856 78.7952 10.151 78.887 10.091C79.0682 9.97514 79.3331 9.88856 79.2693 9.61426C79.2013 9.32406 78.9643 9.1268 78.7221 8.97114C78.4716 8.80865 78.3198 9.03113 78.1587 9.17362C78.1094 9.21748 78.0576 9.26543 78.0242 9.32133C77.8378 9.61972 77.574 9.84197 77.2718 9.55972C76.9122 9.22157 77.2597 8.9925 77.4995 8.75684C77.7392 8.52118 78.2105 8.34937 77.7285 7.88055C77.3717 7.53444 77.1293 7.46899 76.8629 7.95645C76.7484 8.16416 76.6339 8.52095 76.2864 8.31869C75.9614 8.12825 76.06 7.8326 76.2357 7.56762C76.715 6.84859 77.1852 6.12274 77.6765 5.41167C77.8217 5.19987 78.0215 4.91489 78.3182 5.12942C78.6259 5.35054 78.49 5.62733 78.2744 5.86845C78.1412 6.01616 78.036 6.18797 77.9083 6.34113C77.4688 6.87245 77.9469 7.12016 78.2385 7.42763C78.5887 7.79783 78.8112 7.51149 79.0495 7.27583C79.2707 7.0588 79.4915 6.84177 79.7261 6.64066C79.8845 6.50226 80.0497 6.52748 80.1949 6.68338C80.344 6.84586 80.3308 6.9963 80.1749 7.14675C80.0004 7.31582 79.8499 7.52217 79.6515 7.65534C79.0577 8.05872 79.1909 8.43709 79.6049 8.88842C79.8965 9.20543 80.1563 9.20657 80.4664 8.97227C80.7314 8.77252 80.9844 8.55549 81.2586 8.36914C81.4916 8.21075 81.7486 8.11871 81.9459 8.42914C82.1349 8.72616 81.9179 8.8766 81.7116 9.01772C81.5477 9.13089 81.3748 9.22952 81.2055 9.33474C80.4771 9.78879 80.4319 10.2163 81.0243 10.8607C81.2121 11.0657 81.3945 11.0498 81.6168 10.9419C81.9749 10.7687 82.3385 10.6062 82.7046 10.4492C82.916 10.359 83.1503 10.2885 83.2594 10.5842ZM81.6136 5.48393C80.9412 5.06192 80.2553 4.65696 79.5684 4.25745C79.3179 4.11224 79.2048 3.9977 79.3993 3.69545C80.3953 2.1415 82.5885 1.19999 84.3634 1.59154C85.9253 1.93651 86.8654 3.59023 86.2329 4.91535C85.7455 5.93276 84.7801 6.02184 83.8761 6.11388C83.041 6.05002 82.2913 5.91003 81.6136 5.48393Z" fill="var(--fill-0, #BBB9BA)"/>
<path id="Vector_2" d="M20.549 22.2301C20.0791 18.7827 17.9924 16.6427 14.6687 15.4975C15.3491 14.9676 15.9176 14.4149 16.3385 13.7279C17.9418 11.1034 17.9963 8.36155 16.6728 5.66633C15.3493 2.96838 12.9404 1.84188 10.0334 1.78871C6.95076 1.7328 3.86537 1.79007 0.781568 1.78212C0.414103 1.78212 0.291614 1.87529 0.292978 2.26276C0.303659 12.0901 0.305022 21.9186 0.297068 31.7473C0.297068 32.0988 0.357062 32.2452 0.75907 32.244C4.61939 32.2227 8.4797 32.2468 12.34 32.2081C13.9633 32.1922 15.5065 31.7634 16.8555 30.8326C19.8791 28.7457 21.0362 25.8016 20.549 22.2301ZM2.50709 14.1447C2.5364 12.5469 2.51777 10.9488 2.51777 9.35215H2.52981C2.52981 7.73161 2.54186 6.11243 2.52049 4.49189C2.5164 4.09646 2.60049 3.97125 3.02908 3.97647C5.27023 4.00579 7.51252 4.0576 9.75095 3.98307C13.9815 3.8433 16.0533 7.35073 15.1573 11.0645C14.5914 13.4082 12.6898 14.8849 10.277 14.8903C7.92544 14.8955 5.57248 14.8596 3.22088 14.901C2.59231 14.9117 2.4964 14.6894 2.50709 14.1447ZM18.0374 25.791C17.2359 28.2171 15.4368 29.574 12.9134 29.9508C11.7455 30.1265 10.567 30.0308 9.39257 30.0374C7.30868 30.0481 5.22478 30.024 3.14066 30.056C2.63344 30.0626 2.50959 29.9163 2.51618 29.4236C2.54276 27.4515 2.52686 25.478 2.52686 23.5046H2.54549C2.54549 21.5525 2.55754 19.6017 2.53481 17.6508C2.52958 17.1994 2.63457 17.0515 3.11407 17.0569C5.81859 17.0822 8.52424 17.0476 11.2288 17.0808C13.2529 17.106 15.1677 17.5535 16.631 19.0702C18.4928 20.9984 18.8512 23.3287 18.0374 25.791Z" fill="var(--fill-0, #BBB9BA)"/>
<path id="Vector_3" d="M35.8636 19.5897C36.1513 19.5552 36.3683 19.5272 36.5853 19.5018C43.6108 18.6841 46.1169 11.315 43.0436 6.09793C41.471 3.42816 39.0076 2.07373 35.9742 1.86875C32.2764 1.61968 28.5652 1.87147 24.8608 1.77284C24.2708 1.75694 24.4453 2.16167 24.4453 2.45074C24.4374 11.8386 24.436 21.225 24.4412 30.6129C24.4412 31.1376 24.2176 31.8087 24.5492 32.1482C24.8542 32.4597 25.5252 32.1668 26.0234 32.248C26.6613 32.3532 26.721 32.0575 26.7172 31.5223C26.6933 27.7713 26.7119 24.0214 26.6826 20.2703C26.6785 19.7031 26.8437 19.5779 27.3885 19.5886C29.1408 19.6231 30.8945 19.6099 32.6468 19.5834C33.0211 19.5781 33.2581 19.682 33.4724 19.9829C34.3074 21.1573 35.1743 22.3093 36.0104 23.4823C37.9638 26.2294 39.9039 28.9846 41.8587 31.7303C42.0119 31.9446 42.1009 32.2495 42.4859 32.2377C43.2781 32.215 44.0719 32.2311 44.9934 32.2311C41.9039 27.9522 38.8972 23.7896 35.8636 19.5897ZM27.3148 17.4404C26.8356 17.4445 26.6704 17.3458 26.6797 16.8265C26.7129 14.7879 26.6931 12.7478 26.6931 10.7078H26.6824C26.6824 8.64634 26.689 6.58379 26.6758 4.52238C26.6731 4.16423 26.6904 3.97106 27.1526 3.97652C29.9237 4.00856 32.6959 3.96061 35.4657 4.02174C38.7533 4.09492 41.2501 6.10702 41.9253 9.1179C42.94 13.6521 39.9305 17.4217 35.2952 17.4245C32.6346 17.4272 29.9741 17.4165 27.3148 17.4404Z" fill="var(--fill-0, #BBB9BA)"/>
<path id="Vector_4" d="M51.3656 17.0391C51.3656 21.8774 51.3567 26.7154 51.3779 31.5533C51.3802 32.0901 51.2724 32.2656 50.6986 32.2497C49.1197 32.2058 49.1126 32.236 49.1124 30.6591C49.1106 21.2492 49.117 11.8396 49.0988 2.42994C49.0976 1.89794 49.2317 1.71819 49.7528 1.79432C50.2725 1.86999 50.9684 1.54048 51.2752 1.90749C51.5301 2.21246 51.3586 2.88218 51.359 3.39054C51.3618 7.94015 51.3606 12.4898 51.3606 17.0394C51.3622 17.0391 51.3638 17.0391 51.3656 17.0391Z" fill="var(--fill-0, #BBB9BA)"/>
<path id="Vector_5" d="M75.9386 42.7356C75.8441 39.4039 73.8506 36.8938 70.6896 36.2907C68.8093 35.9312 66.8852 36.1975 64.9824 36.1416C64.5283 36.1282 64.6508 36.4691 64.6508 36.705C64.6429 38.7875 64.6456 40.8717 64.6456 42.9556H64.6508C64.6508 45.0622 64.6629 47.1675 64.6401 49.2741C64.636 49.7002 64.7388 49.848 65.1849 49.8386C66.4925 49.8107 67.8001 49.8359 69.1077 49.8266C73.3727 49.7957 76.0597 47.0021 75.9386 42.7356ZM74.9505 43.8062C74.6696 46.8237 72.6603 48.7158 69.6228 48.9035C68.4298 48.9767 67.2285 48.9049 66.0316 48.9287C65.6003 48.938 65.5907 48.7117 65.5921 48.3895C65.6014 46.5705 65.5962 44.7516 65.5962 42.9324H65.5723C65.5723 41.1573 65.5975 39.3823 65.5564 37.6099C65.5444 37.0813 65.7123 36.9841 66.1875 37.0054C67.1183 37.0454 68.0516 37.0575 68.9811 37.0241C72.4698 36.9004 75.3593 39.4025 74.9505 43.8062Z" fill="var(--fill-0, #BBB9BA)"/>
<path id="Vector_6" d="M31.8706 43.9766C32.0145 43.9514 32.1156 43.9327 32.2181 43.9141C34.4485 43.5173 35.6416 42.1445 35.6082 40.0124C35.575 37.9844 34.2181 36.4463 32.0794 36.1854C30.2964 35.9671 28.4921 36.1454 26.6984 36.1123C26.235 36.1029 26.3854 36.4572 26.3854 36.6836C26.3827 40.8982 26.392 45.1113 26.3882 49.3245C26.3882 49.6495 26.3882 49.8545 26.8249 49.8438C27.2217 49.8345 27.3549 49.7493 27.3469 49.327C27.319 47.7304 27.3469 46.1339 27.319 44.5372C27.3124 44.1004 27.3803 43.9061 27.8796 43.9366C28.6532 43.9832 29.4336 43.9873 30.206 43.9418C30.6548 43.9152 30.8771 44.1057 31.1034 44.4466C32.1433 46.0153 33.2393 47.5492 34.2447 49.1405C34.6401 49.7677 35.0903 49.9568 35.8293 49.7636C34.5097 47.8356 33.2048 45.926 31.8706 43.9766ZM29.7533 43.103V43.0778C29.0875 43.0778 28.423 43.0619 27.7585 43.0844C27.4069 43.0951 27.3031 42.9712 27.3058 42.6263C27.3203 40.8978 27.3217 39.1695 27.3031 37.441C27.299 37.0815 27.419 36.999 27.7585 37.0042C29.0661 37.0281 30.3737 36.9922 31.6799 37.0349C33.1673 37.0829 34.2579 37.9857 34.5588 39.3399C34.8903 40.826 34.3697 42.0763 33.15 42.7462C32.6694 43.0099 32.1488 43.0898 31.6134 43.1005C30.993 43.111 30.3726 43.103 29.7533 43.103Z" fill="var(--fill-0, #BBB9BA)"/>
<path id="Vector_7" d="M22.5673 42.9734C22.5673 45.0814 22.5625 47.1894 22.5725 49.2971C22.5741 49.6189 22.5816 49.8325 22.1399 49.8232C21.739 49.8148 21.6108 49.7214 21.6163 49.3026C21.6394 47.4611 21.6131 45.6193 21.6358 43.7778C21.641 43.3481 21.529 43.2186 21.0881 43.2222C18.714 43.2413 16.3397 43.237 13.9659 43.2156C13.5357 43.2117 13.3932 43.3213 13.4007 43.7703C13.4311 45.6115 13.4139 47.4534 13.4355 49.2949C13.44 49.6744 13.3764 49.8362 12.9364 49.8339C12.5008 49.8316 12.4351 49.6805 12.4365 49.2939C12.4494 45.1002 12.4476 40.9065 12.4405 36.7128C12.4399 36.3346 12.469 36.1078 12.961 36.0999C13.4723 36.0917 13.4091 36.3771 13.4086 36.6866C13.4066 38.3951 13.4143 40.1038 13.3984 41.8121C13.395 42.18 13.4339 42.3655 13.8886 42.3609C16.2847 42.3373 18.6813 42.3405 21.0775 42.3611C21.5158 42.365 21.6342 42.2368 21.6274 41.8023C21.6017 40.1386 21.6117 38.4742 21.6206 36.81C21.6222 36.4998 21.4374 36.1028 22.0708 36.0939C22.6828 36.0855 22.555 36.4491 22.5555 36.7823C22.5582 38.846 22.5569 40.9094 22.5569 42.9731C22.56 42.9734 22.5637 42.9734 22.5673 42.9734Z" fill="var(--fill-0, #BBB9BA)"/>
<path id="Vector_8" d="M56.248 36.44C56.1082 36.1098 55.8712 36.1404 55.6062 36.1136C55.2867 36.0802 55.1335 36.2082 55.0176 36.5025C54.4863 37.8394 53.9457 39.1736 53.3837 40.4973C52.0761 43.5734 50.7537 46.6414 49.4223 49.7479C50.1547 50.0143 50.4797 49.7386 50.7126 49.1034C51.1107 48.0235 51.6075 46.9809 52.0454 45.9155C52.1572 45.6426 52.2772 45.496 52.614 45.5001C54.654 45.5228 56.6966 45.5253 58.7366 45.5108C59.0495 45.5094 59.1561 45.6467 59.26 45.893C59.7074 46.9543 60.2201 47.9903 60.6114 49.0716C60.8671 49.7775 61.26 49.969 61.939 49.7775C60.0338 45.3165 58.1335 40.8821 56.248 36.44ZM52.6354 44.6054C53.6366 42.1899 54.6234 39.8104 55.6501 37.3322C56.6875 39.7942 57.6874 42.1699 58.7127 44.6054H52.6354Z" fill="var(--fill-0, #BBB9BA)"/>
<path id="Vector_9" d="M38.8089 42.9343C38.8089 40.8491 38.8232 38.7636 38.7975 36.6785C38.792 36.2345 38.917 36.1156 39.3499 36.1181C41.7236 36.1315 44.0975 36.1252 46.4709 36.1043C46.8486 36.1008 46.9551 36.2099 46.9645 36.5872C46.9751 37.0226 46.7586 37.0249 46.4361 37.0228C44.4174 37.0108 42.3983 37.028 40.3801 36.9994C39.9108 36.9928 39.724 37.0614 39.7404 37.5966C39.7838 39.0151 39.771 40.4362 39.7433 41.8554C39.7351 42.2765 39.8681 42.3735 40.2685 42.3692C42.0208 42.3501 43.7734 42.3667 45.526 42.3614C45.8541 42.3605 46.1254 42.324 46.1145 42.8173C46.1043 43.2777 45.8407 43.2375 45.5464 43.2377C43.8604 43.2393 42.174 43.2657 40.4887 43.2334C39.9351 43.2227 39.7172 43.3175 39.7411 43.9424C39.7974 45.4269 39.7865 46.9149 39.7533 48.4007C39.7429 48.8679 39.9056 48.9484 40.3176 48.9463C42.3806 48.9359 44.4438 48.9461 46.5068 48.9622C46.7927 48.9645 47.1794 48.7843 47.1935 49.3774C47.2072 49.9497 46.8579 49.8308 46.5468 49.8306C44.1952 49.8297 41.8436 49.8056 39.4924 49.8342C38.9234 49.841 38.8032 49.662 38.8116 49.1234C38.8441 47.0608 38.8248 44.9974 38.8248 42.9341C38.8195 42.9343 38.8143 42.9343 38.8089 42.9343Z" fill="var(--fill-0, #BBB9BA)"/>
<path id="Vector_10" d="M82.951 50C80.3806 49.973 78.7328 48.784 78.2808 46.7348C78.2358 46.5305 77.9749 46.1899 78.4103 46.0937C78.7735 46.0135 79.0303 46.0826 79.1664 46.5637C79.8363 48.9299 83.0581 49.9609 85.0333 48.4754C86.5273 47.3518 86.398 45.1602 84.7759 44.1746C83.7619 43.5585 82.6143 43.2738 81.5121 42.8774C81.0112 42.6974 80.522 42.4988 80.0577 42.2332C78.8973 41.5694 78.3917 40.5651 78.4624 39.2475C78.531 37.9631 79.1119 36.9975 80.2881 36.455C82.0543 35.6403 83.7751 35.7562 85.4033 36.8366C86.0557 37.2695 86.4728 37.8906 86.6489 38.6589C86.6864 38.8223 86.8845 39.0937 86.5362 39.113C86.2925 39.1264 85.9923 39.3039 85.784 38.9307C84.7379 37.0579 83.1265 36.4032 81.1912 37.0341C80.169 37.3672 79.4809 38.1735 79.4012 39.1309C79.3089 40.2379 79.7429 40.9994 80.796 41.5473C81.6448 41.9889 82.5827 42.1984 83.4658 42.5509C83.9382 42.7395 84.415 42.9224 84.8709 43.1463C86.5552 43.9728 87.2734 45.309 86.9791 47.0275C86.7118 48.5881 85.506 49.6796 83.7616 49.9284C83.433 49.9752 83.0997 49.9873 82.951 50Z" fill="var(--fill-0, #BBB9BA)"/>
<path id="Vector_11" d="M5.56184 43.4292C5.56184 45.3804 5.55344 47.3316 5.56912 49.2826C5.57207 49.6521 5.53435 49.8302 5.08394 49.8318C4.60557 49.8334 4.61284 49.5957 4.61307 49.256C4.61557 45.3979 4.59853 41.5401 4.62034 37.6822C4.62352 37.1159 4.45559 36.9782 3.91086 36.9998C2.75961 37.0454 1.6054 37.0052 0.452783 37.0268C0.106225 37.0334 -0.013764 36.9327 0.00123461 36.5809C0.0141879 36.2766 0.0303227 36.0944 0.424376 36.0969C3.5284 36.1176 6.63243 36.1239 9.73645 36.113C10.1444 36.1117 10.1919 36.273 10.203 36.6207C10.2162 37.03 10.0019 37.0248 9.71032 37.0218C8.51316 37.0095 7.31509 37.0323 6.11884 36.9954C5.65706 36.9811 5.51889 37.1025 5.52548 37.5759C5.55253 39.5266 5.53685 41.478 5.53685 43.429C5.54503 43.4292 5.55344 43.4292 5.56184 43.4292Z" fill="var(--fill-0, #BBB9BA)"/>
</g>
</svg>
