<svg preserveAspectRatio="xMidYMid meet" overflow="visible" style="display: block;" viewBox="0 0 126.625 50" fill="none" xmlns="http://www.w3.org/2000/svg">
<g id="Group">
<path id="Vector" d="M114.606 40.3767C111.978 40.3767 109.849 42.3918 109.822 44.8859L48.6807 41.8953V47.9697L109.822 44.9791C109.849 47.4732 111.978 49.4883 114.606 49.4883C117.251 49.4883 119.395 47.4485 119.395 44.9325C119.395 42.4164 117.251 40.3767 114.606 40.3767Z" fill="var(--fill-0, #BBB9BA)"/>
<path id="Vector_2" d="M1.10141 36.7144C0.367267 36.1027 0 35.1995 0 34.0023C0 33.3233 0.13583 32.5826 0.408075 31.7798C0.679347 30.978 1.10141 29.8972 1.67233 28.5376C2.46069 26.6892 3.07902 25.0577 3.5279 23.6442C3.9764 22.2307 4.20065 20.8029 4.20065 19.3616C4.20065 18.2746 4.02342 17.289 3.67054 16.4054C3.31668 15.522 2.81397 14.4951 2.16144 13.3264C1.80816 12.7551 1.54252 12.286 1.36627 11.9191C1.18905 11.5523 1.10122 11.2196 1.10122 10.92C1.10122 10.267 1.37968 9.79173 1.93719 9.49209C2.49412 9.19342 3.47991 9.0436 4.89379 9.0436H5.95439C7.3675 9.0436 8.35349 9.19342 8.91099 9.49209C9.46792 9.79173 9.74696 10.267 9.74696 10.92C9.74696 11.2196 9.66535 11.5389 9.50251 11.8778C9.33928 12.2186 9.08044 12.7011 8.72755 13.3262C8.26468 14.0878 7.8912 14.7675 7.60593 15.3648C7.32028 15.9631 7.09603 16.6025 6.9328 17.2814C6.9054 17.3908 6.89199 17.5406 6.89199 17.7307C6.89199 18.5458 7.39509 19.1171 8.4011 19.4428C9.40651 19.7693 10.6033 19.9469 11.99 19.9729C13.3767 19.9469 14.5797 19.7693 15.5991 19.4428C16.6189 19.1173 17.1288 18.546 17.1288 17.7307C17.1288 17.5406 17.1145 17.3908 17.088 17.2814C16.9248 16.6025 16.7006 15.9629 16.4149 15.3648C16.1296 14.7675 15.7558 14.0878 15.2933 13.3262C14.94 12.7011 14.6816 12.2186 14.5183 11.8778C14.3555 11.5387 14.2739 11.2194 14.2739 10.92C14.2739 10.267 14.5523 9.79173 15.1098 9.49209C15.6668 9.19342 16.6526 9.0436 18.0664 9.0436H19.1271C20.5405 9.0436 21.5261 9.19342 22.0837 9.49209C22.6406 9.79173 22.9196 10.267 22.9196 10.92C22.9196 11.2196 22.8312 11.5523 22.6546 11.9191C22.4773 12.286 22.2125 12.7551 21.8594 13.3264C21.2069 14.4951 20.7034 15.522 20.3503 16.4054C19.9964 17.2888 19.8202 18.2746 19.8202 19.3616C19.8202 20.8029 20.0444 22.2307 20.4929 23.6442C20.9418 25.0577 21.5598 26.6892 22.3485 28.5376C22.9194 29.8972 23.3409 30.978 23.6128 31.7798C23.8844 32.5826 24.0208 33.3233 24.0208 34.0023C24.0208 35.1997 23.6536 36.1027 22.9194 36.7144C22.1853 37.3261 20.9212 37.6461 19.1269 37.6732H18.0663C16.2721 37.6463 15.0078 37.3261 14.2737 36.7144C13.5395 36.1027 13.1723 35.1995 13.1723 34.0023C13.1723 33.3233 13.3153 32.5689 13.6006 31.7394C13.8862 30.9098 14.3409 29.7608 14.967 28.2927C15.5379 26.6892 15.8236 25.4119 15.8236 24.4594C15.8236 23.2908 15.4899 22.4684 14.824 21.9921C14.1577 21.5168 13.2133 21.2655 11.9898 21.2378C10.7664 21.2655 9.82839 21.5166 9.17586 21.9921C8.52332 22.4684 8.19687 23.2773 8.19687 24.419C8.19687 25.3706 8.48252 26.662 9.05343 28.2926C9.67856 29.7608 10.1342 30.9097 10.4199 31.7392C10.7052 32.5688 10.8482 33.3231 10.8482 34.0021C10.8482 35.1995 10.4809 36.1025 9.74677 36.7142C9.01263 37.3259 7.74857 37.6459 5.9542 37.673H4.89359C3.09981 37.6463 1.83556 37.3261 1.10141 36.7144Z" fill="var(--fill-0, #BBB9BA)"/>
<path id="Vector_3" d="M57.423 27.0751C56.2401 26.4255 55.3727 25.5723 54.8195 24.5167C54.2662 23.4604 53.9895 22.31 53.9895 21.0644C53.9895 20.469 54.0653 19.8962 54.2175 19.3455C54.3688 18.7953 54.5968 18.1498 54.9007 17.4098C55.1393 16.7966 55.3241 16.2727 55.4539 15.8392C55.5841 15.4062 55.6494 14.9913 55.6494 14.5942C55.6494 13.4931 55.9475 12.5186 56.5445 11.67C57.141 10.8216 57.9218 10.172 58.887 9.7206C59.8532 9.26978 60.8667 9.0436 61.9303 9.0436C63.0583 9.0436 64.1104 9.26978 65.088 9.7206C66.0643 10.172 66.8501 10.8173 67.447 11.6562C68.044 12.4957 68.3417 13.4753 68.3417 14.594C68.3417 14.9911 68.4017 15.3971 68.5207 15.8122C68.6394 16.2278 68.8085 16.7326 69.0259 17.328C69.3294 18.1943 69.5455 18.8809 69.6757 19.3859C69.8059 19.8913 69.8718 20.4512 69.8718 21.0644C69.8718 22.2921 69.5997 23.4336 69.0572 24.4893C68.5147 25.5456 67.6528 26.403 66.4706 27.0615C65.2881 27.7207 63.7851 28.0498 61.9629 28.0498C60.118 28.0498 58.6048 27.7247 57.423 27.0751ZM58.3994 21.0514C59.2562 22.1435 60.4443 22.6893 61.9631 22.6893C63.4819 22.6893 64.6743 22.1433 65.5433 21.0514C66.4107 19.9593 66.8445 18.5649 66.8445 16.8681C66.8445 16.0922 66.6383 15.3343 66.2261 14.5942C65.814 13.854 65.2341 13.2497 64.4854 12.78C63.7367 12.3107 62.885 12.0762 61.9303 12.0762C60.9969 12.0762 60.1623 12.3107 59.4253 12.78C58.6867 13.2498 58.1173 13.8542 57.716 14.5942C57.3142 15.3343 57.114 16.0922 57.114 16.8681C57.114 18.5649 57.5421 19.9593 58.3994 21.0514Z" fill="var(--fill-0, #BBB9BA)"/>
<path id="Vector_4" d="M70.2265 36.7141C69.492 36.1024 69.1251 35.1992 69.1251 34.002C69.1251 33.323 69.2605 32.5823 69.5332 31.7795C69.804 30.9778 70.2265 29.8969 70.7968 28.5373C71.5852 26.6889 72.2041 25.0574 72.6524 23.6439C73.1017 22.2304 73.3259 20.8026 73.3259 19.3613C73.3259 18.2743 73.1483 17.2887 72.795 16.4051C72.4416 15.5217 71.9394 14.4948 71.2865 13.3261C70.9332 12.7548 70.6676 12.2857 70.491 11.9188C70.3143 11.552 70.2263 11.2193 70.2263 10.9197C70.2263 10.2667 70.5044 9.79143 71.0623 9.49179C71.6192 9.19312 72.605 9.0433 74.0193 9.0433H75.0793C76.4928 9.0433 77.4784 9.19312 78.0355 9.49179C78.5924 9.79143 78.8722 10.2667 78.8722 10.9197C78.8722 11.2193 78.7834 11.552 78.6068 11.9188C78.4302 12.2857 78.1647 12.7548 77.8113 13.3261C77.1593 14.4948 76.656 15.5217 76.3027 16.4051C75.9495 17.2885 75.7726 18.2743 75.7726 19.3613C75.7726 19.851 75.8265 20.5587 75.9359 21.4825C76.6694 21.2925 77.5324 20.9256 78.5252 20.3811C79.5172 19.8376 80.3872 19.1442 81.1351 18.3013C81.8831 17.4591 82.2571 16.5209 82.2571 15.4877C82.2571 15.0797 82.1961 14.6788 82.0733 14.2841C81.9513 13.8904 81.7674 13.4347 81.5226 12.9182C81.1155 12.0483 80.9109 11.3963 80.9109 10.9603C80.9109 10.4984 81.3934 10.0635 82.3584 9.65522C83.3234 9.24812 84.3504 9.04349 85.4374 9.04349C86.5254 9.04349 87.4294 9.30272 88.1495 9.81844C88.8697 10.3351 89.2304 11.1513 89.2304 12.2651C89.2304 13.8428 88.9245 15.1072 88.3128 16.0581C87.701 17.0106 86.9531 17.7236 86.0697 18.1989C85.1863 18.6752 84.0105 19.1854 82.5422 19.729C82.2157 19.8654 81.8623 20.0078 81.482 20.1569C81.1007 20.3067 80.6926 20.4771 80.2585 20.6664C80.9653 20.748 81.5966 21.0134 82.1545 21.4619C82.7114 21.9104 83.3986 22.5839 84.2137 23.4807C85.2747 24.6771 86.2936 25.6691 87.273 26.4575C88.2514 27.2468 89.5698 27.9328 91.2282 28.5177C92.8865 29.1024 94.9125 29.3938 97.3046 29.3938C98.7181 29.3938 99.8473 29.6531 100.689 30.1688C101.533 30.6855 101.954 31.5016 101.954 32.6155C101.954 34.0021 101.491 35.1922 100.567 36.1842C99.6427 37.1769 98.2696 37.6731 96.449 37.6731C93.9197 37.6731 91.8203 37.1564 90.1475 36.1232C88.4758 35.09 87.1842 33.8737 86.274 32.4728C85.3628 31.0728 84.4184 29.3122 83.439 27.192C82.6506 25.4521 81.9707 24.1884 81.4004 23.3991C80.8291 22.6107 80.1357 22.2161 79.3205 22.2161C78.6676 22.2161 78.1303 22.5021 77.7098 23.0726C77.2874 23.6439 77.0775 24.2825 77.0775 24.9892C77.0775 25.3157 77.1591 25.7237 77.3223 26.2126C77.7564 27.3006 78.0829 28.089 78.3007 28.5787C78.872 29.9383 79.2928 31.0191 79.5654 31.8209C79.8363 32.6227 79.9725 33.35 79.9725 34.0022C79.9725 35.1996 79.6056 36.1026 78.8721 36.7143C78.1375 37.326 76.8738 37.646 75.0791 37.6731H74.0191C72.2247 37.646 70.9601 37.3258 70.2265 36.7141ZM90.4952 9.53337C90.4952 9.53337 90.6782 9.43835 91.0459 9.24812C91.4128 9.05807 92.0585 8.96207 92.9831 8.96207H93.7166H93.7983C94.2602 8.96207 94.9813 8.93526 95.9597 8.88046L97.6314 8.79885C98.9633 8.79885 99.6297 9.26172 99.6297 10.1853C99.6297 10.893 99.487 11.4571 99.2018 11.8777C98.9165 12.3001 98.529 12.51 98.0393 12.51C97.6581 12.51 97.2644 12.4221 96.8563 12.2453C96.4492 12.0687 96.1764 11.9799 96.0411 11.9799C95.606 11.9799 95.1568 12.4561 94.6949 13.4077L94.45 14.0597C94.3694 14.3045 94.328 14.5359 94.328 14.753C94.328 15.1879 94.4634 15.4741 94.7361 15.6096C95.0069 15.746 95.3746 15.8132 95.8365 15.8132C96.0267 15.8132 96.449 15.7316 97.1011 15.5693C97.6985 15.4061 98.1343 15.3245 98.4062 15.3245C98.8413 15.3245 99.0591 15.5281 99.0591 15.9362C99.0591 16.4249 98.9093 16.8538 98.6099 17.2205C98.3112 17.5874 97.9165 17.7712 97.4278 17.7712C97.183 17.7712 96.9041 17.7174 96.5918 17.608C96.2788 17.4995 96.0545 17.4447 95.9183 17.4447C95.538 17.4447 95.225 17.5335 94.9811 17.7102C94.7363 17.8868 94.6134 18.1381 94.6134 18.4645C94.6134 18.5461 94.6403 18.696 94.6951 18.913C94.8315 19.3479 95.0627 20.001 95.3884 20.871C95.8503 21.8774 96.2996 22.3795 96.7347 22.3795C97.6314 21.7821 98.4064 21.4827 99.0593 21.4827C99.8477 21.4827 100.446 21.7213 100.853 22.1966C101.261 22.6719 101.478 23.4809 101.506 24.6227V24.7043V24.7859C101.478 25.7375 101.261 26.4244 100.853 26.8451C100.446 27.2676 99.8477 27.4775 99.0593 27.4775H93.0637H92.9831C92.1938 27.4506 91.5964 27.2532 91.1883 26.8863C90.7803 26.5187 90.5766 26.0504 90.5766 25.4791C90.5766 25.0442 90.6582 24.5077 90.8215 23.8684C90.9837 23.2298 91.1605 22.5705 91.3516 21.8908C91.7041 20.7482 91.9901 19.6951 92.2081 18.7302C92.4252 17.7652 92.5336 16.793 92.5336 15.8134C92.5336 15.1076 92.418 14.4547 92.1873 13.8564C91.9559 13.2581 91.6222 12.5784 91.1881 11.8168C90.9971 11.5182 90.8339 11.2195 90.6984 10.92C90.562 10.6214 90.4948 10.3765 90.4948 10.1855C90.4952 9.75121 90.4952 9.53337 90.4952 9.53337Z" fill="var(--fill-0, #BBB9BA)"/>
<path id="Vector_5" d="M104.685 36.7144C103.95 36.1027 103.583 35.1995 103.583 34.0023C103.583 33.3233 103.719 32.5826 103.991 31.7798C104.262 30.978 104.685 29.8972 105.255 28.5376C106.043 26.6892 106.662 25.0577 107.111 23.6442C107.56 22.2307 107.784 20.8029 107.784 19.3616C107.784 18.2746 107.606 17.289 107.253 16.4054C106.9 15.5218 106.398 14.4951 105.745 13.3264C105.391 12.7551 105.126 12.286 104.949 11.9191C104.773 11.5523 104.684 11.2196 104.684 10.92C104.684 10.2948 104.929 9.83293 105.418 9.53329C105.908 9.23462 106.75 9.07138 107.946 9.0436H115.614C117.816 9.0436 119.495 9.62831 120.651 10.7979C121.806 11.9666 122.383 13.3944 122.383 15.0796C122.383 16.2212 122.125 17.3362 121.609 18.424C121.092 19.511 120.358 20.4222 119.407 21.156C118.454 21.8905 117.354 22.312 116.103 22.4206C116.347 22.6106 116.66 23.0323 117.041 23.6843C117.53 24.5274 118.026 25.2277 118.529 25.7847C119.033 26.3425 119.794 26.8385 120.814 27.2735C121.833 27.7084 123.144 27.9255 124.749 27.9255C125.211 27.9255 125.639 28.4152 126.034 29.3938C126.427 30.3722 126.625 31.4468 126.625 32.6154C126.625 34.0298 126.264 35.2263 125.544 36.2047C124.824 37.1831 123.675 37.673 122.098 37.673C120.222 37.673 118.828 37.2649 117.918 36.4495C117.007 35.6334 116.415 34.6548 116.144 33.5132C115.872 32.3715 115.695 30.8898 115.614 29.0673C115.532 27.627 115.423 26.5058 115.287 25.703C115.151 24.9013 114.852 24.2348 114.39 23.7048C113.928 23.1747 113.207 22.9093 112.229 22.9093C111.576 22.9093 111.223 23.277 111.169 24.0107C111.169 24.3372 111.251 24.7452 111.414 25.2341C111.658 25.9687 112.107 27.0969 112.759 28.619C113.33 29.9239 113.751 30.985 114.024 31.8002C114.295 32.6154 114.431 33.3501 114.431 34.0021C114.431 35.1995 114.064 36.1025 113.33 36.7142C112.596 37.3259 111.332 37.6459 109.537 37.673H108.477C106.683 37.6463 105.418 37.3261 104.685 36.7144ZM112.963 19.5454C113.616 20.4288 114.391 20.8711 115.288 20.8711C116.185 20.8711 116.967 20.429 117.633 19.5454C118.298 18.662 118.632 17.7041 118.632 16.6701C118.632 15.7733 118.359 15.0386 117.816 14.4682C117.272 13.8969 116.429 13.6117 115.288 13.6117C114.146 13.6117 113.31 13.8969 112.78 14.4682C112.25 15.0386 111.984 15.7733 111.984 16.6701C111.985 17.7042 112.311 18.662 112.963 19.5454Z" fill="var(--fill-0, #BBB9BA)"/>
<path id="Vector_6" d="M66.3895 31.4567C65.5471 30.8213 64.6428 30.2871 63.6634 29.9125C61.7546 29.182 59.8323 29.3345 57.9185 29.8942C56.2897 30.3705 54.7913 31.1598 53.3585 32.0692C52.3162 32.7309 51.2086 32.9712 50.0106 32.9196C48.6587 32.8613 47.3544 32.5047 46.0307 32.2688C45.8707 32.2402 45.8816 32.1817 45.9514 32.0611C46.1249 31.7616 46.1754 31.4303 46.1239 31.0898C46.1028 30.9497 46.1408 30.9258 46.2592 30.9354C46.6148 30.9639 46.9638 30.9198 47.3056 30.817C48.2799 30.5244 48.8017 29.6828 48.5835 28.7465C48.544 28.5773 48.4745 28.4154 48.4134 28.2343C48.6103 28.2343 48.7774 28.2403 48.9439 28.2333C49.7805 28.198 50.3384 27.7448 50.5679 26.9186C50.8255 25.9911 50.2509 24.9256 49.3847 24.7194C49.3089 24.7014 49.196 24.7529 49.1639 24.6481C49.1342 24.5516 49.2358 24.5024 49.2916 24.4431C49.6645 24.0459 49.9668 23.5996 50.1608 23.0825C50.4954 22.1902 50.421 21.1795 49.421 20.7067C49.2587 20.63 49.2846 20.5524 49.3475 20.4217C49.6035 19.891 49.7581 19.3294 49.7515 18.7328C49.7428 17.942 49.4226 17.3757 48.8641 17.1901C48.6653 17.1241 48.6355 17.0662 48.7082 16.8608C49.0077 16.0151 48.7803 14.7454 47.593 14.4184C47.2164 14.3146 46.8365 14.3204 46.4726 14.4708C46.3056 14.5398 46.2664 14.4879 46.2458 14.3249C46.1988 13.9545 46.1432 13.5847 46.0791 13.2171C45.8952 12.1654 45.6515 11.1332 45.0845 10.2183C45.0008 10.0833 45.0239 9.97386 45.076 9.8425C45.4502 8.90238 45.8424 7.97081 46.307 7.07383C46.312 7.06411 46.3173 7.05459 46.3223 7.04488C46.9683 7.51824 47.7578 7.80661 48.62 7.80661C50.7758 7.80661 52.5233 6.05909 52.5233 3.90331C52.5233 1.74752 50.7758 0 48.62 0C46.4642 0 44.7167 1.74752 44.7167 3.90331C44.7167 4.73558 44.9817 5.50334 45.4256 6.13701C44.7837 7.31557 44.0356 8.42766 43.3587 9.58425C43.324 9.64371 43.2783 9.6851 43.2115 9.70725C42.9701 9.78751 42.7614 9.92839 42.5512 10.1177C42.2323 9.45192 41.8666 8.83689 41.1483 8.6041C40.3946 8.35984 39.7951 8.70689 39.2525 9.23156C39.0468 8.86099 38.8029 8.56329 38.4805 8.33983C37.8148 7.87812 37.0633 7.90435 36.4473 8.43349C36.2919 8.56699 36.2093 8.57845 36.0499 8.42533C35.3179 7.7215 34.2006 7.84178 33.5758 8.68066C33.4684 8.82485 33.3965 8.88218 33.2 8.8025C32.441 8.4949 31.4974 8.90919 31.1616 9.68277C31.0961 9.83376 31.0607 9.88875 30.8907 9.81549C29.8157 9.35165 28.4475 10.3252 28.5563 11.5129C28.5633 11.5892 28.5581 11.6676 28.5695 11.743C28.5964 11.9169 28.5351 11.9246 28.3857 11.8881C27.6823 11.7157 27.1032 11.9676 26.6419 12.5088C26.198 13.0297 26.0976 13.6335 26.3688 14.2761C26.4602 14.4928 26.4413 14.5237 26.2087 14.5089C25.4169 14.4584 24.645 15.1919 24.489 16.0926C24.3874 16.6797 24.5333 17.2109 24.7702 17.7321C24.8526 17.9134 25.0024 18.1244 24.966 18.284C24.9287 18.4478 24.6512 18.3844 24.4833 18.4382C23.4121 18.7832 22.9367 20.2273 23.5829 21.2073C23.6876 21.3661 23.7284 21.4479 23.5368 21.5823C23.1474 21.8558 23.0042 22.3017 22.8724 22.745C22.8724 22.9566 22.8724 23.1682 22.8724 23.3798C22.9981 23.7504 23.1153 24.1264 23.4464 24.3691C23.5628 24.4544 23.4669 24.5107 23.4222 24.5745C23.0125 25.1596 22.9546 25.7886 23.2061 26.4545C23.3983 26.9637 23.8122 27.2143 24.2682 27.4051C24.5168 27.5091 24.7752 27.5886 25.0317 27.671C25.1825 27.7194 25.1988 27.771 25.0902 27.9012C24.5863 28.5046 24.5411 29.1845 24.839 29.8913C25.1415 30.6091 25.7449 30.8701 26.4495 30.935C26.809 30.968 27.1708 30.9734 27.5499 30.9925C27.3537 31.6254 27.3756 32.219 27.7297 32.7697C27.9831 33.164 28.3264 33.4106 28.7905 33.4858C29.3707 33.5797 29.9514 33.6154 30.5483 33.5595C30.5691 33.6861 30.4908 33.7658 30.4467 33.8504C29.2361 36.1618 28.02 38.4703 26.8138 40.7843C26.721 40.9627 26.6343 41.0075 26.4472 40.9586C26.1679 40.8855 25.8792 40.8669 25.591 40.9215C25.2577 40.9848 25.1164 41.2149 25.2157 41.5491C25.3209 41.9022 25.5591 42.1634 25.8148 42.4008C26.6679 43.1931 27.6576 43.715 28.7784 43.9688C28.8406 43.9828 28.911 43.9721 28.9537 44.0378C29.121 44.0378 29.2885 44.0378 29.4558 44.0378C29.4778 43.9857 29.5281 43.9874 29.5701 43.9698C29.9311 43.8186 30.0198 43.5848 29.8495 43.2146C29.703 42.8959 29.4766 42.6394 29.2139 42.4222C29.0769 42.3089 29.0769 42.218 29.1554 42.0664C30.2372 39.9777 31.3153 37.8866 32.3862 35.7918C32.4882 35.5924 32.5597 35.5182 32.7962 35.6216C33.3238 35.8524 33.8372 35.7415 34.3009 35.414C34.5222 35.2578 34.6347 35.2205 34.8263 35.5075C35.5121 36.5341 37.0837 36.585 37.6653 35.5625C37.7155 35.4743 37.7499 35.4063 37.8694 35.5128C38.908 36.4377 40.1659 36.2205 40.8689 34.9807C41.0108 34.7304 41.1217 34.6302 41.4126 34.7277C42.2317 35.0023 43.0469 35.2906 43.8786 35.526C46.1955 36.181 48.5467 36.4871 50.9534 36.4276C52.7942 36.3821 54.4069 35.7436 55.9191 34.7092C56.8244 34.0899 57.7646 33.5029 58.8469 33.2781C60.4209 32.9514 61.9835 32.9141 63.4704 33.6972C63.9644 33.9574 64.3868 34.3097 64.7716 34.7211C65.3091 35.2957 66.0601 35.4088 66.7067 35.0382C67.0871 34.82 67.3073 34.4778 67.4358 34.0602C67.4546 33.9992 67.4334 33.9211 67.5049 33.8818C67.5049 33.651 67.5049 33.4201 67.5049 33.1895C67.3545 32.4598 66.9604 31.8875 66.3895 31.4567ZM48.8213 21.5868C49.1548 21.6191 49.3876 21.9199 49.3413 22.2652C49.2725 22.7795 49.0137 23.1999 48.6981 23.5796C47.8647 24.5819 47.691 24.6332 46.4551 24.3337C46.1976 24.2713 45.9393 24.2129 45.6224 24.139C45.8406 23.9799 46.0085 23.8514 46.1822 23.7317C46.9409 23.2088 47.6406 22.6183 48.2205 21.8828C48.3689 21.6947 48.5621 21.5617 48.8213 21.5868ZM48.7133 18.4318C48.7898 18.7431 48.7284 19.0399 48.6631 19.3413C48.4554 20.2992 47.8285 20.9438 47.1412 21.5489C46.2392 22.3431 45.2355 22.977 44.207 23.5743C44.049 23.666 43.899 23.628 43.7489 23.5904C43.2058 23.4546 42.7082 23.1956 42.1277 22.9478C42.7702 22.6381 43.3395 22.3138 43.869 21.9277C45.1451 20.9972 46.3871 20.0222 47.4438 18.8201C47.683 18.548 47.9572 18.3172 48.2974 18.1889C48.5489 18.0941 48.647 18.1625 48.7133 18.4318ZM43.6899 13.2575C43.9604 12.6184 44.2178 11.9732 44.5023 11.276C44.718 11.7805 44.8344 12.2606 44.9535 12.7369C45.1535 13.5361 45.267 14.3521 45.349 15.1729C45.3647 15.3317 45.3059 15.4529 45.2289 15.5738C44.9398 16.0273 44.5439 16.3734 44.1308 16.7591C44.0521 16.2315 43.9849 15.7411 43.9044 15.253C43.8265 14.7809 43.7414 14.3099 43.6465 13.8414C43.6053 13.6378 43.6071 13.4534 43.6899 13.2575ZM45.9693 16.5283C46.1873 16.2858 46.328 15.9937 46.5108 15.729C46.7629 15.3643 47.1472 15.2852 47.5089 15.5161C47.7356 15.6608 47.8386 15.8709 47.8246 16.2185C47.8169 16.4972 47.6437 16.7805 47.4582 17.0586C46.8888 17.9118 46.1653 18.6172 45.4189 19.2958C44.1446 20.4541 42.7457 21.422 41.2171 22.1902C41.0003 22.2992 40.8217 22.3105 40.6217 22.1867C40.3592 22.0244 40.093 21.8688 39.8301 21.7075C39.7774 21.6752 39.6863 21.6335 39.731 21.561C39.8654 21.3426 39.8987 21.0623 40.1734 20.9298C42.3877 19.8618 44.3076 18.3772 45.9693 16.5283ZM42.9128 15.3604C43.0131 16.1192 43.1131 16.8781 43.214 17.6367C43.2212 17.6901 43.2054 17.7334 43.1642 17.7614C42.7422 18.0492 42.3434 18.3772 41.8576 18.6032C41.8258 18.2851 41.7999 18.0004 41.7665 17.7167C41.7579 17.6445 41.7741 17.5848 41.8038 17.5244C42.1615 16.8009 42.5741 16.1062 42.9128 15.3604ZM40.4785 9.59999C40.8151 9.50905 41.1005 9.63924 41.2991 9.97483C41.5854 10.4579 41.8178 10.9678 42.0201 11.4938C42.0607 11.5997 42.0758 11.6889 42.0129 11.791C41.6746 12.3391 41.3398 12.8896 40.9698 13.4949C40.7084 12.6283 40.4688 11.8143 40.1591 11.0253C40.0767 10.8153 39.9309 10.6326 39.9379 10.3835C39.9486 10.0085 40.161 9.68588 40.4785 9.59999ZM37.3031 9.10953C37.5658 9.01101 37.8165 9.0489 38.0178 9.27023C38.217 9.48903 38.362 9.7467 38.4861 10.0153C39.1653 11.4849 39.7712 12.9827 40.1324 14.5759C40.1692 14.7378 40.1635 14.8666 40.0858 15.0116C39.8441 15.4626 39.6134 15.9201 39.3472 16.435C39.2016 15.8153 39.0792 15.257 38.9387 14.704C38.5437 13.1471 37.9463 11.6782 37.1191 10.3128C37.0035 10.1219 36.9182 9.92703 36.9298 9.69482C36.9438 9.4218 37.0482 9.20513 37.3031 9.10953ZM34.5346 9.14509C34.8677 8.90647 35.2878 8.97195 35.5224 9.36603C36.5491 11.0924 37.484 12.8628 37.9419 14.861C38.1818 15.9086 38.3536 16.9645 38.4397 18.0813C38.4368 18.1038 38.4449 18.1786 38.4172 18.2342C38.1787 18.7107 37.9339 19.1837 37.6902 19.6574C37.6632 19.7101 37.6391 19.7384 37.5631 19.7083C37.2421 19.5808 37.0491 19.296 37.0381 18.9359C36.9763 16.9179 36.5105 14.9931 35.7658 13.1358C35.3605 12.1246 34.8922 11.1454 34.3251 10.2187C34.1059 9.86058 34.2047 9.38158 34.5346 9.14509ZM32.0382 10.2446C32.1142 9.98261 32.2784 9.79256 32.563 9.75428C32.8627 9.71406 33.0694 9.86291 33.1971 10.1214C33.4243 10.5815 33.6322 11.0498 33.8844 11.4987C35.041 13.5558 35.6737 15.7984 36.0352 18.1334C36.0394 18.1606 36.0309 18.1901 36.0227 18.2805C35.4654 17.6604 35.0492 17.0016 34.5783 16.3876C34.153 15.8326 33.9765 15.1632 33.6948 14.5421C33.1598 13.3628 32.6312 12.1806 32.0967 11.001C31.9849 10.7539 31.9649 10.4972 32.0382 10.2446ZM30.1021 10.763C30.4317 10.6715 30.7541 10.8032 30.9241 11.1408C31.1645 11.6178 31.2729 12.1485 31.4575 12.6493C32.6748 15.9521 34.4996 18.8133 37.1686 21.0579C39.3 22.8503 41.7123 24.084 44.3444 24.8733C45.7753 25.3026 47.2376 25.5486 48.7189 25.6872C48.8664 25.701 49.0143 25.7225 49.1589 25.7554C49.45 25.8214 49.6336 26.1248 49.6132 26.4889C49.5924 26.8601 49.3646 27.1551 49.0648 27.1875C48.9544 27.1994 48.8419 27.1894 48.6987 27.1894C46.6496 27.0696 44.6372 26.609 42.6821 25.8739C40.7663 25.1536 38.9278 24.2725 37.2506 23.0568C34.4373 21.0175 32.2799 18.4068 30.7994 15.1954C30.3701 14.2643 30.1029 13.2769 29.793 12.304C29.71 12.0436 29.5415 11.8129 29.5596 11.5138C29.5816 11.1476 29.7809 10.8522 30.1021 10.763ZM27.6856 12.9481C28.0964 12.7697 28.4974 12.9454 28.6585 13.3749C29.9471 16.8087 31.8293 19.8387 34.4305 22.3672C36.6308 24.5059 39.1869 26.0612 41.9993 27.1722C42.9942 27.5651 44.0023 27.9234 45.041 28.1783C45.5307 28.2986 46.026 28.3624 46.5312 28.315C46.7477 28.2947 46.9547 28.3418 47.1515 28.4407C47.465 28.5983 47.6597 28.895 47.6332 29.1836C47.6047 29.4956 47.3622 29.7556 47.0087 29.8312C46.8365 29.868 46.6589 29.8767 46.506 29.8954C45.8191 29.86 45.1875 29.6596 44.5509 29.4925C42.09 28.8468 39.7154 27.9644 37.4627 26.7398C34.8205 25.3036 32.6845 23.2749 30.9165 20.8105C29.4646 18.7867 28.341 16.5759 27.4458 14.2369C27.4118 14.1479 27.3748 14.06 27.334 13.9741C27.1368 13.5591 27.286 13.1217 27.6856 12.9481ZM24.351 19.8764C24.49 19.5152 24.8613 19.3333 25.2189 19.4547C25.2595 19.4685 25.3045 19.4955 25.3283 19.5305C25.7363 20.1308 26.1415 20.733 26.5842 21.3898C25.8667 21.2592 25.2612 21.0538 24.6629 20.8369C24.3236 20.7139 24.2043 20.2575 24.351 19.8764ZM23.886 22.8952C23.96 22.478 24.2309 22.2568 24.6549 22.2737C25.0325 22.2889 25.3642 22.4842 25.7243 22.5726C26.3599 22.7286 27.0039 22.8025 27.6537 22.8227C27.8453 22.8287 27.9549 22.9043 28.0503 23.0691C28.3156 23.5271 28.6356 23.9472 28.9772 24.4015C28.8985 24.4103 28.8653 24.4184 28.8323 24.4171C27.3303 24.3491 25.8255 24.3044 24.3955 23.7315C24.0152 23.5792 23.818 23.2774 23.886 22.8952ZM24.5292 26.392C24.1205 26.2188 23.9653 25.8675 24.1044 25.4379C24.2329 25.0407 24.5861 24.8588 24.9942 24.9932C26.2629 25.411 27.5766 25.4994 28.8929 25.5694C29.2265 25.5871 29.56 25.6137 29.894 25.6213C30.0301 25.6244 30.1214 25.6959 30.2112 25.7764C30.6736 26.1906 31.133 26.6082 31.6377 27.0643C31.4692 27.0913 31.3431 27.1282 31.217 27.129C29.4247 27.1422 27.6348 27.1043 25.8628 26.7839C25.4064 26.7017 24.9594 26.5742 24.5292 26.392ZM26.3727 29.8586C25.9318 29.8023 25.6504 29.4884 25.6615 29.0598C25.6718 28.6665 25.9921 28.3643 26.4281 28.3431C26.5579 28.3367 26.6906 28.3282 26.8181 28.3482C27.9627 28.5279 29.0961 28.3392 30.2329 28.2475C31.0386 28.1824 31.8448 28.1259 32.6505 28.0614C32.789 28.0503 32.898 28.0936 33.0109 28.175C33.4909 28.5213 33.9211 28.9267 34.3947 29.3654C33.7647 29.5164 33.1798 29.5644 32.5982 29.5942C31.2245 29.6641 29.8596 29.8409 28.4871 29.9235C27.7794 29.9657 27.0756 29.9486 26.3727 29.8586ZM32.5906 32.2095C32.5236 32.3323 32.4177 32.35 32.3124 32.3673C31.2251 32.5453 30.1315 32.5721 29.0361 32.4804C28.6348 32.4468 28.4298 32.1565 28.4426 31.6934C28.4533 31.3009 28.6861 31.0152 29.0536 31.0096C30.4535 30.9888 31.8499 30.933 33.2618 30.6641C33.0654 31.2187 32.8549 31.7255 32.5906 32.2095ZM34.8098 33.3603C34.5678 33.7363 34.2845 34.08 33.9699 34.3939C33.7987 34.5647 33.5947 34.6717 33.3526 34.6904C33.0457 34.656 32.8324 34.4869 32.7202 34.198C32.6089 33.9112 32.6095 33.6067 32.8537 33.4046C33.6882 32.7138 34.0552 31.7488 34.3578 30.743C34.4161 30.549 34.5387 30.4377 34.7118 30.4293C35.1005 30.4107 35.4905 30.3996 35.8797 30.4466C36.0177 30.4632 36.0447 30.5016 35.9955 30.645C35.673 31.5848 35.3482 32.523 34.8098 33.3603ZM36.821 34.9877C36.7083 35.1807 36.5252 35.2662 36.302 35.2658C35.7208 35.2495 35.3852 34.6659 35.6203 34.1861C36.094 33.2196 36.4401 32.1959 36.6595 31.132C36.7005 30.9336 36.7678 30.9202 36.9283 31.0298C37.2452 31.2461 37.5724 31.4478 37.9051 31.6374C38.0408 31.7148 38.0907 31.7917 38.0503 31.9503C37.7771 33.0224 37.3754 34.0385 36.821 34.9877ZM40.4962 33.0152C40.3849 33.541 40.2179 34.0491 39.9778 34.5258C39.8042 34.8701 39.4923 35.0095 39.1742 35.0357C38.7061 35.0386 38.4072 34.7343 38.3767 34.2784C38.3571 33.9835 38.4329 33.7106 38.5336 33.4399C38.6694 33.0748 38.8565 32.7278 38.8983 32.329C38.9103 32.2138 38.9673 32.1928 39.0726 32.2363C39.5104 32.4178 39.9486 32.5991 40.392 32.7649C40.5355 32.8187 40.5174 32.9157 40.4962 33.0152ZM41.1699 31.8545C36.8414 30.1977 33.0994 27.6508 30.0489 24.0403C28.5215 22.2325 27.1172 20.3424 26.091 18.1765C25.9075 17.7892 25.7311 17.3973 25.5748 16.9978C25.4417 16.6579 25.4369 16.3056 25.5875 15.9622C25.6926 15.7226 25.8815 15.5771 26.123 15.5538C26.3634 15.5304 26.4987 15.7106 26.6125 15.914C27.6129 17.7004 28.6146 19.487 29.8167 21.1403C30.9239 22.663 32.0794 24.1445 33.4888 25.3871C34.5949 26.3622 35.8333 27.1457 37.0489 27.9593C38.3907 28.8573 39.7844 29.6563 41.2991 30.2092C42.2931 30.572 43.3104 30.8131 44.3638 30.8837C44.4557 30.8899 44.547 30.9132 44.6378 30.9326C44.8523 30.9785 45.0837 31.0403 45.1265 31.2914C45.1687 31.5385 44.9705 31.6845 44.7981 31.8178C44.6623 31.9227 44.5018 31.9824 44.3401 32.0204C43.869 32.1314 43.3912 32.1963 43.0469 32.2116C42.3042 32.2179 41.7278 32.068 41.1699 31.8545ZM66.1013 33.9751C65.8856 34.0872 65.7012 33.9743 65.5499 33.8193C65.079 33.337 64.5722 32.9071 63.978 32.5935C62.7573 31.9489 61.453 31.7925 60.1091 31.8904C59.6104 31.9268 59.11 31.9697 58.618 32.0727C57.524 32.3016 56.5831 32.8799 55.6461 33.4673C54.7345 34.0388 53.8338 34.634 52.7981 34.9494C52.1875 35.1354 51.5543 35.1698 50.9262 35.2022C48.8338 35.3103 46.78 35.0285 44.7507 34.5106C43.6796 34.2372 42.6446 33.8449 41.5889 33.5218C41.448 33.4786 41.4299 33.3929 41.4674 33.2592C41.504 33.1281 41.5387 33.0317 41.7059 33.0754C42.557 33.2981 43.4081 33.2923 44.2717 33.1215C44.5962 33.0573 44.9193 33.2485 45.2429 33.3218C46.6107 33.6314 47.9762 33.9578 49.3736 34.0865C50.6907 34.2077 52.001 34.1644 53.2151 33.5433C53.9454 33.1696 54.6315 32.7046 55.3509 32.3063C56.5815 31.625 57.8646 31.0916 59.2439 30.8087C61.3457 30.3775 63.2806 30.7552 65.0547 32.0002C65.4144 32.2527 65.8062 32.4633 66.0798 32.8302C66.2245 33.0241 66.324 33.2359 66.3376 33.4673C66.3301 33.686 66.2858 33.8793 66.1013 33.9751Z" fill="var(--fill-0, #BBB9BA)"/>
<path id="Vector_7" d="M42.0186 39.6064L42.2182 47.7008L5.01694 48.6184L4.82301 40.7544L4.62402 48.822L4.61916 49.016L4.82301 49.021L43.3962 49.9724L44.5174 50L44.5466 48.822L44.7737 39.6064H42.0186Z" fill="var(--fill-0, #BBB9BA)"/>
<path id="Vector_8" d="M42.9395 2.79419H1.99098V5.09028H43.0301C42.8721 4.33865 42.8418 3.55787 42.9395 2.79419Z" fill="var(--fill-0, #BBB9BA)"/>
<path id="Vector_9" d="M54.4145 2.79419C54.5123 3.55768 54.482 4.33865 54.324 5.09028H121.067V2.79419H54.4145Z" fill="var(--fill-0, #BBB9BA)"/>
</g>
</svg>
