<svg width="50" height="42" viewBox="0 0 50 42" fill="none" xmlns="http://www.w3.org/2000/svg">
<path d="M4.79775 22.1875C4.39326 22.1875 4.06533 22.5153 4.06533 22.9199V32.7895C4.06533 34.2411 2.88428 35.4222 1.43262 35.4222C1.02812 35.4222 0.700195 35.75 0.700195 36.1546C0.700195 36.5592 1.02812 36.887 1.43262 36.887C3.69199 36.887 5.53018 35.0489 5.53018 32.7895V22.9199C5.53018 22.5154 5.20225 22.1875 4.79775 22.1875Z" fill="#CCA2A0"/>
<path d="M48.5673 32.8108C47.1156 32.8108 45.9346 31.6298 45.9346 30.1781V29.4629C45.9346 29.0583 45.6066 28.7305 45.2021 28.7305C44.7977 28.7305 44.4697 29.0583 44.4697 29.4629V30.1781C44.4697 32.4376 46.3079 34.2757 48.5673 34.2757C48.9718 34.2757 49.2997 33.9479 49.2997 33.5433C49.2997 33.1387 48.9718 32.8108 48.5673 32.8108Z" fill="#CCA2A0"/>
<path d="M44.4697 22.62V26.0885C44.4697 26.4931 44.7977 26.8209 45.2021 26.8209C45.6066 26.8209 45.9346 26.4931 45.9346 26.0885V22.62C45.9346 20.6105 44.4807 18.9343 42.5695 18.588V9.87807L44.1309 10.2589C44.1514 11.8596 45.4599 13.1554 47.0653 13.1554C48.6835 13.1554 50 11.839 50 10.2208C50 8.60249 48.6835 7.28599 47.0653 7.28599C45.9477 7.28599 44.9739 7.91411 44.4784 8.83589L28.0909 4.83901L42.0105 1.44409C42.4035 1.34829 42.6444 0.952002 42.5485 0.559033C42.4527 0.166162 42.0567 -0.0745603 41.6634 0.0210452L25 4.08511L8.33652 0.0210452C7.94336 -0.0748533 7.54717 0.166065 7.45137 0.559033C7.35557 0.952002 7.59639 1.34829 7.98936 1.44409L21.909 4.83901L5.52158 8.83579C5.02617 7.91401 4.05244 7.28589 2.93467 7.28589C1.3165 7.28589 0 8.60249 0 10.2207C0 11.8388 1.3165 13.1553 2.93467 13.1553C4.54014 13.1553 5.84863 11.8595 5.86914 10.2588L7.43047 9.87798V14.3633C5.51934 14.7096 4.06543 16.3858 4.06543 18.3953V19.5428C4.06543 19.9474 4.39336 20.2752 4.79785 20.2752C5.20234 20.2752 5.53027 19.9474 5.53027 19.5428V18.3953C5.53027 17.1976 6.33408 16.1843 7.43047 15.8663V41.0673C7.43047 41.4719 7.7584 41.7998 8.16289 41.7998C8.56738 41.7998 8.89531 41.4719 8.89531 41.0673V37.425L11.1629 38.7403C11.2765 38.8062 11.4034 38.8392 11.5304 38.8392C11.6573 38.8392 11.7843 38.8062 11.8979 38.7403L14.1654 37.425V41.0673C14.1654 41.4719 14.4934 41.7998 14.8979 41.7998C15.3023 41.7998 15.6303 41.4719 15.6303 41.0673V38.5286L18.2652 37.0002L20.9002 38.5286V41.0673C20.9002 41.4719 21.2281 41.7998 21.6326 41.7998C22.0371 41.7998 22.365 41.4719 22.365 41.0673V37.425L24.6326 38.7403C24.7462 38.8062 24.8731 38.8392 25.0001 38.8392C25.1271 38.8392 25.254 38.8062 25.3676 38.7403L27.6352 37.425V41.0673C27.6352 41.4719 27.9631 41.7998 28.3676 41.7998C28.7721 41.7998 29.1 41.4719 29.1 41.0673V38.5286L31.735 37.0002L34.3699 38.5286V41.0673C34.3699 41.4719 34.6979 41.7998 35.1023 41.7998C35.5068 41.7998 35.8348 41.4719 35.8348 41.0673V37.425L38.1023 38.7403C38.2159 38.8062 38.3429 38.8392 38.4698 38.8392C38.5968 38.8392 38.7237 38.8062 38.8373 38.7403L41.1049 37.425V41.0673C41.1049 41.4719 41.4328 41.7998 41.8373 41.7998C42.2418 41.7998 42.5697 41.4719 42.5697 41.0673V20.0909C43.6659 20.4089 44.4697 21.4223 44.4697 22.62ZM15.6302 7.87808L20.9001 6.59272V15.7117L18.6325 14.3964C18.4054 14.2646 18.1248 14.2646 17.8976 14.3964L15.6301 15.7116L15.6302 7.87808ZM41.1047 18.8329L38.4697 20.3612L35.8348 18.8329V16.3016L38.1023 17.6167C38.3295 17.7486 38.6101 17.7486 38.8372 17.6167L41.1048 16.3016V18.8329H41.1047ZM38.8371 26.0662L41.1047 24.751V27.2823L38.4697 28.8106L35.8348 27.2823V24.751L38.1023 26.0662C38.1165 26.0744 38.131 26.0821 38.1455 26.0893C38.2477 26.1398 38.3587 26.165 38.4697 26.165C38.5808 26.165 38.6919 26.1397 38.7939 26.0893C38.8085 26.0821 38.8229 26.0744 38.8371 26.0662ZM11.2061 21.8646C11.3082 21.9151 11.4192 21.9403 11.5303 21.9403C11.6413 21.9403 11.7524 21.915 11.8545 21.8646C11.869 21.8574 11.8835 21.8497 11.8977 21.8415L14.1652 20.5263V23.0576L11.5303 24.5859L8.89531 23.0576V20.5263L11.1629 21.8415C11.1771 21.8497 11.1915 21.8574 11.2061 21.8646ZM17.8977 22.8459L15.6302 24.1611V21.6298L18.2651 20.1015L20.9001 21.6298V24.1611L18.6325 22.8459C18.6184 22.8377 18.6039 22.83 18.5894 22.8228C18.4872 22.7723 18.3762 22.7471 18.2651 22.7471C18.1541 22.7471 18.043 22.7724 17.9408 22.8228C17.9263 22.83 17.9118 22.8377 17.8977 22.8459ZM22.365 23.0576V20.5263L24.6326 21.8415C24.6468 21.8497 24.6612 21.8574 24.6758 21.8646C24.7779 21.9151 24.889 21.9403 25 21.9403C25.111 21.9403 25.2222 21.915 25.3242 21.8646C25.3388 21.8574 25.3532 21.8497 25.3674 21.8415L27.635 20.5263V23.0576L25 24.586L22.365 23.0576ZM34.3698 17.4051V19.9364L32.1023 18.6212C31.875 18.4892 31.5945 18.4894 31.3674 18.6212L29.0998 19.9364V17.4051L31.7348 15.8768L34.3698 17.4051ZM31.3674 22.8459L29.0998 24.1611V21.6298L31.7348 20.1015L34.3697 21.6298V24.1611L32.1022 22.8459C31.875 22.714 31.5945 22.7141 31.3674 22.8459ZM34.3698 15.7117L32.1023 14.3965C31.875 14.2645 31.5945 14.2646 31.3674 14.3965L29.0998 15.7117V13.1804L31.7348 11.6521L34.3697 13.1804L34.3698 15.7117ZM25.3675 17.6167L27.6351 16.3016V18.8329L25 20.3613L22.365 18.833V16.3017L24.6326 17.6168C24.6468 17.625 24.6612 17.6328 24.6758 17.64C24.7779 17.6905 24.889 17.7157 25 17.7157C25.111 17.7157 25.2222 17.6904 25.3242 17.64C25.3389 17.6328 25.3532 17.625 25.3675 17.6167ZM20.9002 19.9364L18.6326 18.6212C18.6185 18.613 18.604 18.6053 18.5895 18.5981C18.4873 18.5476 18.3763 18.5224 18.2652 18.5224C18.1542 18.5224 18.0431 18.5477 17.9409 18.5981C17.9264 18.6053 17.9119 18.613 17.8978 18.6212L15.6303 19.9364V17.4051L18.2652 15.8768L20.9002 17.4051V19.9364ZM8.89531 27.2823V24.751L11.1629 26.0662C11.1771 26.0744 11.1915 26.0821 11.2061 26.0893C11.3082 26.1398 11.4192 26.165 11.5303 26.165C11.6413 26.165 11.7524 26.1397 11.8545 26.0893C11.869 26.0821 11.8835 26.0744 11.8977 26.0662L14.1652 24.751V27.2823L11.5303 28.8106L8.89531 27.2823ZM17.8977 27.0707L15.6302 28.3858V25.8545L18.2651 24.3262L20.9001 25.8545V28.3858L18.6325 27.0707C18.6184 27.0624 18.6039 27.0547 18.5894 27.0475C18.4872 26.997 18.3762 26.9718 18.2651 26.9718C18.1541 26.9718 18.043 26.9971 17.9408 27.0475C17.9263 27.0546 17.9118 27.0624 17.8977 27.0707ZM22.365 27.2823V24.751L24.6326 26.0662C24.6468 26.0744 24.6612 26.0821 24.6758 26.0893C24.7779 26.1398 24.889 26.165 25 26.165C25.111 26.165 25.2222 26.1397 25.3242 26.0893C25.3388 26.0821 25.3532 26.0744 25.3674 26.0662L27.635 24.751V27.2823L25 28.8106L22.365 27.2823ZM31.3674 27.0707L29.0998 28.3858V25.8545L31.7348 24.3262L34.3697 25.8545V28.3858L32.1022 27.0707C31.875 26.9385 31.5945 26.9387 31.3674 27.0707ZM34.3698 11.4871L32.1023 10.1719C31.875 10.0398 31.5945 10.04 31.3674 10.1719L29.0998 11.4872V6.59282L34.3697 7.87817L34.3698 11.4871ZM27.635 14.6083L25 16.1366L22.365 14.6083V12.077L24.6326 13.3921C24.8598 13.524 25.1403 13.524 25.3675 13.3921L27.6351 12.077V14.6083H27.635ZM14.1653 18.8329L11.5304 20.3612L8.89541 18.8329V16.3016L11.163 17.6167C11.3901 17.7486 11.6707 17.7486 11.8979 17.6167L14.1654 16.3016V18.8329H14.1653ZM8.89531 31.507V28.9757L11.1629 30.2909C11.1771 30.2991 11.1915 30.3068 11.2061 30.314C11.3082 30.3645 11.4192 30.3897 11.5303 30.3897C11.6413 30.3897 11.7524 30.3644 11.8545 30.314C11.869 30.3068 11.8835 30.2991 11.8977 30.2909L14.1652 28.9757V31.507L11.5303 33.0353L8.89531 31.507ZM17.8977 31.2954L15.6302 32.6105V30.0792L18.2651 28.5509L20.9001 30.0792V32.6105L18.6325 31.2954C18.6184 31.2872 18.6039 31.2794 18.5894 31.2722C18.4872 31.2217 18.3762 31.1965 18.2651 31.1965C18.1541 31.1965 18.043 31.2218 17.9408 31.2722C17.9263 31.2793 17.9118 31.2871 17.8977 31.2954ZM22.365 31.507V28.9757L24.6326 30.2909C24.6468 30.2991 24.6612 30.3068 24.6758 30.314C24.7779 30.3645 24.889 30.3897 25 30.3897C25.111 30.3897 25.2222 30.3644 25.3242 30.314C25.3388 30.3068 25.3532 30.2991 25.3674 30.2909L27.635 28.9757V31.507L25 33.0353L22.365 31.507ZM31.3674 31.2954L29.0998 32.6105V30.0792L31.7348 28.5509L34.3697 30.0792V32.6105L32.1022 31.2954C31.875 31.1633 31.5945 31.1635 31.3674 31.2954ZM35.8347 31.507V28.9757L38.1022 30.2909C38.1164 30.2991 38.1309 30.3068 38.1454 30.314C38.2476 30.3645 38.3586 30.3897 38.4696 30.3897C38.5807 30.3897 38.6918 30.3644 38.7938 30.314C38.8084 30.3068 38.8229 30.2991 38.837 30.2909L41.1046 28.9757V31.507L38.4696 33.0353L35.8347 31.507ZM41.1047 20.5263V23.0576L38.4697 24.5859L35.8348 23.0576V20.5263L38.1023 21.8415C38.1165 21.8497 38.131 21.8574 38.1455 21.8646C38.2477 21.9151 38.3587 21.9403 38.4697 21.9403C38.5808 21.9403 38.6919 21.915 38.7939 21.8646C38.8085 21.8574 38.8229 21.8497 38.8371 21.8415L41.1047 20.5263ZM41.1047 14.6083L38.4697 16.1366L35.8348 14.6083V8.2354L41.1048 9.52075V14.6083H41.1047ZM47.0653 8.75073C47.8758 8.75073 48.5352 9.41011 48.5352 10.2207C48.5352 11.0311 47.8758 11.6905 47.0653 11.6905C46.2549 11.6905 45.5955 11.0311 45.5955 10.2207C45.5954 9.41011 46.2548 8.75073 47.0653 8.75073ZM27.635 6.2355V10.3835L25 11.9119L22.365 10.3835V6.2355L25 5.59282L27.635 6.2355ZM2.93467 11.6905C2.12422 11.6905 1.46484 11.0311 1.46484 10.2207C1.46484 9.41011 2.12422 8.75073 2.93467 8.75073C3.74512 8.75073 4.40449 9.41011 4.40449 10.2207C4.40459 11.0311 3.74521 11.6905 2.93467 11.6905ZM14.1653 8.2354V14.6083L11.5304 16.1366L8.89541 14.6083V9.52065L14.1653 8.2354ZM11.5304 37.2601L8.89541 35.7318V33.2004L11.163 34.5156C11.1771 34.5238 11.1916 34.5315 11.2062 34.5387C11.3083 34.5892 11.4193 34.6144 11.5304 34.6144C11.6414 34.6144 11.7525 34.5891 11.8546 34.5387C11.8691 34.5315 11.8836 34.5238 11.8978 34.5156L14.1653 33.2004V35.7318L11.5304 37.2601ZM18.2651 35.4212C18.1382 35.4212 18.0112 35.4542 17.8977 35.5202L15.6302 36.8353V34.304L18.2651 32.7756L20.9001 34.304V36.8353L18.6325 35.5202C18.519 35.4542 18.3921 35.4212 18.2651 35.4212ZM25 37.2601L22.365 35.7318V33.2004L24.6326 34.5156C24.6468 34.5238 24.6612 34.5315 24.6758 34.5387C24.7779 34.5892 24.889 34.6144 25 34.6144C25.111 34.6144 25.2222 34.5891 25.3242 34.5387C25.3388 34.5315 25.3532 34.5238 25.3674 34.5156L27.635 33.2004V35.7318L25 37.2601ZM31.3674 35.5201L29.0998 36.8352V34.3039L31.7348 32.7755L34.3697 34.3039V36.8352L32.1022 35.5201C31.875 35.3881 31.5945 35.3882 31.3674 35.5201ZM38.4696 37.2601L35.8347 35.7318V33.2004L38.1022 34.5156C38.1164 34.5238 38.1309 34.5315 38.1454 34.5387C38.2476 34.5892 38.3586 34.6144 38.4696 34.6144C38.5807 34.6144 38.6918 34.5891 38.7938 34.5387C38.8084 34.5315 38.8229 34.5238 38.837 34.5156L41.1046 33.2004V35.7318L38.4696 37.2601Z" fill="#CCA2A0"/>
</svg>
