<svg width="46" height="46" viewBox="0 0 46 46" fill="none" xmlns="http://www.w3.org/2000/svg">
<path d="M26.9456 6.83696C25.2105 6.83696 24.3998 6.49097 23.2534 5.93714C22.453 5.55113 21.548 5.11349 20.2157 4.88757C19.7896 4.81527 19.5043 4.41248 19.5766 3.98646C19.6489 3.56043 20.0517 3.27512 20.4777 3.34742C22.8493 3.7502 23.9996 4.70166 25.1873 5.05669C25.6869 5.20644 26.2304 5.27357 26.9469 5.27357C28.5206 5.27357 29.0538 4.94953 29.9885 4.51576C31.1697 3.94514 32.7886 3.16797 35.6675 3.16797C35.8302 3.16797 35.9967 3.17055 36.162 3.17571C36.5932 3.18862 36.9327 3.54881 36.9185 3.98129C36.9056 4.41248 36.5454 4.75201 36.1129 4.73781C33.478 4.65648 32.1405 5.23097 30.6339 5.93843C29.5947 6.44192 28.7723 6.83696 26.9456 6.83696ZM29.9755 4.52351C29.9743 4.5248 29.973 4.5248 29.9717 4.52609C29.973 4.5248 29.9743 4.52351 29.9755 4.52351Z" fill="#CCA2A0"/>
<path d="M24.2401 11.2016C22.9336 10.924 21.9938 10.4709 21.2398 10.1068C20.3929 9.6976 19.8339 9.42778 18.6837 9.37227C18.2525 9.35161 17.9207 8.98497 17.9413 8.55378C17.962 8.12259 18.3286 7.79081 18.7598 7.81146C21.4051 7.93927 21.9783 9.12311 24.5667 9.67307C25.2987 9.82799 26.0772 9.90415 26.9473 9.90415C31.2372 9.90415 31.8892 8.11743 34.7035 7.84245C35.1334 7.80113 35.5156 8.11484 35.5569 8.54345C35.5995 8.97335 35.2845 9.35548 34.8559 9.3968C33.9354 9.48717 33.4268 9.73245 32.6547 10.1043C31.8104 10.5122 30.7609 11.0183 29.2207 11.2829C27.7257 11.5398 25.8344 11.5398 24.2401 11.2016Z" fill="#CCA2A0"/>
<path d="M41.3284 11.1196C40.3976 10.8886 39.6695 10.5736 39.0795 10.296C38.6896 10.1127 38.5218 9.64663 38.7051 9.25675C38.8884 8.86687 39.3545 8.69904 39.7444 8.88236C40.2917 9.13927 40.9075 9.40521 41.7041 9.60273C42.6762 9.84415 43.6057 9.10828 43.6057 8.11422C43.6057 7.41063 43.1242 6.79871 42.4335 6.62442C41.677 6.43336 41.1038 6.13126 40.4041 5.7969C40.0142 5.611 39.8502 5.14495 40.0361 4.75507C40.222 4.36519 40.6881 4.20124 41.078 4.38714C41.7544 4.70989 42.2244 4.96034 42.8169 5.11009C44.2021 5.45995 45.1691 6.69543 45.1691 8.11551C45.1691 10.1062 43.2997 11.6076 41.3284 11.1196Z" fill="#CCA2A0"/>
<path d="M9.50264 11.4676C5.39729 11.4676 3.97979 9.93783 2.35185 9.52729C-0.157831 8.89471 -0.836891 5.66852 1.18738 4.08448C1.94261 3.49321 2.90956 3.28794 3.83907 3.51774C4.23153 3.61585 4.60721 3.73204 4.98805 3.87276C6.91808 4.58797 7.33249 5.27606 9.50135 5.27606C10.9731 5.27606 11.554 4.99592 12.5158 4.53116L12.5184 4.52987C13.2013 4.20067 13.9746 3.82758 15.0294 3.5513C15.5251 3.42091 16.0092 3.79659 16.0092 4.30653C16.0092 4.67575 15.7523 4.98559 15.4076 5.06692C14.5078 5.30447 13.8417 5.62592 13.1975 5.93705C13.1949 5.93834 13.1936 5.93834 13.1949 5.93834C12.1311 6.45216 11.2287 6.89367 9.17215 6.833C6.4417 6.75554 5.90982 5.64012 3.46339 5.03207C2.49644 4.79194 1.56177 5.52523 1.56177 6.52058C1.56177 7.22417 2.04331 7.8361 2.73398 8.01038C4.70791 8.50999 5.76135 9.90426 9.50135 9.90426C11.5463 9.90426 12.8166 9.46791 13.6958 9.08706C14.0921 8.91536 14.5517 9.09739 14.7234 9.49372C14.8951 9.89006 14.7131 10.3497 14.3167 10.5214C13.302 10.9616 11.8355 11.4676 9.50264 11.4676Z" fill="#CCA2A0"/>
<path d="M41.3285 21.4102C39.0538 20.846 38.305 19.9423 36.7416 19.719C36.4254 19.6738 36.0729 19.6519 35.6663 19.6519C33.5477 19.6519 33.1772 20.2702 31.313 20.9945C30.8031 21.192 30.2493 20.8176 30.2493 20.2664C30.2493 19.9268 30.4649 19.6389 30.767 19.5305C32.5033 18.8514 33.1553 18.0885 35.6663 18.0885C38.7001 18.0885 39.1597 19.262 41.7042 19.8933C42.6802 20.1347 43.6058 19.395 43.6058 18.4048C43.6058 17.7012 43.1243 17.0892 42.4336 16.915C40.4804 16.4218 39.4385 15.0288 35.6921 15.0211H35.6663C33.518 15.0211 32.2116 15.4897 31.1207 15.9971C30.7295 16.1791 30.2648 16.0087 30.0827 15.6175C29.9007 15.2263 30.0711 14.7616 30.4623 14.5796C31.6564 14.0257 33.2082 13.459 35.6663 13.459H35.6934C39.7729 13.4667 41.1981 14.9914 42.8158 15.3993C44.201 15.7492 45.1679 16.9847 45.1679 18.4048C45.1692 20.3968 43.2999 21.8982 41.3285 21.4102Z" fill="#CCA2A0"/>
<path d="M9.38264 20.9972C9.36327 20.566 9.69635 20.2006 10.1275 20.1812C13.1536 20.0444 14.2923 18.9393 15.8492 18.4242C16.5489 18.1931 17.2809 18.0898 18.2233 18.0898C19.992 18.0898 20.8066 18.4552 21.9169 18.9897C22.938 19.4828 24.0935 20.0405 26.0829 20.1683C26.5141 20.1954 26.8407 20.5673 26.8123 20.9984C26.7852 21.4296 26.4134 21.7563 25.9822 21.7279C23.8146 21.5884 22.5185 21.0152 21.2262 20.393C20.2838 19.9385 19.6963 19.6532 18.222 19.6532C16.7632 19.6532 16.1784 19.9295 15.2089 20.3981C14.0689 20.9481 12.6527 21.6323 10.1973 21.7433C9.77381 21.7627 9.4033 21.4322 9.38264 20.9972Z" fill="#CCA2A0"/>
<path d="M26.1772 17.0996C23.5927 16.9085 22.942 15.5814 20.0128 15.145C18.6559 14.9423 16.8434 14.9617 15.3342 15.3748C13.2221 15.9519 12.5405 16.915 10.3316 17.0944C9.90173 17.1293 9.52476 16.8091 9.4899 16.3792C9.45504 15.9493 9.77521 15.5723 10.2051 15.5375C12.0228 15.3903 12.6554 14.4879 14.9211 13.8682C15.9294 13.5932 17.0099 13.459 18.2221 13.459C20.8532 13.459 22.3765 14.0696 23.9283 14.8197C24.7365 15.2096 25.2684 15.4665 26.2895 15.5413C26.7194 15.5736 27.0435 15.948 27.0112 16.3779C26.9828 16.8065 26.611 17.1318 26.1772 17.0996Z" fill="#CCA2A0"/>
<path d="M5.24497 21.0372C3.97722 20.5595 3.27234 20.0483 2.35316 19.8159C0.967927 19.4661 0.000976562 18.2306 0.000976562 16.8105C0.000976562 14.7966 1.89098 13.3223 3.84167 13.8051C4.30642 13.92 4.75569 14.0646 5.21399 14.2466C5.61549 14.4054 5.81172 14.8598 5.65293 15.26C5.49413 15.6615 5.03971 15.8578 4.6395 15.699C4.24575 15.5428 3.86232 15.4201 3.46599 15.322C2.49775 15.0819 1.56436 15.8152 1.56436 16.8105C1.56436 17.5141 2.0459 18.126 2.73658 18.3003C3.86103 18.5843 4.60206 19.1227 5.79752 19.5745C6.2016 19.7268 6.40557 20.1774 6.25324 20.5815C6.09832 20.9869 5.64776 21.1895 5.24497 21.0372Z" fill="#CCA2A0"/>
<path d="M41.3283 31.6993C40.8648 31.5844 40.4155 31.4411 39.9559 31.2591C39.5545 31.1003 39.3582 30.6471 39.517 30.2456C39.6758 29.8441 40.1289 29.6479 40.5304 29.8067C40.9255 29.9629 41.3089 30.0856 41.7039 30.1837C41.8279 30.2147 41.9531 30.2301 42.077 30.2301C42.9201 30.2301 43.6056 29.542 43.6056 28.6952C43.6056 27.9916 43.124 27.3796 42.4334 27.2054C41.3076 26.9213 40.5692 26.383 39.3724 25.9312C38.9683 25.7788 38.7644 25.3283 38.9167 24.9242C39.069 24.5201 39.5196 24.3161 39.9237 24.4685C41.1746 24.9397 41.904 25.4586 42.8168 25.6897C44.202 26.0396 45.169 27.2751 45.169 28.6952C45.169 30.6872 43.2996 32.1886 41.3283 31.6993Z" fill="#CCA2A0"/>
<path d="M26.9459 32.0471C24.3149 32.0471 22.7941 31.4364 21.2398 30.6864C20.4342 30.2978 19.9023 30.0409 18.8837 29.9647C18.4758 29.9376 18.1543 29.5994 18.1543 29.1849C18.1543 28.7305 18.5403 28.3729 18.9934 28.4065C20.3128 28.5046 21.0577 28.8635 21.9201 29.2805C23.2744 29.935 24.5666 30.485 26.9472 30.485C28.0187 30.485 28.965 30.3688 29.8365 30.1312C31.9511 29.5542 32.6302 28.5911 34.8377 28.4116C35.2676 28.3768 35.6446 28.697 35.6795 29.1269C35.7143 29.5568 35.3942 29.9337 34.9643 29.9686C33.1401 30.117 32.5243 31.0156 30.2483 31.6378C29.2387 31.9128 28.1582 32.0471 26.9459 32.0471Z" fill="#CCA2A0"/>
<path d="M26.9455 27.418C25.8055 27.418 24.9845 27.2708 24.1105 26.9119C22.8298 26.3852 21.6524 25.5047 19.0846 25.3395C18.6535 25.3124 18.3268 24.9406 18.3552 24.5094C18.3823 24.0782 18.7542 23.7529 19.1853 23.78C22.0901 23.9659 23.5037 24.9716 24.7056 25.466C25.2724 25.6997 25.8701 25.8546 26.9455 25.8546C28.4017 25.8546 28.9878 25.5796 29.9548 25.1123L29.9599 25.1097C31.0986 24.5597 32.5148 23.8768 34.969 23.7645C35.4002 23.7451 35.7655 24.0782 35.7849 24.5094C35.8042 24.9406 35.4712 25.3059 35.04 25.3253C33.0157 25.4169 31.8616 25.9256 30.6325 26.5194C30.1975 26.7299 29.7869 26.9274 29.317 27.0823C28.6186 27.3147 27.8866 27.418 26.9455 27.418Z" fill="#CCA2A0"/>
<path d="M9.50265 32.0475H9.47554C5.40506 32.0411 3.95786 30.5112 2.35316 30.1072C0.967927 29.7573 0.000976562 28.5218 0.000976562 27.1017C0.000976562 25.0917 1.88711 23.6122 3.84167 24.0963C6.10994 24.6579 6.86775 25.5642 8.42855 25.7875C8.74613 25.8327 9.09728 25.8546 9.50395 25.8546C11.6225 25.8546 11.9852 25.2388 13.8559 24.512C14.2587 24.3558 14.7105 24.5546 14.8667 24.9574C15.0229 25.3602 14.8241 25.812 14.4213 25.9682C12.6694 26.6486 12.0227 27.4167 9.50265 27.4167C6.45205 27.4167 6.03119 26.2484 3.4647 25.6119C3.00382 25.4983 2.52486 25.6003 2.15176 25.8921C1.15125 26.6744 1.48045 28.2727 2.73529 28.5902C4.6821 29.0808 5.73297 30.4764 9.47683 30.4841H9.50265C11.6509 30.4841 12.9573 30.0155 14.0482 29.5081C14.4394 29.3261 14.9042 29.4965 15.0862 29.8877C15.2682 30.2789 15.0978 30.7436 14.7066 30.9256C13.5125 31.4808 11.9607 32.0475 9.50265 32.0475Z" fill="#CCA2A0"/>
<path d="M41.3284 41.9916C40.9372 41.8948 40.5447 41.7734 40.1794 41.6366C38.2042 40.9033 37.8478 40.2333 35.6661 40.2333C34.1944 40.2333 33.6134 40.5134 32.6516 40.9782C32.0023 41.2919 31.1941 41.6818 30.1368 41.958C29.641 42.0871 29.1582 41.7127 29.1582 41.2028C29.1582 40.8336 29.4151 40.5237 29.7598 40.4424C32.2927 39.7737 32.7355 38.5808 35.9953 38.6763C38.7089 38.7538 39.2938 39.8782 41.704 40.4773C42.68 40.7187 43.6057 39.9789 43.6057 38.9887C43.6057 38.2852 43.1241 37.6732 42.4334 37.4989C40.4866 37.0071 39.4164 35.6051 35.6661 35.6051C33.6199 35.6051 32.3495 36.0427 31.4717 36.4223C31.0753 36.594 30.6157 36.4119 30.444 36.0169C30.2723 35.6206 30.4544 35.161 30.8494 34.9893C31.8654 34.549 33.332 34.043 35.6661 34.043C39.7534 34.043 41.1993 35.5754 42.8156 35.9833C44.2008 36.3332 45.1678 37.5687 45.1678 38.9887C45.169 40.9795 43.2997 42.4809 41.3284 41.9916Z" fill="#CCA2A0"/>
<path d="M9.50269 42.3383C9.33615 42.3383 9.16832 42.3357 9.00566 42.3305C8.57447 42.3163 8.23623 41.9549 8.25043 41.5237C8.26463 41.0925 8.62482 40.7542 9.0573 40.7684C9.20318 40.7736 9.35294 40.7762 9.50269 40.7762C12.0317 40.7762 13.4079 40.1126 14.513 39.5794L14.5195 39.5769C15.8001 38.9365 16.6612 38.6719 18.2246 38.6719C20.0023 38.6719 20.8272 39.045 21.9155 39.5704C22.9109 40.0507 23.732 40.4134 24.9545 40.62C25.3806 40.6923 25.6659 41.0951 25.5936 41.5211C25.5213 41.9471 25.1185 42.2324 24.6925 42.1601C22.3235 41.7586 21.1681 40.8046 19.9842 40.4496C19.4846 40.2998 18.9411 40.2327 18.2246 40.2327C16.7193 40.2327 16.1719 40.5232 15.1934 40.9853C14.0095 41.5559 12.3893 42.3383 9.50269 42.3383Z" fill="#CCA2A0"/>
<path d="M26.4106 37.6958C24.9428 37.6248 24.1591 37.2466 23.2516 36.8089C22.5351 36.463 21.7256 36.0731 20.6037 35.8342C19.8717 35.6793 19.0933 35.6032 18.2232 35.6032C13.9345 35.6032 13.2812 37.3899 10.4656 37.6649C10.0357 37.7075 9.65357 37.3925 9.61226 36.9639C9.56966 36.534 9.88466 36.1518 10.3133 36.1105C11.235 36.0201 11.7437 35.7749 12.5157 35.4018C13.36 34.9938 14.4096 34.4877 15.9484 34.2244C17.4331 33.9688 19.3269 33.9662 20.9278 34.307C22.2343 34.5846 23.1741 35.0377 23.928 35.4018C24.7762 35.811 25.3352 36.0808 26.4842 36.1363C26.9154 36.157 27.2472 36.5236 27.2265 36.9548C27.2084 37.3821 26.8444 37.7165 26.4106 37.6958Z" fill="#CCA2A0"/>
<path d="M4.09114 41.1198C3.41337 40.7958 2.94475 40.5479 2.35218 40.3982C0.96695 40.0483 0 38.8128 0 37.3927C0 35.3827 1.88613 33.9032 3.84069 34.3873C4.77149 34.6184 5.49961 34.9334 6.08959 35.211C6.47947 35.3943 6.6473 35.8603 6.46398 36.2502C6.28066 36.6401 5.81461 36.8079 5.42473 36.6246C4.87736 36.3677 4.26155 36.1018 3.46501 35.9042C2.49806 35.6641 1.56339 36.3974 1.56339 37.3927C1.56339 38.0963 2.04493 38.7083 2.73561 38.8825C3.49083 39.0736 4.06145 39.3731 4.76504 39.7101C5.15492 39.896 5.31887 40.362 5.13297 40.7519C4.94707 41.1405 4.48102 41.3044 4.09114 41.1198Z" fill="#CCA2A0"/>
<path d="M6.22486 45.5074C4.20317 45.5074 2.71466 43.611 3.20266 41.6448C3.48538 40.5048 3.84557 39.7845 4.22383 38.9776C4.69246 38.0068 4.97518 37.422 4.97518 35.936V35.9154C4.9726 34.4449 4.69117 33.8614 4.22383 32.8945C3.87526 32.1741 3.44278 31.2768 3.16134 30.0543C3.04903 29.565 3.42083 29.0977 3.92303 29.0977C4.3 29.0977 4.615 29.3649 4.68858 29.7199C5.316 32.4207 6.53341 32.7925 6.53857 35.9128V35.9347C6.53857 39.006 5.35344 39.4617 4.72086 42.0179C4.47815 42.9952 5.21789 43.9414 6.22615 43.9414C6.93749 43.9414 7.55716 43.4535 7.73403 42.755C8.23106 40.7824 9.64211 39.7341 9.64211 35.9334C9.64211 33.8356 9.19801 32.5549 8.76295 31.5802C8.58737 31.1865 8.76424 30.7243 9.15799 30.5487C9.55174 30.3732 10.0139 30.55 10.1895 30.9438C10.662 32.0037 11.2029 33.5283 11.2029 35.9322C11.2029 40.1175 9.66922 41.4628 9.24707 43.1359C8.89592 44.534 7.65269 45.5074 6.22486 45.5074Z" fill="#CCA2A0"/>
<path d="M3.68402 25.6683C3.25928 25.5921 2.97785 25.1854 3.05401 24.7607C3.47617 22.4201 4.42246 21.2944 4.76974 20.0899C4.91046 19.6045 4.97501 19.0545 4.97501 18.3587C4.97501 16.9592 4.73746 16.3641 4.22107 15.3132C3.61043 14.0481 2.77 12.2884 2.85908 9.14618C2.87069 8.71499 3.23088 8.37416 3.66207 8.38707C4.09326 8.39869 4.43279 8.75888 4.42117 9.19007C4.35533 11.5461 4.78523 12.8939 5.63083 14.6393C6.1369 15.6876 6.5371 16.5164 6.5371 18.36C6.5371 21.6649 5.14025 22.0006 4.59158 25.0395C4.51541 25.4617 4.11004 25.7457 3.68402 25.6683Z" fill="#CCA2A0"/>
<path d="M8.27102 27.3408C7.83983 27.3163 7.51192 26.9458 7.53645 26.5159C7.68491 23.9597 8.85067 23.3297 9.39934 20.7955C9.70144 19.4025 9.70402 17.7268 9.49746 16.441C9.27412 15.048 8.82356 14.1146 8.42594 13.291L8.42465 13.2871C8.04639 12.5022 7.71848 11.8244 7.58421 10.7348C7.53128 10.3062 7.83596 9.91633 8.26456 9.8634C8.69317 9.81047 9.08305 10.1151 9.13598 10.5437C9.23926 11.3777 9.48842 11.8941 9.83312 12.608C9.83441 12.6106 9.8357 12.6132 9.83441 12.6119C10.2566 13.4859 10.782 14.5742 11.0415 16.1931C11.279 17.6726 11.2713 19.5419 10.9279 21.126C10.6477 22.4208 10.1959 23.3555 9.83312 24.1069C9.42904 24.946 9.1618 25.4986 9.09725 26.6062C9.07143 27.0348 8.70479 27.3653 8.27102 27.3408Z" fill="#CCA2A0"/>
<path d="M8.85786 6.75574C8.46928 6.56855 8.30532 6.10121 8.49252 5.71263C8.81268 5.04777 9.11735 4.37774 9.3394 3.48567C9.5834 2.49935 8.83721 1.5621 7.83411 1.5621C7.12278 1.5621 6.5031 2.05009 6.32624 2.74852C6.11709 3.57604 5.77369 4.19055 5.42642 4.93416C5.2431 5.32533 4.77834 5.49316 4.38846 5.31113C3.99729 5.12781 3.82817 4.66305 4.01149 4.27317C4.36135 3.5244 4.64666 3.01962 4.81191 2.36638C5.16176 0.973405 6.40369 0 7.83282 0C9.83643 0 11.3456 1.87968 10.855 3.86135C10.5981 4.89801 10.2418 5.67906 9.89969 6.39039C9.71379 6.77898 9.24645 6.94294 8.85786 6.75574Z" fill="#CCA2A0"/>
<path d="M14.4226 14.9574C13.6455 13.3165 13.2246 11.7751 13.2246 9.5701C13.2246 5.39246 14.757 4.04079 15.1805 2.36638C15.5316 0.973405 16.7748 0 18.2027 0C19.9197 0 21.3178 1.39427 21.3178 3.1087C21.3178 3.55409 21.2262 3.90266 21.0945 4.34289C20.3689 6.78027 19.4536 7.10948 19.4536 9.5701C19.4536 11.7699 20.1249 12.1276 20.8621 14.1015C21.0131 14.5056 20.8079 14.9561 20.4038 15.1072C19.9997 15.2582 19.5492 15.0529 19.3981 14.6488C18.7113 12.8092 17.8915 12.1766 17.8915 9.57139C17.8915 6.68474 18.9243 6.15673 19.5982 3.8975C19.7234 3.47921 19.757 3.3101 19.757 3.10999C19.757 2.25794 19.0612 1.56339 18.204 1.56339C17.4926 1.56339 16.8729 2.05138 16.6961 2.74981C16.1939 4.73793 14.788 5.75523 14.788 9.57139C14.788 11.5363 15.1508 12.8428 15.835 14.2912C16.0196 14.6811 15.8531 15.1472 15.4632 15.3318C15.072 15.5138 14.6073 15.3473 14.4226 14.9574Z" fill="#CCA2A0"/>
<path d="M15.3063 35.0751C15.2121 34.1727 14.9668 33.6653 14.5963 32.8972C14.2865 32.2568 13.9018 31.459 13.6242 30.4211C13.357 29.4205 13.2266 28.349 13.2266 27.1484C13.2266 24.4993 13.8398 22.9669 14.5976 21.3996C14.981 20.6044 15.2353 20.0789 15.3193 19.0991C15.3567 18.6692 15.7337 18.3503 16.1649 18.3878C16.5948 18.4252 16.9136 18.8035 16.8762 19.2334C16.7677 20.4998 16.414 21.2318 16.0048 22.08C15.3774 23.3787 14.7899 24.6994 14.7899 27.1484C14.7899 31.4551 16.5702 32.129 16.862 34.9124C16.9072 35.341 16.596 35.7257 16.1661 35.7709C15.7337 35.8148 15.3502 35.5024 15.3063 35.0751Z" fill="#CCA2A0"/>
<path d="M19.9872 35.1179C19.8077 32.137 18.6872 31.0345 18.1876 29.4156C17.9849 28.7559 17.8906 28.0355 17.8906 27.1486C17.8906 25.398 18.2431 24.5744 18.7969 23.428C19.2901 22.4068 19.8478 21.2501 19.982 19.2658C20.0104 18.8359 20.3835 18.5093 20.8147 18.539C21.2446 18.5674 21.5712 18.9405 21.5415 19.3717C21.3466 22.2532 20.3487 23.6771 19.8568 24.861C19.6141 25.4419 19.454 26.0538 19.454 27.1486C19.454 27.7721 19.5005 28.3647 19.6825 28.9573C20.1073 30.3399 21.3492 31.7174 21.548 35.0236C21.5738 35.4548 21.2459 35.824 20.8147 35.8511C20.3732 35.8744 20.013 35.54 19.9872 35.1179Z" fill="#CCA2A0"/>
<path d="M16.5956 45.5076C14.5739 45.5076 13.0867 43.6111 13.5734 41.645C13.7115 41.086 13.8948 40.5399 14.1349 39.9757C14.3041 39.5781 14.7624 39.3935 15.1587 39.5613C15.5563 39.7291 15.7409 40.1887 15.5731 40.5851C15.364 41.0795 15.2103 41.5352 15.0903 42.0193C14.8476 42.9979 15.5886 43.9429 16.5956 43.9429C17.3069 43.9429 17.9266 43.4549 18.1034 42.7565C18.4068 41.5533 19.0059 40.7774 19.4706 39.4412C19.6126 39.0333 20.058 38.8177 20.4647 38.9597C20.8726 39.1017 21.0882 39.5471 20.9462 39.9538C20.71 40.6328 20.4414 41.1905 20.2039 41.6811C19.9483 42.2104 19.7469 42.6274 19.6178 43.1373C19.2666 44.5342 18.0247 45.5076 16.5956 45.5076Z" fill="#CCA2A0"/>
<path d="M24.7039 6.54402C24.296 6.40201 24.0804 5.95662 24.2224 5.54996C24.7156 4.13246 25.3017 3.35141 25.5495 2.36638C25.9007 0.973405 27.1439 0 28.5717 0C30.5754 0 32.0845 1.87968 31.5939 3.86135C31.4558 4.42035 31.2725 4.96643 31.0324 5.5306C30.9097 5.81978 30.627 6.00697 30.3133 6.00697C29.7401 6.00697 29.3683 5.41182 29.602 4.90059C29.8072 4.41389 29.9583 3.96334 30.077 3.48567C30.3223 2.49548 29.571 1.5621 28.5717 1.5621C27.8604 1.5621 27.2407 2.05009 27.0639 2.74852C26.7605 3.95043 26.1615 4.72889 25.6967 6.06377C25.556 6.47173 25.1106 6.68603 24.7039 6.54402Z" fill="#CCA2A0"/>
<path d="M24.3548 26.9685C23.9249 26.9401 23.5983 26.567 23.628 26.1371C23.8204 23.275 24.808 21.8588 25.3127 20.6479C25.5554 20.0656 25.7168 19.455 25.7168 18.3602C25.7168 16.9285 25.4625 16.3476 24.9655 15.32C24.4297 14.2097 23.7636 12.8296 23.6215 10.4852C23.5957 10.054 23.9236 9.68479 24.3548 9.65768C24.7847 9.63186 25.1552 9.95977 25.1823 10.391C25.3631 13.3744 26.4875 14.4821 26.982 16.0933C27.1847 16.753 27.2789 17.472 27.2789 18.3602C27.2789 20.1909 26.8994 20.9461 26.3726 22.0796C25.8795 23.102 25.3205 24.2588 25.1875 26.243C25.1591 26.6703 24.7886 26.9969 24.3548 26.9685Z" fill="#CCA2A0"/>
<path d="M29.0744 27.1245C29.0525 27.1245 29.0292 27.1232 29.0073 27.1219C28.5774 27.0844 28.2585 26.7062 28.296 26.2763C28.4044 25.0098 28.7581 24.2778 29.1674 23.4297C29.7793 22.1632 30.3822 20.827 30.3822 18.3599C30.3822 14.048 28.6019 13.3883 28.3102 10.5972C28.265 10.1686 28.5774 9.7839 29.006 9.73872C29.4346 9.69354 29.8193 10.006 29.8645 10.4346C30.044 12.1477 30.9451 12.8384 31.5467 15.0886C32.0037 16.7978 32.036 18.8131 31.8036 20.3816C31.5764 21.9424 31.1026 23.0127 30.5733 24.1074C30.1885 24.904 29.9355 25.4294 29.8516 26.4093C29.8167 26.8159 29.4759 27.1245 29.0744 27.1245Z" fill="#CCA2A0"/>
<path d="M24.5129 44.3113C23.9191 43.5522 23.7112 42.5801 23.9436 41.6441C24.2031 40.5984 24.5452 39.847 24.9622 38.9834C25.4476 37.9738 25.7161 37.4071 25.7161 35.9366C25.7161 33.7355 25.0487 33.3882 24.309 31.4065C24.1579 31.0025 24.3632 30.5519 24.7673 30.4009C25.1713 30.2498 25.6219 30.4551 25.7729 30.8592C25.9614 31.3652 26.1706 31.7977 26.3732 32.216C26.8793 33.2643 27.2795 34.0931 27.2795 35.9366C27.2795 38.9834 26.0918 39.4817 25.4605 42.0211C25.3456 42.4871 25.4489 42.9712 25.7445 43.3495C26.5359 44.3616 28.1535 44.0285 28.4737 42.7595C28.9772 40.7623 30.3818 39.7657 30.3818 35.9379C30.3818 35.8579 30.3818 35.7856 30.3805 35.7184C30.3469 33.5354 29.8241 32.2509 29.3348 31.2194C29.1502 30.8295 29.3167 30.3634 29.7066 30.1788C30.0965 29.9942 30.5625 30.1607 30.7471 30.5506C31.5256 32.1953 31.9439 33.7368 31.9439 35.9379C31.9439 40.0678 30.3998 41.5124 29.988 43.1416C29.3503 45.6681 26.1047 46.3459 24.5129 44.3113Z" fill="#CCA2A0"/>
<path d="M40.485 15.8017C39.8666 13.1177 38.6363 12.702 38.6311 9.59205V9.5701C38.6311 6.50142 39.8111 6.05861 40.4501 3.48696C40.6928 2.50839 39.9518 1.56339 38.9449 1.56339C38.2335 1.56339 37.6138 2.05138 37.437 2.74981C36.9387 4.72502 35.5289 5.77072 35.5289 9.57139C35.5289 11.6692 35.973 12.9499 36.4081 13.9246C36.5836 14.3184 36.4068 14.7805 36.013 14.9561C35.6193 15.1317 35.1571 14.9548 34.9815 14.5611C34.509 13.5012 33.9668 11.9765 33.9668 9.57139C33.9668 9.22799 33.9771 8.89104 33.9991 8.56958C34.225 5.18848 35.5431 3.87038 35.9214 2.36767C36.2725 0.972115 37.5144 0 38.9423 0C40.9678 0 42.4512 1.90034 41.9645 3.86264C41.8367 4.37774 41.6727 4.87736 41.4623 5.38988C40.7445 7.14046 40.1919 7.53034 40.1919 9.5701V9.59076C40.1945 11.0612 40.476 11.6447 40.9433 12.6104C41.2919 13.3333 41.7256 14.2306 42.0071 15.4506C42.1039 15.8714 41.8418 16.291 41.421 16.3878C41.0014 16.4846 40.5818 16.2226 40.485 15.8017Z" fill="#CCA2A0"/>
<path d="M36.0326 34.9624C35.9306 34.1271 35.6802 33.6107 35.3355 32.8968C34.9133 32.0215 34.3866 30.9332 34.1271 29.313C33.8922 27.8452 33.8947 25.972 34.2407 24.3802C34.5209 23.0853 34.9714 22.1506 35.3342 21.3993C35.7396 20.5614 36.0055 20.0076 36.0713 18.8999C36.0959 18.4687 36.4664 18.1408 36.8963 18.1654C37.3275 18.1899 37.6554 18.5604 37.6309 18.9903C37.4811 21.5465 36.3166 22.1739 35.768 24.7107C35.4697 26.0894 35.462 27.7639 35.6698 29.0652C36.1049 31.7801 37.3081 32.5353 37.5831 34.7713C37.636 35.1999 37.3313 35.5898 36.9027 35.6415C36.4767 35.6957 36.0855 35.391 36.0326 34.9624Z" fill="#CCA2A0"/>
<path d="M41.5069 37.1198C41.0757 37.1082 40.7361 36.748 40.7478 36.3168C40.8136 33.984 40.3979 32.6607 39.5355 30.8624C39.0295 29.8154 38.6318 28.9866 38.6318 27.1469C38.6318 23.8368 40.0274 23.5115 40.5774 20.4686C40.6535 20.0439 41.0602 19.7624 41.4849 19.8386C41.9097 19.9148 42.1911 20.3214 42.1149 20.7462C41.6954 23.0725 40.7465 24.2112 40.3992 25.417C40.2598 25.9024 40.1939 26.4523 40.1939 27.1469C40.1939 28.6703 40.4883 29.2202 40.9492 30.1975C41.5727 31.4885 42.3964 33.2378 42.3086 36.3607C42.297 36.7919 41.9381 37.1314 41.5069 37.1198ZM40.9427 30.1846C40.9427 30.1859 40.9427 30.1859 40.9427 30.1846V30.1846Z" fill="#CCA2A0"/>
<path d="M37.3368 45.5083C35.3151 45.5083 33.8279 43.6118 34.3146 41.6457C34.5715 40.6103 34.9265 39.8292 35.2699 39.1166C35.4571 38.728 35.9244 38.5641 36.313 38.7513C36.7016 38.9385 36.8656 39.4045 36.6784 39.7944C36.3582 40.4592 36.0535 41.1293 35.8315 42.0213C35.5888 42.9999 36.3311 43.9449 37.3368 43.9449C38.0481 43.9449 38.6678 43.4569 38.8447 42.7585C39.0551 41.9258 39.3998 41.3126 39.7445 40.5728C39.8723 40.2979 40.1486 40.121 40.4532 40.121C40.8844 40.121 41.2343 40.4709 41.2343 40.902C41.2343 41.0789 41.1994 41.1783 40.9464 41.6831C40.6908 42.2111 40.4894 42.6281 40.3603 43.1393C40.0078 44.5349 38.7646 45.5083 37.3368 45.5083Z" fill="#CCA2A0"/>
</svg>
