<svg preserveAspectRatio="none" width="100%" height="100%" overflow="visible" style="display: block;" viewBox="0 0 50 50" fill="none" xmlns="http://www.w3.org/2000/svg">
<g id="fi_17033946">
<path id="Vector" d="M13.7747 38.1798C13.6544 38.1798 13.531 38.1517 13.4162 38.0923C13.0333 37.8946 12.8833 37.4236 13.0818 37.0392C14.4224 34.447 17.0591 32.9071 19.6638 33.215C20.0919 33.265 20.3982 33.654 20.3482 34.0821C20.2982 34.5103 19.9099 34.8181 19.481 34.7665C17.5279 34.5361 15.5146 35.7392 14.4693 37.7571C14.3302 38.0251 14.0583 38.1798 13.7747 38.1798Z" fill="var(--fill-0, #CCA2A0)"/>
<g id="Group">
<path id="Vector_2" d="M27.7102 36.922C27.3345 36.922 27.0032 36.6501 26.9399 36.2665C24.9977 24.3985 34.0743 20.4134 34.4618 20.2493C34.9563 20.0423 35.5516 20.4329 35.5516 20.9688C35.5516 21.3142 35.3306 21.6071 35.0204 21.7103C34.2618 22.0485 26.7884 25.6634 28.4829 36.0149C28.5524 36.4407 28.2641 36.8423 27.8376 36.9118C27.7946 36.9188 27.7524 36.922 27.7102 36.922Z" fill="var(--fill-0, #CCA2A0)"/>
<path id="Vector_3" d="M32.4491 38.1804C32.0928 38.1804 31.771 37.9351 31.6882 37.5734C30.5272 32.4804 31.8561 28.9609 33.1757 26.9038C34.7639 24.4288 37.0061 23.0015 38.5249 22.6851C38.9436 22.5937 39.3608 22.8679 39.4491 23.2898C39.5374 23.7117 39.2671 24.1257 38.8444 24.214C37.685 24.457 35.828 25.6648 34.4921 27.7476C33.3342 29.5531 32.1717 32.6617 33.2116 37.2257C33.3077 37.6468 33.0444 38.0656 32.6241 38.1609C32.5655 38.1749 32.5069 38.1804 32.4491 38.1804Z" fill="var(--fill-0, #CCA2A0)"/>
<g id="Group_2">
<path id="Vector_4" d="M22.6636 18.7008C22.3214 18.7008 22.0066 18.4735 21.9113 18.1266C20.6925 13.6945 18.955 12.1539 16.5448 11.1055C16.1495 10.9328 15.9683 10.4727 16.1402 10.0774C16.312 9.68283 16.7714 9.50002 17.1683 9.67267C20.4698 11.1102 22.2222 13.3649 23.4167 17.7133C23.5308 18.1289 23.287 18.5594 22.8706 18.6735C22.8019 18.6922 22.7316 18.7016 22.6628 18.7016L22.6636 18.7008Z" fill="var(--fill-0, #CCA2A0)"/>
<path id="Vector_5" d="M27.2579 14.9298C26.9384 14.9298 26.6384 14.7321 26.5236 14.4149C25.8603 12.5845 24.4009 10.7845 22.1853 9.0618C21.8439 8.79617 21.7821 8.30555 22.047 7.9657C22.3118 7.62586 22.8032 7.56258 23.1431 7.82742C25.5954 9.73289 27.2275 11.7704 27.9923 13.8821C28.1392 14.2884 27.9298 14.736 27.5236 14.8829C27.4361 14.9141 27.3462 14.9298 27.2579 14.9298Z" fill="var(--fill-0, #CCA2A0)"/>
<path id="Vector_6" d="M39.6358 13.4898C39.6233 13.4898 39.6116 13.4898 39.5991 13.4898C39.3795 13.4788 39.1741 13.3765 39.0335 13.2077C38.3569 12.3898 37.6038 11.6358 36.7944 10.9687C36.6249 10.828 36.5217 10.6233 36.5116 10.403C36.5014 10.1827 36.5842 9.96866 36.7397 9.81319L37.5342 9.01866C37.721 8.83194 37.9889 8.75225 38.2491 8.80694C38.5077 8.86163 38.721 9.04444 38.8163 9.29131C39.1506 10.1608 39.8413 10.8515 40.7108 11.1858C40.9577 11.2812 41.1405 11.4944 41.1952 11.753C41.2499 12.0116 41.1702 12.2812 40.9835 12.4679L40.1889 13.2624C40.042 13.4093 39.8436 13.4913 39.6366 13.4913L39.6358 13.4898Z" fill="var(--fill-0, #CCA2A0)"/>
<g id="Group_3">
<path id="Vector_7" d="M34.7798 39.3508C34.5368 39.3508 34.2985 39.2383 34.1454 39.0266C33.8938 38.6766 33.9719 38.1883 34.3227 37.936C38.4751 34.9415 40.954 30.1032 40.954 24.993C40.954 23.5883 40.7704 22.1938 40.4079 20.8485C40.2954 20.4321 40.543 20.0032 40.9594 19.8907C41.3719 19.7805 41.8047 20.0251 41.9172 20.4422C42.3149 21.9196 42.5173 23.4508 42.5173 24.9922C42.5173 30.6032 39.7962 35.9149 35.2376 39.2032C35.0993 39.3024 34.9391 39.3501 34.7813 39.3501L34.7798 39.3508Z" fill="var(--fill-0, #CCA2A0)"/>
<path id="Vector_8" d="M12.0633 36.3751C11.8376 36.3751 11.6141 36.2782 11.4602 36.0907C8.89694 32.9797 7.48444 29.0383 7.48444 24.993C7.48444 15.343 15.3454 7.49302 25.0079 7.49302C27.3587 7.49302 29.6368 7.94927 31.779 8.84927C32.1766 9.01646 32.3633 9.47427 32.1962 9.87271C32.0282 10.2704 31.5704 10.4579 31.1727 10.2899C29.2235 9.47036 27.1493 9.05552 25.0071 9.05552C16.2063 9.05552 9.04616 16.2047 9.04616 24.993C9.04616 28.6766 10.3321 32.2657 12.6649 35.0977C12.9399 35.4305 12.8922 35.9235 12.5587 36.1969C12.4126 36.3165 12.2376 36.3758 12.0626 36.3758L12.0633 36.3751Z" fill="var(--fill-0, #CCA2A0)"/>
<path id="Vector_9" d="M20.1229 41.7827C20.0479 41.7827 19.9713 41.7717 19.8955 41.7491C17.6987 41.0803 15.6846 40.0006 13.9096 38.5405C13.5768 38.2655 13.5291 37.7741 13.8026 37.4405C14.0776 37.1077 14.5682 37.0592 14.9026 37.3335C16.5174 38.6631 18.351 39.646 20.3502 40.2538C20.7627 40.3796 20.9955 40.8163 20.8705 41.2288C20.7674 41.5663 20.458 41.7827 20.1229 41.7827Z" fill="var(--fill-0, #CCA2A0)"/>
<g id="Group_4">
<path id="Vector_10" d="M10.386 33.9258C10.243 33.9258 10.0985 33.8867 9.96878 33.8047C9.60394 33.5742 9.49613 33.0914 9.7266 32.7266C11.7508 29.5297 16.0532 26.7875 19.2344 27.8071C19.6446 27.9383 19.8719 28.3774 19.7399 28.7891C19.6086 29.1992 19.1711 29.4297 18.7578 29.2946C16.3719 28.5352 12.7196 30.9188 11.0461 33.5625C10.8977 33.7977 10.6446 33.9258 10.386 33.9258Z" fill="var(--fill-0, #CCA2A0)"/>
<path id="Vector_11" d="M8.59348 28.4375C8.40598 28.4375 8.21848 28.3704 8.06848 28.2344C7.74895 27.9446 7.72551 27.45 8.01535 27.1313C12.0279 22.7118 18.3536 22.1368 20.195 22.654C20.6107 22.7696 20.8536 23.2016 20.7364 23.6165C20.62 24.0329 20.1872 24.275 19.7739 24.1579C18.438 23.7844 12.7107 24.2836 9.17239 28.1805C9.01848 28.3508 8.80598 28.4368 8.59426 28.4368L8.59348 28.4375Z" fill="var(--fill-0, #CCA2A0)"/>
<path id="Vector_12" d="M41.6914 26.8946C41.4875 26.8946 41.2843 26.8157 41.1312 26.6579C38.2726 23.7228 34.7343 21.472 30.8968 20.1485C30.489 20.0079 30.2726 19.5634 30.4132 19.1556C30.5539 18.7478 30.9984 18.5314 31.4062 18.672C35.4726 20.0751 39.2226 22.4603 42.2507 25.5689C42.5515 25.8782 42.5453 26.372 42.2351 26.6735C42.0835 26.8204 41.8874 26.8946 41.6906 26.8946H41.6914Z" fill="var(--fill-0, #CCA2A0)"/>
<path id="Vector_13" d="M8.62161 22.3946C8.35364 22.3946 8.09192 22.2563 7.94739 22.0086C7.72942 21.636 7.85364 21.1579 8.22551 20.9399C12.4661 18.4516 17.3247 17.1368 22.2763 17.1368C22.5435 17.1368 22.8099 17.1368 23.0685 17.1461C23.5005 17.161 23.8372 17.5211 23.8232 17.9524C23.8091 18.3844 23.4138 18.743 23.0169 18.7071C22.7747 18.6993 22.531 18.7055 22.2771 18.6993C17.6036 18.6993 13.0169 19.9399 9.01614 22.2875C8.89192 22.361 8.75598 22.3946 8.62161 22.3946Z" fill="var(--fill-0, #CCA2A0)"/>
</g>
</g>
<path id="Vector_14" d="M25.0078 42.5078C24.6305 42.5078 24.1813 42.5016 23.7219 42.457C23.5313 42.4391 23.3547 42.3508 23.2242 42.2109C19.9821 38.7141 18.1953 34.1555 18.1953 29.375C18.1953 19.9195 25.2508 11.8524 34.6078 10.6086C34.8055 10.5836 35.0032 10.632 35.1649 10.7477C37.7219 12.5734 39.7407 15.0391 41.0039 17.8781C41.1274 18.1563 41.0782 18.4813 40.8774 18.7109C40.675 18.9399 40.361 19.0289 40.068 18.9445C39.1625 18.6758 38.1774 18.5391 37.1414 18.5391C31.1664 18.5391 26.3055 23.4 26.3055 29.3742C26.3055 33.6633 28.836 37.5469 32.7524 39.2688C33.0297 39.3899 33.2117 39.6617 33.2196 39.9649C33.2266 40.268 33.0578 40.5477 32.7867 40.6828C30.3586 41.8938 27.7414 42.5078 25.0086 42.5078H25.0078ZM24.1664 40.925C24.4571 40.9422 24.7399 40.9453 25.0078 40.9453C26.9602 40.9453 28.8469 40.6016 30.6367 39.9211C27.0094 37.6961 24.7422 33.7172 24.7422 29.3742C24.7422 22.5383 30.3039 16.9766 37.1407 16.9766C37.7258 16.9766 38.2985 17.0149 38.8547 17.0906C37.7672 15.1914 36.2867 13.5242 34.5071 12.2C26.0766 13.475 19.7578 20.8031 19.7578 29.3734C19.7578 33.657 21.3211 37.7477 24.1664 40.9234V40.925Z" fill="var(--fill-0, #CCA2A0)"/>
<path id="Vector_15" d="M3.90657 46.6563C3.69563 46.6563 3.48938 46.5719 3.33782 46.4117C3.10891 46.1688 3.05969 45.8086 3.21438 45.5125L5.55813 41.0438C5.59485 40.9742 5.64172 40.9102 5.69797 40.8547L11.5105 35.0422C11.6667 34.886 11.8839 34.8016 12.1042 34.8141C12.3253 34.8266 12.5316 34.9305 12.6706 35.1031C13.3316 35.9203 14.0808 36.6703 14.8988 37.3313C15.0714 37.4703 15.1753 37.6758 15.1878 37.8977C15.1995 38.1188 15.1159 38.3352 14.9597 38.4914L9.14719 44.3039C9.08079 44.3703 9.00266 44.4242 8.91751 44.4633L4.23001 46.5883C4.1261 46.6352 4.01672 46.6578 3.90735 46.6578L3.90657 46.6563ZM6.88626 41.875L5.65422 44.225L8.14251 43.0977L13.2566 37.9836C12.8222 37.593 12.4081 37.1789 12.0175 36.7446L6.88626 41.875Z" fill="var(--fill-0, #CCA2A0)"/>
<path id="Vector_16" d="M41.946 12.9844C41.3187 12.9844 40.7116 12.8688 40.1397 12.6399C39.739 12.4789 39.5444 12.0242 39.7046 11.6235C39.8655 11.2227 40.321 11.0274 40.721 11.1883C41.1069 11.343 41.5187 11.4219 41.946 11.4219C43.8022 11.4219 45.3132 9.91096 45.3132 8.05392C45.3132 6.19689 43.8022 4.68674 41.946 4.68674C40.0897 4.68674 38.578 6.19767 38.578 8.05392C38.578 8.48127 38.6569 8.89299 38.8116 9.27892C38.9718 9.67971 38.7772 10.1344 38.3765 10.2953C37.9765 10.4563 37.521 10.261 37.3601 9.86017C37.1312 9.2883 37.0155 8.68049 37.0155 8.05392C37.0155 5.33596 39.2272 3.12424 41.946 3.12424C44.6647 3.12424 46.8757 5.33517 46.8757 8.05392C46.8757 10.7727 44.6647 12.9844 41.946 12.9844Z" fill="var(--fill-0, #CCA2A0)"/>
<path id="Vector_17" d="M15.8314 19.4718C15.4689 19.4718 15.1439 19.2187 15.0666 18.8491C14.5752 16.478 13.7791 15.3546 12.1275 14.7038C11.726 14.5452 11.5291 14.0913 11.6877 13.6897C11.8463 13.289 12.2978 13.0929 12.7017 13.2499C14.8674 14.1046 15.9963 15.6351 16.5971 18.5319C16.6846 18.9546 16.4135 19.3679 15.9908 19.4562C15.9377 19.4671 15.8838 19.4718 15.8314 19.4718Z" fill="var(--fill-0, #CCA2A0)"/>
</g>
<path id="Vector_18" d="M37.2894 37.125C36.9636 37.125 36.6597 36.9195 36.5495 36.5945C35.5933 33.7719 35.7097 31.1633 36.887 29.0516C38.2128 26.6703 40.4206 25.6063 41.5159 25.3524C41.9363 25.257 42.3558 25.5172 42.4534 25.9375C42.5503 26.3578 42.2886 26.7774 41.8683 26.875C40.9542 27.0867 39.237 28.043 38.2519 29.8125C37.2824 31.5531 37.2074 33.6664 38.03 36.093C38.1683 36.5016 37.9488 36.9453 37.5409 37.0844C37.4581 37.1125 37.373 37.1258 37.2902 37.1258L37.2894 37.125Z" fill="var(--fill-0, #CCA2A0)"/>
</g>
</g>
</svg>
